<mxfile host="app.diagrams.net" agent="Mozilla/5.0 (Windows NT 10.0; Win64; x64) AppleWebKit/537.36 (KHTML, like Gecko) Chrome/131.0.0.0 Safari/537.36 Edg/131.0.0.0" version="25.0.3" pages="6">
  <diagram name="High Level Design" id="g5NgZtFGSZcwndbOoXFB">
    <mxGraphModel dx="2074" dy="1187" grid="1" gridSize="10" guides="1" tooltips="1" connect="1" arrows="1" fold="1" page="1" pageScale="1" pageWidth="850" pageHeight="1100" math="0" shadow="0">
      <root>
        <mxCell id="0" />
        <mxCell id="1" parent="0" />
        <mxCell id="rhl6Vlfjw6nyRb7RvXe1-5" style="edgeStyle=orthogonalEdgeStyle;rounded=0;orthogonalLoop=1;jettySize=auto;html=1;" edge="1" parent="1" source="rhl6Vlfjw6nyRb7RvXe1-1">
          <mxGeometry relative="1" as="geometry">
            <mxPoint x="250" y="260" as="targetPoint" />
          </mxGeometry>
        </mxCell>
        <mxCell id="rhl6Vlfjw6nyRb7RvXe1-1" value="Flat File Drop Location" style="image;html=1;image=img/lib/clip_art/general/Full_Folder_128x128.png" vertex="1" parent="1">
          <mxGeometry x="30" y="220" width="80" height="80" as="geometry" />
        </mxCell>
        <mxCell id="rhl6Vlfjw6nyRb7RvXe1-2" value="&lt;h1 style=&quot;margin-top: 0px;&quot;&gt;Telco Churn Prediction High Level System Design&lt;/h1&gt;" style="text;html=1;whiteSpace=wrap;overflow=hidden;rounded=0;align=center;" vertex="1" parent="1">
          <mxGeometry x="180" y="10" width="370" height="80" as="geometry" />
        </mxCell>
        <mxCell id="rhl6Vlfjw6nyRb7RvXe1-7" style="edgeStyle=orthogonalEdgeStyle;rounded=0;orthogonalLoop=1;jettySize=auto;html=1;entryX=0;entryY=0.461;entryDx=0;entryDy=0;entryPerimeter=0;" edge="1" parent="1" source="rhl6Vlfjw6nyRb7RvXe1-6" target="rhl6Vlfjw6nyRb7RvXe1-12">
          <mxGeometry relative="1" as="geometry">
            <mxPoint x="520" y="270" as="targetPoint" />
          </mxGeometry>
        </mxCell>
        <mxCell id="rhl6Vlfjw6nyRb7RvXe1-6" value="Data Ingestion" style="shape=process;whiteSpace=wrap;html=1;backgroundOutline=1;" vertex="1" parent="1">
          <mxGeometry x="250" y="230" width="170" height="80" as="geometry" />
        </mxCell>
        <mxCell id="rhl6Vlfjw6nyRb7RvXe1-17" style="edgeStyle=orthogonalEdgeStyle;rounded=0;orthogonalLoop=1;jettySize=auto;html=1;" edge="1" parent="1" source="rhl6Vlfjw6nyRb7RvXe1-10">
          <mxGeometry relative="1" as="geometry">
            <mxPoint x="590" y="430" as="targetPoint" />
          </mxGeometry>
        </mxCell>
        <mxCell id="rhl6Vlfjw6nyRb7RvXe1-10" value="Data Validation" style="shape=process;whiteSpace=wrap;html=1;backgroundOutline=1;" vertex="1" parent="1">
          <mxGeometry x="250" y="400" width="170" height="60" as="geometry" />
        </mxCell>
        <mxCell id="rhl6Vlfjw6nyRb7RvXe1-14" style="edgeStyle=orthogonalEdgeStyle;rounded=0;orthogonalLoop=1;jettySize=auto;html=1;entryX=0.5;entryY=0;entryDx=0;entryDy=0;exitX=-0.033;exitY=0.673;exitDx=0;exitDy=0;exitPerimeter=0;" edge="1" parent="1" source="rhl6Vlfjw6nyRb7RvXe1-12" target="rhl6Vlfjw6nyRb7RvXe1-10">
          <mxGeometry relative="1" as="geometry">
            <Array as="points">
              <mxPoint x="597" y="330" />
              <mxPoint x="335" y="330" />
            </Array>
          </mxGeometry>
        </mxCell>
        <mxCell id="rhl6Vlfjw6nyRb7RvXe1-12" value="Data Ingestion Artifacts" style="sketch=0;outlineConnect=0;fontColor=#232F3E;gradientColor=none;strokeColor=#ffffff;fillColor=#232F3E;dashed=0;verticalLabelPosition=middle;verticalAlign=bottom;align=center;html=1;whiteSpace=wrap;fontSize=10;fontStyle=1;spacing=3;shape=mxgraph.aws4.productIcon;prIcon=mxgraph.aws4.artifact;" vertex="1" parent="1">
          <mxGeometry x="600" y="220" width="80" height="110" as="geometry" />
        </mxCell>
        <mxCell id="rhl6Vlfjw6nyRb7RvXe1-18" style="edgeStyle=orthogonalEdgeStyle;rounded=0;orthogonalLoop=1;jettySize=auto;html=1;" edge="1" parent="1">
          <mxGeometry relative="1" as="geometry">
            <mxPoint x="340" y="530" as="targetPoint" />
            <mxPoint x="600" y="470" as="sourcePoint" />
          </mxGeometry>
        </mxCell>
        <mxCell id="rhl6Vlfjw6nyRb7RvXe1-15" value="Data Validation Artifacts" style="sketch=0;outlineConnect=0;fontColor=#232F3E;gradientColor=none;strokeColor=#ffffff;fillColor=#232F3E;dashed=0;verticalLabelPosition=middle;verticalAlign=bottom;align=center;html=1;whiteSpace=wrap;fontSize=10;fontStyle=1;spacing=3;shape=mxgraph.aws4.productIcon;prIcon=mxgraph.aws4.artifact;" vertex="1" parent="1">
          <mxGeometry x="600" y="375" width="80" height="135" as="geometry" />
        </mxCell>
        <mxCell id="rhl6Vlfjw6nyRb7RvXe1-21" style="edgeStyle=orthogonalEdgeStyle;rounded=0;orthogonalLoop=1;jettySize=auto;html=1;" edge="1" parent="1" source="rhl6Vlfjw6nyRb7RvXe1-19">
          <mxGeometry relative="1" as="geometry">
            <mxPoint x="590" y="570" as="targetPoint" />
          </mxGeometry>
        </mxCell>
        <mxCell id="rhl6Vlfjw6nyRb7RvXe1-19" value="Data Transformation" style="shape=process;whiteSpace=wrap;html=1;backgroundOutline=1;" vertex="1" parent="1">
          <mxGeometry x="250" y="540" width="170" height="60" as="geometry" />
        </mxCell>
        <mxCell id="rhl6Vlfjw6nyRb7RvXe1-22" style="edgeStyle=orthogonalEdgeStyle;rounded=0;orthogonalLoop=1;jettySize=auto;html=1;" edge="1" parent="1">
          <mxGeometry relative="1" as="geometry">
            <mxPoint x="330" y="660" as="targetPoint" />
            <mxPoint x="600" y="620" as="sourcePoint" />
          </mxGeometry>
        </mxCell>
        <mxCell id="rhl6Vlfjw6nyRb7RvXe1-20" value="Data Transformation Artifacts" style="sketch=0;outlineConnect=0;fontColor=#232F3E;gradientColor=none;strokeColor=#ffffff;fillColor=#232F3E;dashed=0;verticalLabelPosition=middle;verticalAlign=bottom;align=center;html=1;whiteSpace=wrap;fontSize=10;fontStyle=1;spacing=3;shape=mxgraph.aws4.productIcon;prIcon=mxgraph.aws4.artifact;" vertex="1" parent="1">
          <mxGeometry x="600" y="520" width="80" height="135" as="geometry" />
        </mxCell>
        <mxCell id="rhl6Vlfjw6nyRb7RvXe1-25" style="edgeStyle=orthogonalEdgeStyle;rounded=0;orthogonalLoop=1;jettySize=auto;html=1;" edge="1" parent="1" source="rhl6Vlfjw6nyRb7RvXe1-23">
          <mxGeometry relative="1" as="geometry">
            <mxPoint x="580" y="700" as="targetPoint" />
          </mxGeometry>
        </mxCell>
        <mxCell id="rhl6Vlfjw6nyRb7RvXe1-23" value="Model Trainer" style="shape=process;whiteSpace=wrap;html=1;backgroundOutline=1;" vertex="1" parent="1">
          <mxGeometry x="250" y="670" width="170" height="60" as="geometry" />
        </mxCell>
        <mxCell id="rhl6Vlfjw6nyRb7RvXe1-27" style="edgeStyle=orthogonalEdgeStyle;rounded=0;orthogonalLoop=1;jettySize=auto;html=1;entryX=0.5;entryY=0;entryDx=0;entryDy=0;" edge="1" parent="1" source="rhl6Vlfjw6nyRb7RvXe1-24" target="rhl6Vlfjw6nyRb7RvXe1-26">
          <mxGeometry relative="1" as="geometry" />
        </mxCell>
        <mxCell id="rhl6Vlfjw6nyRb7RvXe1-29" style="edgeStyle=orthogonalEdgeStyle;rounded=0;orthogonalLoop=1;jettySize=auto;html=1;" edge="1" parent="1">
          <mxGeometry relative="1" as="geometry">
            <mxPoint x="330" y="780" as="targetPoint" />
            <mxPoint x="600" y="740" as="sourcePoint" />
          </mxGeometry>
        </mxCell>
        <mxCell id="rhl6Vlfjw6nyRb7RvXe1-24" value="Model Trainer Artifacts" style="sketch=0;outlineConnect=0;fontColor=#232F3E;gradientColor=none;strokeColor=#ffffff;fillColor=#232F3E;dashed=0;verticalLabelPosition=middle;verticalAlign=bottom;align=center;html=1;whiteSpace=wrap;fontSize=10;fontStyle=1;spacing=3;shape=mxgraph.aws4.productIcon;prIcon=mxgraph.aws4.artifact;" vertex="1" parent="1">
          <mxGeometry x="600" y="660" width="80" height="135" as="geometry" />
        </mxCell>
        <mxCell id="rhl6Vlfjw6nyRb7RvXe1-26" value="Experiment tracking" style="shape=image;verticalLabelPosition=bottom;labelBackgroundColor=default;verticalAlign=top;aspect=fixed;imageAspect=0;image=data:image/png,iVBORw0KGgoAAAANSUhEUgAAA6UAAAIRCAYAAACyDRuRAAAAAXNSR0IArs4c6QAAAARnQU1BAACxjwv8YQUAAAAJcEhZcwAADsQAAA7EAZUrDhsAAPSWSURBVHhe7P13kCTZfecJft09dETqLK1Fd1VLtEI3GlqDBEBySIIA1QxotuTs7MzSzuZu75+Zf/avWxs7szubm9sjl6SRBAgQXEKRAIYCWjTYaLTWukvr1Jmhw93v93vuHukZFZkZkRlZEVX1/VS9dA/358+f8ufv609ZsODjZocxMLhY4bbfMI8QQm5kBqWsHSQGpdxn2nQG39NkPQb5WbrZ86+kjR3uEkIIIYQQQggh1xyKUkIIIYQQQgghfYOilBBCCCGEEEJI36AoJYQQQgghhBDSNyhKCSGEEEIIIYT0DYpSQgghhBBCCCF9g6KUEEIIIYQQQkjfoCglhBBCCCGEENI3KEoJIYQQQgghhPQNilJCCCGEEEIIIX2DopQQQgghhBBCSN+gKCWEEEIIIYQQ0jcoSgkhhBBCCCGE9A2KUkIIIYQQQgghfYOilBBCCCGEEEJI36AoJYQQQgghhBDSNyhKCSGEEEIIIYT0DYpSQgghhBBCCCF9g6KUEEIIIYQQQkjfoCglhBBCCCGEENI3KEoJIYQQQgghhPQNilJCCCGEEEIIIX2DopQQQgghhBBCSN+gKCWEEEIIIYQQ0jcoSgkhhBBCCCGE9A2KUkIIIYQQQgghfYOilBBCCCGEEEJI36AoJYQQQgghhBDSNyhKCSGEEEIIIYT0DYpSQgghhBBCCOkHfri9yaEoVaxw2wYr/EducphHCCHk5qKDcp9l/wDB9zS5HqEgbUJRGrFqWaUnIkNuatbMAnzhEULIDcc65T4ZMPieJuS6haKUkE3DlxwhhBAyuPA9TcigQ1FKCCGEEEIIIaRvUJQSQgghhBBCCOkbFKWEEEIIIYQQQvoGRSkhhBBCCCGEkL5BUUoIIYQQQgghpG9QlBJCCCGEEEII6RsUpYQQQgghhBBC+gZFKSGEEEIIIYSQvkFRSgghhBBCCCGkb1CUEkIIIYQQQgjpGxSlhBBCCCGEEEL6BkUpIYQQQgghhJC+QVFKCCGEEEIIIaRvUJQSQgghhBBCCOkbFKWEEEIIIYQQQvoGRWmEH26vQk+sepLcTDCPEEIIIYML39OEXLdQlCprlFN+8yQLs5uaDvLIcl4hhBBCyDWF72lCrmsoSjuAhRhZD+YRQgghZHDhe5qQwYailBBCCCGEEEJI36AoJYQQQgghhBDSNyhKCSGEEEIIIYT0DYpSQgghhBBCCCF9g6KUEEIIIYQQQkjfoCglhBBCCCGEENI3KEoJIYQQQgghhPQNilJCCCGEEEIIIX2DopQQQgghhBBCSN+gKCWEEEIIIYQQ0jcoSgkhhBBCCCGE9A2KUkIIIYQQQgghfYOilBBCCCGEEEJI36AoJYQQQgghhBDSNyhKCSGEEEIIIYT0DYpSQgghhBBCCCF9g6KUEEIIIYQQQkjfoCglhBBCCCGEENI3KEoVK9y2wQr/kZsc5hFCCCFkcOF7mpDrGorSjtCCjIXZTc+aWYAvPEIIIaSv8D1NyHULRWnEquUUCzCyHswjhBBCyODC9zQhgw5FKSGEEEIIIYSQvkFRSgghhBBCCCGkb1CUEkIIIYQQQgjpGxSlhBBCCCGEEEL6BkUpIYQQQgghhJC+QVFKCCGEEEIIIaRvUJQSQgghhBBCCOkbFKWEEEIIIYQQQvoGRSkhhBBCCCGEkL5BUUoIIYQQQgghpG9QlBJCCCGEEEII6RsUpYQQQgghhBBC+gZFKSGEEEIIIYSQvkFRSgghhBBCCCGkb1CUEkIIIYQQQgjpGxSlEX64vYpVTxASwjxCCCGEDC58TxMy6FCUdoQWZizQbnrWzAK++UcIIYSQPsH3NCHXLRSlyhplVFCEsRC76WEeIYQQQgYXvqcJua6hKCWEEEIIIYQQ0jcoSgkhhBBCCCGE9A2KUkIIIYQQQgghfYOilBBCCCGEEEJI36AoJYQQQgghhBDSNyhKCSGEEEIIIYT0DYpSQgghhBBCCCF9g6KUEEIIIYQQQkjfoCglhBBCCCGEENI3KEoJIYQQQgghhPQNilJCCCGEEEIIIX2DopQQQgghhBBCSN+gKCWEEEIIIYQQ0jcoSgkhhBBCCCGE9A2KUkIIIYQQQgghfYOilBBCCCGEEEJI36AoJYQQQgghhBDSNyhKCSGEEEIIIYT0DYrSDrDkHyFrwTxCCCGEDC58TxMy2FCUKmuUU8uFGAuzm5oO8ghfeIQQQkif4HuakOsaitKIVcspPcFCjAjMI4QQQsjgwvc0IdctFKWEEEIIIYQQQvoGRSkhhBBCCCGEkL5BUUoIIYQQQgghpG9QlBJCCCGEEEII6RsUpYQQQgghhBBC+gZFKSGEEEIIIYSQvkFRSgghhBBCCCGkb1CUEkIIIT2i+9UQr76iezfi9jdyNSGEENJfKEoJIYSQvuGH25VE0rJbQwghhFyPUJQSQgghfcQSYRoXlvpijm9XMxHxfUIIIeR6hKKUEEII6RHa7tm+7bM9kaBcFpsrJeby8ZVGie8rwe9ufUAIIYT0H33/8e0V0SYmrFC3+3zR94d4jWsQWCOPBLmEeYQQcjWtRdnKkiI6G8jK4Ox6Zcny+egqJX7Vei6sIHKAXE2biAw+HgRpteXlPtOmO9qmF9/TRBjEZ4nZMUDShqI0zhoFWVCIMaquOYNWgKyRR4JcwjxCCFmJlhDxoix6m5jSwnLERDYi0zwbYHb1j5wzDsm+r7/dcF+PBafs6HLZesun1se4S9rSJhIpSgeYtunF9zQRBvFZYnYMkLShKI2zRkEWFGKMqmvOoBUga+SRIJcwjxBChKjskiLB7NoJ2de3rpQXYnwVo4mkHBfjpMTovgpUsWOLHaMuBRWfxsT3RYx6Yty6bBvB1pWt78m9wvPw9AKxLlsjYNch8i+5mjbRR1E6wLRNL76niTCIzxKzY4CkDUVpnDUKsqAQY1RdcwatAFkjjwS5hHmEkJuVqLgypYD5oWWDGEsEaSIDZIaA3DCQlW0mB7swDDtVgJMVI7+dVAaWk4AvgtRywnJFHfNUWAY/vIYrpgavXoVbLaFRKcIXg0opNLJfnAOqsnWrcm1NjIhWFaerMYgVtUGibbmvkabmGpT7TJ/uaJtefE8TYRCfJWbHAEkbitI4axRkQSHGqLrmDFoB0jaPqCfV8GVHyM1KUFTpW1VfqrLVllERola6ADs3iuTwBKzxPbAmdgNjk0BhFNaQmMywEaWJbB5OOivXiCgVNyxtMQ3LFe2HG7ivDaIuGipKaxW4lSU0ykvwy0XYlUVYxQVgbgr+5bPA4hXU5y7BnbsIlGYDcboakeOkPf0u95k+3cH3NFmNQXyWmB0DJG0oSiNWiYWgIAuKMdIHBqkAYR4hhMTQJ3/5qZdfKkS1G24iC0uEqD2yHc72fUjvO4rRA7fAGd8Ne0gEaW4YbiKNmu+gBjG+jbpvwRU3PBGj2gm3FTtWvFiWL1f5SMgVKUf2fQ8py0PSrYpAnYe3OA2nOIXpFx/H0jM/AU6+IKK0HF5NuqZN0U5ROqCskhR8TxPDID5LzJIBkjYUpQpjYHAZlAKEeYSQG4yocOng4Y6XQ6F1PaQm6BSrXXRTQKoADG8Hjt6FoSN3YvjgbciIKG2kh1C106giibrIyYaI0UiA+l7YsipGW0iXWdtfwatbr1zeqqxNisk7LsbTDVx56oeY/cFXgRceARpL5jqyAdokBUXpALLFyUBuAAbxWWK+DZC0oShVGAODy6AUIMwjhNxgRIVLBw93vBxqWpeD2jJqJQERnUkRnzkRoiOH74S95xbURJxWM6OoJfNo2Cl4Rog68H1tCRVnzKRHuhOauCA1ExOFN1ohVOM0PRJgrHkijz04Vg2TmQYWv/c1LP3wK8DZ50SULhprZAO0RLVCUTqAbHEykBuAQXyWmG8DJG0oShXGwOAyKAUI8wghNyetZZApC2z5L2I0OQRn9yFk99+G/KE7kTpwHM7EHlTTwyjZaVSQQF3EqKcz7aoINXMU6Ha9gk1vEhU6q9mNHTe7wTWWr9K3glFrEaVvfQGlR/4eWDhFUboZ2pT/FKUDyBYnA7kBGMRnifk2QNKGolRhDAwug1KAMI8QcnPRtuzRg7qUSw728DZkdx1F7o6HkD76Nlg7j6Cen0AZSZQbFurm5ar2Q6NliGn1jMx6rFfoxNyx1G5gLL+BrFVBcvYEKv/9i6g++R2geklEaclYJRugTVJQlA4gW5wM5AZgEJ8l5tsASZtojmxCCCGERFrjKvSNmQLSo3C2HUb+rvdg+0c+jW3v/Djsg/dgNrMNlxppzDdSqFlp+DrGVASqEbF6bVOQKoGANCY6HDcd1VJibsSM3iYltyxePIPq/JVgWZi1loMhhBBCBgCKUkIIIWQ1VOsZtIW0AOw+juF3/xJu/fX/Eam3fRDn0ttxToTokqvjRVWAymtVu+qa7rpKpDSj3y3o+NFW0zFqV68Jfin6Uk8nbFhXzgNL08FSMBSlhBBCBhyKUkIIIWQ1TAtnGsiMY/ye9+DIRz+F7W//KC6ntuFMTcSoXYDnZINWVCt8pRoR2I247AHh7XzLR624AH/qAlCalwN1OUpRSgghZLChKCWEEEIiwsbHAHlFOjlYo7sx+sCHMfHOT8K59SHMD+3CFLJm/KhrJeCbWXj1daoCVi42jaKRQ03HtoCV7gcT9Xooz8/Am7kElBfktIhStpQSQggZcChKCSGEkKtQQZpFUgTptnvei23v/ARw6D7MFXZiNhSkfjRetKkLo52tFKKroeNJPSREhNbmp+CJQbUoGrVhzhFCCCGDDEUpIYSQmxNtWTStiy1oq6eTQWJkN4ZvfTt2v+eTSB6+BzPpccx6aVSttNhJBvbM+FG5pjkWtF8CUCWyh6RXhXflHFCcBRoVOe6ac4QQQsggQ1FKCCHkBmI1pRkjbqWdXrOTsPOTGL7tQWz7wK/BO3Q/znlZzCGFuhk7Gk1oFL1CWwXpOvdflVa/R79XOybGiGFdfMYXHzWQrC3BOvU6UFmUw3XAE1G6miYNLl39PCGEEHKNoCglhBByAxEXbTFWOdz8rVtb/mgLqF3AjtsfxO6HPgxrz3GcriWxZOfg6jIvKkiDwZstRMqu3bluUTcid6L9VY7ZkX98JLwG0vUicP6EiNKlQJAqFJ6EEEIGHIpSQgghNzeR1tOdRA6Zo/dg9N73I3HgLsyIQF3yknCbkxkJYevkSrUXisSOiV8b0fo77qZsVXw2jR7SrfrJQkL2HbeG+uwlQE2jKsdb3SOEEEIGE4pSQgghNx9X6TUblgjSxPYD2PHAB2CLIJ1Lj2PBT6KhgtS8LkUENq/TnR6LPhWaK9zVbbS8jG5D42sLaOy3mIR4z6qVULx0Bn5lARCBaol4tnrsRUIIIWQroCglhBBykyOvQjsNJz+J7Xc/jLHbH0JpeBemvCQqpjtv6yy7vcY0e4bu659QhFpibBeWGCchwtPxkIyMHfy29Txc2FbDLAFTOX8KqJfFiQZ839s6LxNCCCE9hKKUEELIzUmk/ywHVmYY2Z234MjDH0N1bA9m7ByKVjpYg9TYiywroYjsFu1u2xSfsa1BJyvy4IjATIjATFh1JOyaiM8a0nYFaauCrBqUkLOKYkrIoIysXUVKDSpwSrPApTOAWxHnwvGkhBBCyHWAJf+it+zNC2NgcNlAvW9LYB4h5Doh+taqD23swW0tS/S39nxVoehkkd17O7a/51ex992/hNe9AmbtPOo6sVGTyC29sNWxTgoIueYqJ8QDfmAsy0Uq4aOQckRgiqCsl2G5Ndhu3YwPrRaLqNcqcGs10Zty3rKRTKWQHx2Dk8uLQG2g/OoTOP13fwmcfkmu0YmOGuL2GnEQ93brObJMm+TVylMQab75t6UwbTpji5OB3AAM4rPEfBsgaUNRqjAGBpdBKUCYRwi5TuhQlBr0oIPExF6M3/dh7P7gb2Fh9CAu+RmU7TQ8s/TLaui1kaMt97qKuF3ZmoGe2pLpwnY85JMesm4ZWJhC+fJpVKfPA5fOAjNXgKUFoFqGX6/B09l03YZoWF9ErLy+HRt2NgdrfDtSQ3n4c5ew9MJjwKJc5+lyMKq6Y0ReiIh7ufUcWaZN0lKUDiBbnAzkBmAQnyXm2wBJG4pShTEwuAxKAcI8Qsh1QrzQCB/cVcsREZ12FuO3P4Tt7/lXcO7+MM74QyhZKbgiSP1ott22qKORw3qftQqJuFD25KoGHNtFLunDri+icfEk/HNvwj9/ArWLJ9BYEFG5OAOUFoFaBWiEAtO0qsbuZVp5k0C2ADudgtWowhVhi4Z231W7gbWOWDWOSLt4pCgdQLY4GcgNwCA+S8y3AZI2FKUKY2BwGZQChHmEkOuIQCw0WbUcSQPDu3HgPZ/E5Lt/GZfGbsEFPwvPSogg1YvWKoDi59YrIFSUqh0XCRGjaVSRqM3BnzoN6+xrKJ14GfVzbwHTF4AlEaP1klhXIRp2v1WBqURdcePBU+EcLgujgte0wHYrSJW1gnqz0yYuKUoHkC1OBnIDMIjPEvNtgKQNRWnEKrEQvHiC1w7pA4NUgKyTRxTmE0IGjFXLEDnhFJC65R049MFPIX/Xe/CWX8C8k5enWC/qpPBRO/rMx5/76Do5pofNT/ljuUhaDRGkFWRKl4GzL2HqiR8ALz8FzMtvnTHXq8PSWXOjsaZxd+O3aBLdS92XjbGjf4IQRLS9tJX4BWQlbSKQonRAWSUp+J4mhkF8lpgdAyRt1uqbdHOxakbVE5EhNzXr5hFCyMCw3mNpy+svncf2W+9GcucRzFtZVJGU+kHU6tgJq9aAxcgf84YVO34dtl/FSLKG5OxJLPz8nzH1958DHvsOMH0CqEyJKF0Q3VqGrcLUc5trjDZN5OwKo+JTjSd2tFuwmg0IUkJuFOKZfwXRU0MIGVQoSgkhhNxYrFv3FAtWCqkdBzB86Ha4I9sx7zpwTTfYjci4qMIbu7Hp/qtbF47jYSLrofzGz7H4T19A/Xt/C5x9AajOAG5JLOlsunJnMTr9kfqgV4YQQgi5HqAoJYQQcuMQ04XtEQtWAnYij/H9t8Ie24VysoAikmhEExuZ2XE3SigHfW3tbCBtNzBil7H00mOo/ORbaLz8KPzZ0yJI50SB1sIJjIIrDSpm1w0DIYQQcmNBUUoIIeQmQhSfnYKdm8CuW94Gf2gCS/K7ZifgxWfb7UqYqoqMlKQKUhWaDSRFkKbr82icelYE6TfgvvJzYOYsUC+Gkxi1m5BIrw93CSGEkJsEilJCCCE3NitaHm1YyRySk3sxsv8Y6ukRVJCAK6LUWFxhtwt1uKKF04WjExt5JeDyCSw99s/wX/ipCNJzwcy60ay6aj9+P72duWXrCUIIIeTGhqKUEELIjY0KvabGs+HkhpE7cBy13DjKdhp1fRUaHRhZkgua64Ealbg+xmogJnXCoWzChTV3HqUXHoX35I+A8nQwftQI0tB+nA5vQwghhNyIUJQSQgi58YlWWLEdpApjmDxyJyqZUdSshJmzNqCdWuwCdUYuT9oWMvUl2K88gcbPvgssXALkd7OFNCK63VW3bHuQEEIIuWGhKCWEEHJjEzRgBiaVgTUyicTkHiz4KVTgGL26QgQ2d6OL1kMusNQVXZqljkLSR+Wt51F89Ulg7hzg6hqkrlgbYKGpXhtg7xFCCLmxoSglhBByY9MUWw4S2WGkRZAmxndgyUqiJq9B0+tWBaMRZpEQ7VSQKnqhtrc2kHBc1GcvoPrqU3DPvAxU5uV0TZwSO9042S+acUUIIYRcOyhKCSGE3PiYiYgSSORGkBnfCS87grKdFBlprdKA2YUgNTP1ekiIa/lEA9W3nkdDjJnYSMeR6iy7cecGXZgSQggh1xiKUkIIITc2RgTKHxGh6cIocuPbUbUd1C0bnohV0zjaRH90rxrFJSStOgruIryXnoB/8QRQXRBBWpezbZZ+6f4WhBBCyA0LRSkhhJAbDxWBkRA0W0feeGkUxndgcs9+NNoK0o3jiDvJRgW1C2/Cf/M5YGFK7uuGZwWKUEIIIWRVKEoJIYTcBMjrzkkjmRtFanhCRKkDV0Tp8sy7m8DzkNSW0loJ0y88Abc4LceqIkpjLaTBbEqEEEIIaQNFKSGEkBsP1ZqR3jTCUH7kR+ANiSBN5lDxIkEat7gBRHha8ib13BpqMxfhvvYcUJ6TA3U5FypS3WziFteMTUYFIYQQslEoSgkhhNz4iHJMDI/DHp5EzUqjZhoxIwUWqbGNKDIfju3DrxVRuXQGuHAKqBdFlDbk3HXUPLpa0FVQ98IQQggha0BRSggh5MbG6E0b2ZFJJIcnULeScM3rLy5GV1Nla2NZPpIiSu3SPGrnRZAuzgCudt0VUTrI65K20s6rq3i/NdbWMk0oTAkhhKwBRSkhhJAbBxU/kYkwCimB3PA40oVx1O2UnLZDK1fJp66w5dKkCNDE/BRw/qQI0krQdXeFB64TmnEngWqu12qL8I4Z/d3Rv8huYN+4dR1GCSGEkGsDRSkhhJAbGxVYqQzs3Ai8dB5VXxdwUaG0eVTaJr0anEURpRdPiyCtidG+wesosEEVaCI8IaIdTlZMHkjk4ScKodH9PLyOTMGY4JqcuCVu2tdhlWPNdKLKJoSQXqEfMFmqRrSJCf3Kq/jmJKPqmtObemPvWCOPBLmEeYRskNXyejxL9fJ5aM2qnbg9qNl7Xb/bsHYew74P/i5yb/sw5od2Y8ZKomYnJEj6/HYZsSo4LblGTMauIbV0Do3H/hGlf/gisHQallsUKyJMW51tE3/t7rwl0dxRECUuVECO7ABGxThpuc4x4QyI+2wNXzZbWTWexGjrcXEGuCKivVGWw+FYW3WiI3/1iTWCeE0Z5DgaRNqkG9/TxDCozxKzpEkbitI4axRkFKV9YtAKkDXySJBLmEfIBlgvn0fZSu316pnYaFYdtCy+bnyohQSSh+/D/o/+HhK3vReXE6NYchJoWCpKNxOpPgrJBrxzz6P6yN/D/ck3gMpFEaVVc85EVdzpNnEXndZtdLrnUdxp8ESoJ4d3YOxt78XEbfejlMyjLKJUl8+J+yruZ2W53NNt7KyIz4QjZysLKJ98EYuPfEviZ06EqU4C1fNQ9p5B8WKn6UcC2qQb39PEMMjP0s2eLSVtKErjrFGQBYUYo+qaM2gFyBp5JMglzCNkA6yTzy3Lwu49u7F//37k83l4nqtHg5MbxHZsTE9N48yZM5i6MhUe7ZBByeYdRYEKqiSG7nwPdosodY8+jIvIoWzrOqX67KojXcalsS6R4HkYzbiovvgjlH/0VeC5HwPVKVhm5t1YaRA537b8WHl3tdLz6O00eE4WmR234ODHfhc77nsvZlJDmJX4q0lcBX4KHGr1cxDWuK/lrO/LlR7SCQ/e7HnMP/F9zH/rc0BZ8lqjJnZ6HsreMyhe7DT9SECbdON7mhgG+Vm62bOlpA1FaZw1CrKgEGNUXXMGrQBZI48EuYR5hGyAdvlcs1J4PJlK4hc//ov49G982gjTel0r9Zt7ONTNxx9/HF//2tfxyCOPdFe8DUo2XzcK1IJ2P81i58OfwNj7fxPlffeJKM2gKoLUN91SI9Ml2i3VdzGWrqHy6DdElH4FeOtpEVzzsFx3ZRRFzreJt9a7q5WeR29HwRNL6RFkD9yDg5/4A9gH78F0Ko95081ZRemyT4OJi5ZLu6gascLfItgTVgO5hMTFuVcx/30R7T/7hoj2abGoH1W2JKS9ZVC811H6kSZt0o3vaWIY5GfpZs+WkjYUpXHWKMiCQoxRdc0ZtAJkjTwS5BLmEbIB2uVzzUqatTwgV8jhs7/3WfzhH/4hbjl6FDoLqo5Z1BbUjT4kev2Pfvxj/PEf/RG+9rWviYaQG3aafQclm68bdLWgk/YM4cgv/BbSD/0y5rbfhst+Bg0TdVH8revQSswlOi7SxSgWUf3Rl1H+ydeA86/IoSUx4ZjJiMj5NvHWene10vPo7SR42kU3vw25Wx/G0V/5nzE/ehBTCW1RTsATY+KqOVY0YjWfynG15leRT9TgvPk0Fr75OeDVnwC1WTkRilIzNlftDyg9T4gNMshxNIi0STe+p4mB5c3gImkTPaWEEEIGCVOpD7Z+NJOrbFSQ9opGvY56owFP3b8hX4j6lhOx5WQwvvsgEoUR6GhPlUSBIO0GtR9eY+LLh2X7KM3PiM6aAkqLcixcmzSyGhmN24GOX/GkCE4nmUZ2ZBz5iUm4iSR8Xe9GjbYKm8ynRgV3aMzvdkat+9ARu2m/jmRpHpi6IMfqci66PrRHCCGECBSlhBByHdAUpj1E3TTu9t7pAUFFlYjS3DCcoTG4yQwacsw0+G0KEaQ6iY8INre0BG9JRFdVZ5UNWwCvO7GlHnaQSOWRGR6Hl8qgZtki3lu6Upm8okdCE/1exSREoFqVIrzFaaAscWTihxBCCLkailJCCCE3HqKLFMtJITG+A35mGA0rKUJLXnsbam2OKU0RXCrXkiK6/KUF+MVFoF6R415w3/De1w8atiTSuRHkJa7KOrmRtYmJoBSJG0cury/NoTx7GWhI/ETddgkhhJAWKEoJIYTcoFiwEmlkd+wTUTqEhp2EZ157GxFay2JKr9RerUk5Zs/PAsWFYEbZqCWwS90VWe+fXJM4kbjJFMYxvG0Pyr5tJoJSURpMcKTIttMuz6G1hIrSxVlUZi4CnsYPBSkhhJD2UJQSQsh1SYcC4UZmNY0THtfJTZxkBiM798FTUWqpKJV426w4EidUrqW0M/DcFaAkolTHky7fuGu2VK6t5bg5pwFKIVUYQ25iu2klbTQFqcZXfNsJ6qhnloSxVbDPT8tPHc0bjiUlhBBCWqAoJYSQ64T4uNLNzLx7Q6FR0moiRFhZqRwyk7tQTWbNOElPo8y8+eIW18FEtdhXE/504CKNGuypc8BSOKPsamJ3jWTSK1rNlhB3+KqbiQezeUDH3abzqEgk+RJXKzzescfEonZj1vG2tSq8hRlgUeLHrQfH4+507CYhhJAbHYpSQgi5HmAFvjOMgAx2fCcJZAqw8qOo2CmRkHLMxOMmIlMn7xFjpgGqLgWCtKaTHGkr4IATBTumNYNd20wEZY1MopHIouHbLcHRCyOzFsv2zHjSyhJcFaWtLcmdOEUIIeSmgqKUEELIjUNTcFmwU2mkRieQHp1E1Uqi5lmmA2nXgqgpooIdI0pFZJWmL8LV5U5c7Zp6Hassy0ZW4igzvhN1J42aBCXoqdsMeLhdK4zR+SB+EraPuojRhorS8qIc1+VyrgPhTgghpC9QlBJCCLlxiHSTJaI0mTWiNDUygZqjI0DjE/d0S0x0ibG9OpYunYNbXgBk/7qZxCcKRhzbQXp4HInhCVRtM1K2xcp6YWt1VJeD8eAV5+AtiiitluRQNPPuem4RQgi5GaEoJYQQcgNiw05lkCyMwk/n0LATcEV8bUyURmIqMEaUujXULp+Dr62AnnZNvU5bATU6EmnYuWEznrTsOfAsJzzRSVxJnOhY28i6GI2fhH4C0AmOluaARlWih8vBEEIIWR2KUkIIITcOkY4SYZXMDSE3sQ1V2dfxpOGCLRsn1KVmORgVWVMXgFpRjsXGS14vhPHk+yJACyNIjG2Dnx/GkmhrN5pt1xDfX4UVQdfxth4SnsT45fPAwmwgSM0kR6HFyMl1nCWEEHLzQFFKCCHkxsE0WMqrzUoilR3B0ORuVOV3XWfeFRXU8aomK4ipKPnvuXVUdamThSmgrpMc6XjJARel8XCbfQ2Ltog6SBVGkR6dALIFM0Oxb2s353h4dH+18Kljy45rpULXJ015dVjaUmomOVJROuDxQwghpK9QlBJCCLnBEJHk6LqboyJKd6JuFnARobWpZXSC63QpHtdtoLw4C39ORJdbkaPXSdfU1uBrfFgJZCSeErlheIk0XCNUo7BEYjRulNY41N9anbDMP+0k3SjOwdfxpBVtSZb4ab2EEEIIiUFRSggh5AZDXm3JDOzcKJz8KOoitDYnSJcxOs6ro16cB0R4oSGitDmJzyqscaq/SDxZSeRHJ0WUDplxt81JjnScqNlbzfOtcRnErxlva2YmvgRXRWmjLMc1fgghhJDVoSglhBCy5fRGEnaAuZENKzsEFMbNupt1edUZUdr0QLRjLAe7HeHDsTw4bjVsBVwUvVWTw7Hxkq2spum6JPJptz5ui3FE/wSidHhyFxKFEdREvJu4WvcOUaDi9gIBa5aDEVFavnwGbmk2iB8916N4IIQQcmNCUUoIIWTLsEQgxl80um800RaZQPzYSI1MIjGxU4RWCjUzpDG0If4JBFnzinUQB02rYbCvHYET1SJw5aKI0tKyKI1Qq3ETI37XtUwr0TH1tk6yZPR1O4utqJ3IxFHvmvhIAE4aozv3ITE8jpqdNN13fY2jtimlLMdFQOy4xINK2pQtN5g6K/EzL8dVlMbihxBCCGlDvK5ACCGE9BBLxKAfaKDQxPd7biLtZCeQGZ5AZmwHak4mGE+6QljF99chdom2Ajq+uFZeAmauyA1V7co5NRGR023MCr+uYa66LrzWkz+umCAO9eQGiS5V8ZkdgZ8bhZvQeNLOt3JSx5W284gxijm5TKSSxfgSJ56OI52T+KlJPJmlYNROsDHo5ZEhhBBCBIpSQgghW4NZv1KNKBJbXje2iB0VPE2T6NK0Xh83kZ0kkMzBGRoD8iOoaNumiqXQSwEdqiEVUqbVMBBcjpiEiC6nJGLr8qVAJZqW13b+aWfiYdmoEXeiV7fxXxsTocGMmxWIxUQa2LYbbmYYdYm3YCmY9YjfJOawbiR+PM9DZX4O/vQ0UA3H25ruzYE1Q+REJ7cjhBByU0BRSgghZIsQ1WGLkErmgbSIxOyECMVtYrZv0OxYw8j5nGyzsh3ZA39sN2q5USz5tmkpDYiJqI5YqZx05l1PhGijWhPBJWIrPSr3k/DkwnuvZ64KzyrGuNdiNN4KoclJXKZy4qFNvMIlLFYiheyOvXDTBTNDsWrsDaHjacXYlg/La6C6MBesT1qvynF23SWEELI+wVR5JKBNTFhhZSZYs41Rdc0ZtC/pa+SRIJcwj5ANsE4+z+ay+OxnP4s//MM/xLFjx8Kjm8MXsfDd734Xf/THf4xv/P03uiveOrGrYbIdWKkhDB+4E4nRHXBFSJn1QlVM+fr6iSz2BtPQJ8rKL0wgc8t9SMh9q9lxFK0kPNNKq7bC+5kwrHPvyL6KLtNS6iLhFoGzr8F9/EdwqjOwfW0N1E6v67hl6DCS5V6taHqp6EvYHmoLUyiffxO4dELCW9ezgaU47W4Vd9ZOwxnag4kP/CZ2PvSLmB/dg8vIomynxJ6mT2ivYyRuHB9OeQb1Fx+B9/f/OzAlfmwsmXOmz3EnUTRIdB0HW8T1Fm/9pk268T1NDIP8LN3s2VLShqI0zhoFWVCIMaquOYNWgKyRR4JcwjxCNsA6+fy6E6UmPPInIcJnbC9u+5V/i9zRe1HMj2LBd1BXgRhZM27p3jqR0AG+dhUWGiJC63YGVSuDOhJwTYuiuh/3eJf3NJd7stE2xTpSXhUZr4akH47EbIZjNcRC6L91afpX/+o1vmhtHyk0UEi4mH/jWZz73teB538sgRWRvCJcIfFDV3lLDjhZJCaPYO8n/gfkb383ZvPbMI00qnYyOH/1RWugN3ORchpIzJ1H6dH/Dnz/C8DiWTlcltOhZyI/deN0P2kTrX3heomvQaFNuvE9TQyD/Czd7NlS0oaiNM4aBRlFaZ8YtAJkjTwS5BLmEbIB1snnAydKlbXsRy19yTzs3cdx26f+L/AP3IO57BjmrQRqRpSqA/oKkn9tWgZXsn5BsOwdH66nIk5ebp5c1xwnqTbintbj67u7AhWV4WVmiKxsrUhwrUtgb61XbmRDXA424S8VdTpdlErs8VQdlSe+j0t/9xfAuWdFlC7K+TZdZOO3Cd0K0B9iUkNI7rkDh3/lf4K7/27MZSRt7DTqOm41stMRciONC7+BrFODc/ktLPzjF4Gn/wkoXRRRWg3tXYesnlTXlk6TggS0STe+p4lhkJ+lmz1bStpETykhhBDSQ2xYThLJ3BCcTAFV30G5AdRcC42mAeoNH7Xa5k29Jm4ZY8Fr2PDF/dUF6UZQ9+SVqW6KU15dxK/ct1EXXdiRkfCKqdftVU3DGLHXUCP7sq2rMXFli9i2UFpYQOXKJWBuRvzU5XjNZjRIFT2VQXp8G/LbdpkZimuSPp3N6NsmLj1PRKmHpPgnpcvlXDovYlSXymmxRwghhKwCRSkhhJDuWE1rqKZp6hoLlp1AKltAQoxrJ9EQUeeJ0RZMX7eRkVfR2kbbF9sdj5vIjoqrcIbaVVtgV3i0OzTsRgtqGMJwrPDHZo36X7ZNd6P7iJAUL5dmp1GaFlFaL4lf1CMbEX427EQGqcIYrPwI6k4qGOsrxzuPm+i+Yleu1fGutluFVVoA5qdFlDbECkUpIYSQzqAoJYQQ0jld6AzbSSCZyZlWOU8Eqo7IXBY9kYkLobWM0u54i1Ehanb1T5zotzkZ7HZFPOChG+ZeLftrmea9OzGC3jK6rQjQhAi/xuwl1GcvijAOZ7ZdLz1Cp5oYf9hIpHLIjm1DQ8RpTdKmIcIyaCltvaCV6HzMnrhpi3HLRVR1fdKydinW9Um7yCyEEEJuaihKCSGEbJ5WLSMiR1tKE5k8/ETKzH4biNIQI7jWE0CtRCptDWOEWmxriAupbu8ZJ3IvTnTfDkxkdz2z4jptDVWB58H26rBmLgBzKkor4fFVaBfUZjQkkMwOYWT7HhGkKdQsR1wSUWoEq7EQmtWIzovRa8SbKkobxQUUr2jXXZ3ciKKUEEJI51CUEkII6Zq1JEvUGqddRLNDo3BF9DTkty4FszxucU0XNoiKoMi0ovfbinv2mngYQqMb20KttAB35hKwOL3cUhqdj8x6aNpIeqSywxjdsRcN7VYtv80yPU2iuFotvqLjy+cdvbxchDs3JX6ryw/1GyGEENIZFKWEEEI6J9Qha+sfteTAdtLIFMbMjK46ZjFYPCU6T1YnrjB1dmIgIaqvvDiHxsxlYGkuEH5GlBory2Zd1LEMnPwo0sMT5oNBd2NJIzvhVr2psxJ7DaAYjic1gpktpYQQQjqHopQQQkiPEcEiYsdOZpHRllIdsyjHTEupaUUlnRNM4ZSyPfjzM/AXZoFq2D3WdAnuFon/XAEYnoSXzKGmk06Z9OomXSK7en8xIkrrtRIaCyJIjSiNCWZCCCGkAyhKCSGEbI52ekZEqZPKYWh0Muy+K+KnG91DgngVY1keUlYd1uWzwKKIUldEn7fBlkjLRmpoDOnJnWgksqjpzL6b+VAgfrNsH43qkojSK8ASW0oJIYR0D0UpIYSQ7gjFUtNchRy0E3DSOeRGxuGGkxytnN012o9+kyaxaLFEMGrspUToWRdOBV13/S6XW1lh1UFmeAzZiR2oJzKoSzVgeVbkblBH1XhIiCj1KktwF2aAkvqvZo5TkxJCCOkUilJCCCE9RgSOkwLSeVipHDwnCd/StUNXEz7dCqKbBcvETMLy4FQXYU2dF9E3L2JPWyG7IIpeFYl2Ek52GHZ+DFUrGbRgG4HbjYIM7epYUtlPiv/s0mIgmGtlOaZdi8NJmAghhJAOoCglhBDSY0QFJVPwswW4KnxcET5miKGqo7hCiqOvo82ayO0bAQmLRJEtW8fzsHTxNNyFy0BdRJ+IQBPcdgQ6cXV03dihcUmbYRTFEUmawL11L4xhrgntS8I6XgP2zBVgbiboVux16A4hhBASstprjRDSCutZhHSIBTuVgVMYQd1JBV1EddxiJGZWmOCK9dEHMDTRdZFp0rFj3WPuFd275f49NdFOgC6iYzcqKJ16DX5ZW0l1uRW5/4ZwYGcKSI1MiDAdQ9GzjCg1Y0qXb7k2K+xph2wPJoV1VuB5EaX69cGYjfpxQGjxvgZ7NUMIIWTzUJQS0gnXWf1Kx6Hd7GgcMB62AH0W1jNSVXcyOSSGx1BVUSrJ4OsYQ+3Wqa1yK8SdGnPJGiayE7cv2+BmwW+D/A4PGXqR/uZeYppdXGMm2t0KjN91tKcIvtoS3HMn4FcW5ZDObBveux2Rf69CX/cOUvkREaWT8DNDqPi6TE+X1YBIdIoH9DZJuTzRKMOenwKK4XjX65k2aRpFqRqNLTXRbyXYD/4ts2wjfrSVtc6RG43W1F7OI/1mZd7tJVe7OxghJoNIl28jQsjVbFWttLdQoJFN00VWT2dzGB4fQyKVQCbhIZuoI5doBMaJG1eOeWJ0u5YJr9X98LqsGvmt7uuSKbYIIm25W8Gm8r0EWASgJdItZcKw7M+8MV5gHD3eS+Ob8OWTci+rgmR5Brh8GhBxatYDNaKwGzQO5HVvJZEZGkeiMIpGMo2qmUJJ22KFDRRj6qqK0sbiLLxFEaVV8Z+vq9Fep6wRB9Ep3cb3mzQDrTvLMRDtXbdxQnrE4OaASJBeC2Ea7Q1ubJB+QlFKSE/wzb9+YQRnu9I+tq+TmVzvwrSd/1cc093wp4Y3mMCFdEVU625nOsZDWoTVUNJDsjKFfPECCmUxpfMoFM9hqCRGjgUmOFYw2/WN2g+uOY+8uJcTN7LFy8hUZpH1Apml8/waNpL+zbDqH20VrMN2S0hXZ5ApX0audFHur0b8LvcfKmm4xGgYe2I0fBofZzFUlvAtnoV98XVg6kwgSrX7roar66DJ695OITc6iWRhBDXLQd0Ku1U31+qJPUtrEVrTjSN/ylcuoL6kS9VU5YjEfzMOB5jIj6Exfo6jgTMmWDLHty14Lca3RdBHRqxeveTR8nzTkWml9bbXBWGcrWlIG9pFzGo549rTizrM1Xm9fYZgFiHt0A8jzBsRbWLCCnV78LAyqq45g1FWBwxq8msWjfwm8WVEWqtfo3gMj7cVa4MavhakHq1/zb5ivu5qkGNhMs/rWuEZtLAuB6ct2VwWn/3sZ/GHf/iHOHbsWHh0c/i+h+9+97v4oz/+Y3zj77+xHCe9iBsrgcKuw5i47X4kt+3DnG+jaifgmrwZ3sDX2XiVdQIfeiiq8Kt4CL7oB22iDZGhrpNDenwPth27GzOJEZTtdPfdUiOi8Jtuxq5sKrAXL8N942nYxWk4bg0JiTs7Fk+x3U0SuBQE1YMjis+vFlE9/yZqT/8EovzkcE2sdXtHcdFKSVkxjNt++d8g/eDHcWn8CC75eb2LnGtNgyju9D5t7qXWxQ86K/BIqoa5n34N7o+/Dpx8VoTzvMRNPZjrqNXZQSEMknov8qIJkhiv6WfZcTQexGj8RHFk9oNdg7lIP17ETXAqyKsrCU8Z4vtr0upIP2kTplY2FK52F2003G3ciupyerIz8bV883bV5OhIt15c6ZJerUaPduKna8dGoz5+3eCFSthowK4FAxdZ1xhJG4rSOG1igqK0zwxaATKIWUDjSP2ldSfbQiKRwPDIMPK5PNLplPmt+dj1GqhWayiVSiguLaFcrsBzpQIVZ4CzuIptJ+Ugn88bk8lmkEqmYNvBM1qr1VAXUywVsbi4aMJqVMtqDFJY18nn158otWEnsnAyw2ZJGO3Q6QdfE8R5vYEGWH9HAe/kpsF1gSANMFdZafi5SQwdexAHf+V3cNYZwaKdFbEa3M8IuKtEVye4SCZEeNUWUH7tCeDbfwNMn4bVqIqbUWvssr+X9zbPitey34BfK8Ivzcq+tpKulalXQwuHNJCcwH2//R9g3/shnErvxBUrK+dElKriXxFFYdy1hNHQTDIPSRHtE+kapr71Z2g89g/AhdeARtjFWNlItG8V8WDE/WXyRnhAyxI1mledBDAyDkg5Kg8gnGwWSSlzkAhEfMNz4TYkbSqSH4pFSMEKLM0DZdnKcXNDzXvGqFAN9xWzH+x2xKDGYzs269dW9zfiXhs/BnW54ERnojRiFQ9ETevdONUWdX/TjgwUUYwNZKg2mz+3khsrG3SPpA1FaZw2MUFR2mcGpQDRpG8paVu7knb8ooustbjXTVhViGUyGSM+x8ZGsW//fhw8eAC7du3CyOgohoeHzXkVpLYIVXVcRYjruiLWqkaYLohwm5mewblz5/DmG2/i8uXLmJubw9LCEup1neFzDToMapPVwqbutJxTP+fyOROGbZPbsP/Afuzbuw/btm9DYbiAoaECspksEskkHMcxQlwrea4IbE/CV66UjSgtSkVRw3fy5CmcOXMGly5dwuzsDBZFkPuu3FjvvV7cdxvOjbLa/UOuO1GqAdKKva5NasSo/g7ONCvmcTFgiO+3oteoiezE7IqwcnYew/gDH8XBj/wG3rIKmLdzaJh1UTdDA+mECK/SFSw99s/Ad74IzJ2RwypKQ/9c1eezV4i7TadV0KhpM5Z0rSiLo2kgcYLRI7jvM/8O3u3vwqnEGGZFvAdN0JGJCN57gSfiYZR9Yy047ohIHnZnsfC1/wb3uR8CM6dFy1fEyzqhldrrM+oH9XIYBP1pYlB3bMkfiSQgZQlGRoDhUYzs3oux3btRmJhEcmjYzB7t5AtmJmkrJeVNKmVEqRllLGHUj3p+ow5PhKknYtQtLRlTXpjH7MWLmD1zCv7MFDAvYlWOQ8omI1jNsjmapoFX9FEwXpQ/oVdXopYGBePZ0Jjf+ifydRigpoej7WqE10XPU0Rs17CeM620Xi9cJUo7cXOFO3JBvMxqitI2N1uTVex368yWE5UBES0ebKn/XI3Y10tWWAuP9ZP1vN1P+h03/UbShqI0TpuYoCjtMwNSgKgANS1zUimJusfqdmWrjR5cX5rqNVqZqdaqUkeRClynyK205XPH9h1GhB4QEXrw4EHs2LEde/fvwx6pTE1KZSpfyBt/GsEW+lF9ZfwlL1BPKkMNqRhVKhUj3i5fviLC7QQuSiXq7NlzOPHmCZw+dQqnRcgVl4pGyLal08ehXRrqsZbrR6RiuHPXThwQEXrgwEEJ4z7s3LETe/fukTDuxKiI72wug3QqDUcqhtFHAd3Gu+5q2LTVVM2cVAYvXLiA8+fP49zZszh9+rSE9aSE7wwunL9gwu+vtaZip2HcLO3iKMb1J0oDgudDTBi+9q+bdQIvBFdF17a4ImIrf/RBbH/Pr2HbAx/Bm14O805206LUEsGVcUSYzp/F3Le/BDz+TWDhvBk3Gfi4NSzrh6NTmiE0m2A/KllW3LXTW2pcJIaQOvIO3P7Jf4P6oXtx2h7Gop2JLIQmYi1RGh6TrS1xkZ47icpX/iv8Nx4DFi9L/Gj3YhFcvYuO7om8rH4I9015oWWFilERmjkpRws7dyMvZvTIEWBsEtkdu5Ddth2p0TFY2Rz8RDoQrjpm1HxkETcc2whbU2xouaNGylRLhKYKVDRqaBSXUJyeQvHyBUC25fNnUVRz8TyKl+TYlUsiUKXsV4Eq15v0DsuwWFG2TD/jsol4wk5IfGiciPE0PlrySSTUjIc79bReowJd3jP16nL+iUdEt+GPXRqxIVGqlvTZscMwm3dOdKG6JSbu17ifdTd+D3MqtK9bjavmpGWhG8ZOnzB+jcIred7R8Gqc6Qn1m3puFT/qsWZY1U4UJ+G1JnwaVknj1rS91jT9OYD0MVoGAs1+8u9mj4Zl2sQERWmfGYACRFviVJDec8892LNnt4iijJSpWpEI/jUxgjSqOq6OtnKWikWcEoH03LPPoVFvGPfaIs6ruMzlcpiYmMAhEaF3ve1u3H333UacaCuiijltFXXM+Ce9pH2kGb/Jbcx71RDY1ONBt94iLl+6bFpNX3rpJTz++ON4/fU3jHibX5hHvRZrPe30UWjvFYNWEpPJJApDBezcuRPHjx/DXRKuO++4A0ePHsXuPXtQkMqj2jGtvfJ//diNCEMm1vUabfldXFgwAvWtt97C88+9gOeeew6vv/aaObYwvyDpIJXKdu53esvNsEY8KdevKF0ZtPjvbm4Tt3uVN5NDGLvr/dj1/s8gfes7cMLLYkkqVJsVpTbqyNtVpC6/gemv/B/AGz+FKAqpX9VMfVLDEfkhHsZeELkXd1errnq/ZriVTm9sJWClxjDy0C/jwPt/DeWdt+KslUdJK9uBhdBEtIiNJrJvhIcnz6Sun1qCd/o5eF/9/wBnnhWhNSenAqHVsd96Tehdvb3ZNUJSxFQ6A7swhBERoZl9BzB+7DjGDt2CoT17MXnwMLxsHtVECjURrVWpjDfUeNpN1xcBGhh1z0xdJP/NVp0XY8s9ElL+6nRHCYkfY8R+Uirhdq2K4tRlLFw4i4VzpzDz5uuov/Eals6eRm3qigj5eaAqAtUN4y24yUqCW/UXeZ6c3Bgy2/Yju30fyp4jcZQQsa6eizwcbfXY6p4OzqhdfQeJoLdErDQqKF84KSL+LFArymkVMMbiWk61pzX+hA2JUhFndnYUud23wBqaNGWKfowwE1+pE1KG+safelCNPqWC7Muv4FgMLXPVjn7WcPwaKjMXgPlpEePl8LkJr+8Hmo6SnjrkorD7ECDhrZux+aFIiMKnm+CPHpTDum9+BKgd7QlgbFlwLAmvpGd94QrcWSk/9aNDVEb0g27z0rWkT1EyMGgWjPIbEdrEBEVpnxmAAiSRTGDn7h34T//pP+Hd73o3xsbGTLkbtULGMflkHT/rdZcuXsR3vvMd/Jf/8l+wMLcAV7tytWBEWyqJickJHLv1VrznPe/Bhz70Idxyyy3GD0nTahvY1ReD5k7jH/lvyx95XQYnY+hxtRnYVcSeBCYIiyAntGW0XKng7Jkz+MlPfoLv/+AHePLJJ3H+3HlUy9Xg6qudbk/ov1ZUmOdEaO3ctQt33XUXfvEXfwEPPviQaR1VIapCXFF/BUS+Xv/WUZpE9pXmMYknVyp/pVLZdOl99NFH8c///M945umnJU0um9ZjbUleQadh3QyrxFPE9S5K405GQe32divciTuS34bx+34B29/7aXj77sIFPy1iKwW32YrTJVpZ0rHZIkqHrBJSZ17Epc/9v4DLL4h4mJEK1eofZyJv9Yq4e3qrltt1fkNLKte57dj1kc9i4u0fw8L4flxAGlVtDTHdMFsdWkOUqpGKeEK7NjeWUH7+J8A3/xi49Go4O3BYSe91ZHRC6NUgRFK2OfI3mUFydBzJXXuQOXIL7vjAh7Dt9juR2bkHbraAsoR1qe6aMcg1efQb4kYwYlgkpgZDy0Z11+zrRv6EYYuEabAXWFI7elS/o6lIdSQfphI2sqKLk5KnaguzIlIv4vXHf4bZp56A99rLqJ87C29BBL0IWHkZiDPiljoXEd2mn1gp5Pccw64HP4KD7/gwTrkpLIhoMR9/jP8CDwde1dhfz9Maw2LTbyDpSJhLszjzk38CHv922CNBxMuKSOiCNpdF/mm+F9bznpYf6SHk9t+Bg7/wO/C3H0ZRnpeyhFfLFvNh2qSTCCx1U8pTL+p1I8fNP/Mz2AZHJJzyfknbHjLVBVx4/Afwn/0XYFbEaaMkllTM9QETF5KOyQLyu+QZ+cRnUNt7DHPyu+RpXUK8JnZ8fTdGYdId+a/1hyCc8tMEVH4bUarHPRQkbROz5zD79E9QeuLHUoYuSNpKPm9T57kmrJfu/SSMx5sWSRt9Tm/2aFimTUxQlPaZAShAVBju3rsb/9v/9v/AB97/AUyMT5hCOBJM8ZdvkE/Wwzetc//4T/+E//yf/zPmZubadpHV+2rr7Mc//nH8wi/8Au64446V3XLFmJdAG5rn1GuyMS/Q0L/Rfuv1wengWGR0/Omp06fwox/9CF/58pfx2M9/jnK5LO9OddRctjbLUbOCsfExvOMdD+FXfuVX8JGPfhTbt21HUsS/bTtGsMb91urvaD8g8KcVCRA5rTaapwXjlomE8ICg16j41PGn2rX3sZ/9DF/44hfx1BNPYXZ2NrQVErtuy1glniKuZ1GqbNjJ1Rwwx/WPpPvYPky+45cw+a5PYWn0EKal4lgVEWaWOumGyE2tLImiSFl1FOozcN54Alc+//8G5k8AdalQaSU07vQW5o/gNsHftmVL3B9rkcjAHj2AfR//fWRufzcWRnZh2sqgJuI9EKWthM+TuWf8vtFvF2mngVTpChZ/+HfAT74sFeuTcrgsp00VVi33EQmTkwRSGeSPHsPRd78Pt7/3/Rg7dhtKhWHMWQnMSZFblLC7UuZ4voTXTgTlhpioPAlaxOWfntByRo+F54IQBnFn2WFLqoZd8p1mveC3nJS8FJRXInstFymxO5RykBHRZc1NYfrVl/DKD76H2UcfgX/2tIizosSj5DEjAIL7DgRWGundx7HjoY/j1g//Bt5KjMizljNLC7ViYkXiNoid1dD4VBOsAZwoz+DSj78JfPevgekwLxk5tAHaRJn6ZsUztKbn5KSI8MTkfow+8CEc+9X/EeetYSxKHASziEcfTc2nC9kLTdx5dcLcJLirH37Z0PdO1vFRqM3h3KP/iMZ3vwb/4huwalq21IPkXstvsXv0FCkzrdG9GLrrvXjgVz+L8/mdmHLyIsITJjDGW6G/zCb6IQTvWD0ehFFbkDVdbcvDsFWD/9YzOPP3n4P/8s/lMdD8HYrSeDi3KlytrBW3/eZaxcGgImkjtVv8r+FP0ob1ilWyxQxA9DtSaRkaLuBDH/wwDh8+bGZ+jYTTxoyNpaUlvPb6a/jed7+HaqUaVloCtGV2z749+Mxvfga/+7u/iw9/WO576JDpwhsJ0m6JX9PJ9ZFfTffaQgF79+zB7bffjm3btmFqagqLi0uBkFan1jIxjHsitO+88078zu/+Dn77t38bDz/8sBk3mk6njSDtxG8rCfzZLXqNpqGGb6gwhD0mfHeYLtLlSglT09NXfyiIhytuesE67qg/9QPFQw89hMnJyfDoZvFNV+YnnngCr776anhswIjipTV+zG8VBwmkJvZg9NjbkTt8D+bsfFhplHNd5Qu1q0aeQ7MrotSWStPiJZTffAaNFx8LBKkuxxLZGQQ68odYSkjZse0Adtzzfrjj+1BMSDxJZdMsB2PisdWhNRzWZ0cqnBm7gUxpCqV/+Q5w+c2gBcS0Gm0xUVEZ82JzV9NcxejQKJyjx3Hfb/wW7vjVT2PnO98Pf/9hzKaHMOU5WPIT0BVtXck/poXIVIXkWhGn2ptE3dOtLcIqiB3ZysHmxy9B7URmuTKpNuWfEWTyT68x/3SrLgb3cj0bdbmXm8oiPbEdO0Qs73rbvSiPjqMmgtQr64RIOtPy8nuh72hX3WQBibFdmDh8B6Z1TLKVQVXiUrt4uirwNUwSNtPtWX4bI+ea+61G7NUliFrS6njc6uXzwJvPA+V5OaA9ErYo/CbR1kDHVKZHMHbkHux5xy9gceIwLlk5FJFEzXea/nfV/66kpaan5Ku4aehW4kP3a2rHFbsmbiSO9HoJb3nuCvw3X5ZyZloioWLEnGE9/3VFkPuiTdPE0d/JPHL7b8PE/R+CtfcOXEEOi8igZtr3NcwtJgyjCaeGKwyrhrMhCVqXPzqkqDJzCQsv/ByNpx8BSjNBukbh7AetYSeDg6TNcglLCFkdeTeqcAzqCD0q1Yx7sZeu7A4NDeH+B+7HH/zBHxjR9t73vtdMZqRCuKs6dg/R8aq7d+/Bgw8+iN/8zd/Ev/7X/9r4UWfBNXTgLx2XOzI2gg9+6IP4/T/4fXzqU5/CAw88IIJ0h2n97RcqTlUQb9++HQ+8/QF8+tOfNh8C3vu+96IwpHEugdPwrRXGPqXLDU9rvEbp0DyuOw6S2QKSuREglUNdx3zpa6312jVpsaxpLs+lY8nzWV5CbfpC0GojgitoCbje0OV50kgPjSM7vh1uMiuVTG3f2eDrX6JAr0xoF95qCZi+JDVQFeta0dT4uUZxFLuN2VXBmMlj6PAtOPaxT+Ldv/dvceSTv4bCve9AZfcBXMkM47KVwhxSKIsYdaWyrZ20LRFVtopRERiOiAUjRMUEraTLJvq7Gio9jZA1e8E/46645cjWkYq8LfeCl5CKu4Oym8Cin8JSZhTe7kPI3ftOHP1Xn8ax3/4stn/0F4BDh4FsVrJ4t/l5q/Dh1SpoLC3Ar1aMrtAWZmMk7jwRJsZExyTcxkTH2xgjYkORU9MPBPIsm48KptzdokB35GwCqcl9yB++C6ldRzHjSZ7xRZypADfhDf3fNPqhYaUxgk3SWU1wTK41+5L+Yirinp0fk3IrH4hg80x2QFfREllu47KeahoHkDI0s/swhg/dhWmrgCURpHV9TiRtPPG/J36OjAlLGM6m0bCJ+Nb9RhhPtttA49wpVF57SYS3Dn3QFlJRrPF6T0RX4SI3Kht8KxFys7G1Jaa+f8cnxoxQUzH627/127j33ntNV+GETtLR5xJbWxXzhQJuu/12/Pqv/zp+4zc+hftFxOkkReuhrbs6q+773vc+/N7v/R5+9V/9Km47ftyMHVV3BwFtAcllc7jtttvwyU/+kkmDD3zwg6absc70uy58ofaWdeMztGAlkM4NIyGV2YYtlT1Jx6677ZoKW2RCpNKkAtSqLMGbvRxUpnSMVHB2hdXBRuNCxFAig+zIBGyJq7qTDsW7nlPTbWBEzopi0/Va3cU5qWyKcaNWrX5EjIRBwpMYn8S2ex/ALZ+Q8uVTv43DH/kEsP8o5rLDmBEBsKjCR7t1iwDwtEuixItWgZYlpP4LYiRuNko7t4J7aJkn+VTuryKnJKJmvuFgKZFH4fBt2POBj+DIr/0GDv7ix1G45RbYmXDWV3Wgn6iQaNTgl5ZM2gcL40QhC8LU3kR22pngvLrkSRrauiaszifQD0HazLriJxGKhf3HkDl4J4rZCdOy7ob5Jco3K008TO2M2DG9NzRsGnNiJC+mh8ckfTXMkh+7CXPHVjt5JtVfGeREhA/tOwZrfA/mtYVUnxUT1tD/K8KzmlF7ahwkJR19EaLe6deB82+ZlmDTk6KfraRk4NHcQwjpM0PDQQvpb/32b+Izn/kM9u/fb9bijHdNXdGqek0JXmxaAVGBfOTIEfyaCFNtNb3zrjuRSmqLw7I/46jo1PVFtcX39/+H38cv/9IvYefOHUgmw6V1VrmuX6iA1rj/xCc+gf/w7/89HnzoQTOplB3ObEwGCFMHSiArFbtkfgjaVqdtmVF7XedEFbfwKn3O1G1d4kPXllyYln0VXau4PFhZuAX1nAi2RBZDEztQc1JS2ZQKdlOURrQJ1xpoVdWrlFHWVtKqTm6klc3u3Ng06n2p6FupNNLj27DrwXfh7k//a9z+mX+Nwv0P40K6gAuegwUx2uJjSbhF9sARb9phEl97o+WoGPWD/HakDBQfSdTZqNQ8zIvxJD/vvPttuO2DH8LILUdhp0WUat/hQaBeh1UpwhZxqjKt+bSZwMVD2ilyreYbMZa8KxJZeeclVKCFp7sRap0gt1oVvZWkg44lTY7vxvCRO5HccxSzpsVQc3wcseyrCX+anfVMRHithDc7PAo7K6I0kTJh3dJXYtwLTfRmErb0MMb3H8fIvuOmS3ZJBKlOYKW5NSAMQ5hWK0x0LmY0j+u42drZ11E79RIwL+WE6bar5wlZHda0COkzKs7uu+9+M5GNCtKJ8XHzcjKTZphCvt/oy1Iqf2EFQcd+7tm9B5/4+Cfw+7//+9i1e5cZB9sOXUrnQx/+kBGkOjY2owvVmxdd0HVZw9g/sd0eFdLaQv3Od70L//f/5X/Bvffda7pPN+F7dUCQ15eTRmFsh9SpxkWU2sHYNJO/ospUF+gl+kZUAeBYaNQrYUtgOL5N82nk9Aac7w9ayU4gmRnC5J5DaNgiSsXzKt6DGvAGkGhQMeVVSljSdTh1nK0ZS3oNHozoFsbr8ieRRHJyB/Z/5Bfx8f/5/4ZjH/slFMd34kTFxRXXRlEq13UJv+nS7Uk5JtdrEvc7+fT+Ou5UNZ1OomR5UhY26shI3svK4amzZ/H4D76Pc088gYaI/2sSt+siftClPBpV2LJNiD+bWrnpPd3p1K+hXRMZ8keMpS2J8n4JWhWNpd6zqhf1ntp1OIuJo3chv/82VPMTWBD57Us+M+vUqqfi12satnfsaiJr6oQxusTOEJAV4+gQFpVyPUa9Fxml3Q3EH/bkPuT23w5nYg/mdeyrhLUpSPWayLRjxXH9oZ+7Gki6ZfivPQvvjM7KrTPuahka2FrTPXJTo08ZIeQaE9UHVcw99I4H8Tu/8zt497vfYyYzCgRgYJbfJnpN/x7XQEAGb5FoqxPuvP9978N//I//Ebv37F7u5iqnteVUJzX6pV/+JXzm0582XZET+gVciFpIddvPMK1HJp3BAw+8Hf/u3/07vPOdD5vwGFhqDgiS35J5pIa3w86NBuOftFIbPVwdE7cvmVcq3DqetFFeQn1hBpBtMA5KFERrRUp/tx7rN5GfjL8kbHYCiewwRrfvQ0O77koG1s9dxoKqtG4RJ3W2WbuyCEzr0h3aLS/4HLDlREml5UY2j4k77sa7/+1/wPv+w/8VC3sO4qSXwLS2jNppsZI0YzojIRoIqKCtslN0hQ+zLqXsB+0/q5nIzupGiT7sLQdEy1WpwNsN7BxJI1eawav/8Hd46n//r5j7+68BKvqrIvp1tvNBQJ4Bt17F0tKc7IZdMfV9oN4zEaWm24+pEn+i0rS1OJGUdEtlTZ5djqNrhdwvkZEX20FM3vYgMLEX89B1a5NmfGQzfIZuwteCuKHvUDPZkeRTX55NJOW+W/1iWc5yy2h+TOYwfuROJHYdQTE1hEpbf+hFnYRZu/Z7SCdczJ17AzUVpPMXgzJCPxlGftBttE9IjC1+Cggh7Wg0GsZoq+infuM3RJC+Gzt27IhVWgYfnRF2585d+OhHP4qP/cLHsHv3bqkIiv+lVMlk03jHw+/Av/qVX8F9992H4eFhE7ZBaxVdCzOONp/HQw8+aJblue++ewPhff0E4QZGnxPJaPlxqdSNhGJL8163rzR1JzTafGEqnq6IUg9+tQi3uADUdJIjFV3dVrYHAQlTUir5OqFKTuLJTsFrfuzSMBtL3aHR1KjDXZK4mZ+SH9pSGhOlutnKaFL/54ex6763455f/QyOfuQXUdq2G1dSBcxJ+MoQEWHGjIogNf+C0CqBt+JH1kHLYy23NK819+Om86CqPbOmo/kXLJmRQAMF28O400Dt9Ot44+tfwrmvfAnFnz2CxvmzQDlatzR0oK+IB0RAe/UKSguzkuR1Ef0rO4F358koHSQejSi15PFNBl1ZjSiN8ukW0Oqs8bYNOzOMsdsegLPzFpTSIyj5TpCXtGww/lGiMMp2Ix91TDxqHrDMhzQMjwNpeUY1f201zVvIjj5HuiTU8DaMHLoD/sQeLNpZM958JeuEMfZO1yci4deRrs7Be+kJ+FfOBGsXmzJiI3FFbjaip4wQcs2QF5JUfnWmXZ1M54Mf+AD27dtnRN71hs5cq2Mwdb1RHV+qy8fobL0HDx8yXZEfeugdmJzcZgTe9Youg/P+978fH/3Yx7Bn757wKOkrWr+RylNmYjus/IhUpJJoBM1/G0BraisrhAkRpVZpAf7iLCCV8O5bfwYFqejnhuBM7EBdZ92VOAtmJ46exw1UhOXSusRJTeNGZ9Q0S3eEonQro0i9quVIJosDDzyEOz75q9jzvg+hvG0PLnoOFkU8mGVuNGymgr8ybCoCNoIRn3Kp5oDlVtPIdOdmcI22ktXhWA0MiRjNFKcx9dS/4MRXv4iz3/wais88AVy5JJV5qchHNxwI1CMe3EYVxfkZOJ6EQZ4L25NnxfhxI/EbXBPEi+RVnWsglYaZ7GhD7nVAO2c1v6SySEzuwc63PYzqyE4s6Tq+Ot43uqCZp9o50Cnx9NTPEuJ+U5RG+fYaYPwgIjyZx/jB48jtOYxabgzFqLdJk6ZnhVX8pn4OEtDEVrJRRuPiCfivPQMsXAkE6XX5QY/0g+jNRAi5RugHQx1refSWW4xwO3TosBFyAUG31usF9asK04ff8Q68853vNAJ1+7bt+IAI7U9+4pPYtWtXs9vu9YrjJHCLpNWHPvhBvOtd7zKtpddTGt2QaPxL5Wlo+y7YBW0B1DYnoauv8ZqGrUb+ykZbSu0FEV1S+YYbVqrWcLrVlWthOkICkywMI7N9D6qJLGq+dt3V135XrsTwRRdKZbomFU8VpEtzQaXTiHZhI052iq5jnMtj8rY7cfcnfwUH3/9h1Hbtx2nRxIt+wrQ6aYtmEDIjJWVPTfArThT6diYgaM8M/mnrpo59d0Ujhi3m2pKuSkxMdJe1CeyqsUSMJm0Xab8MzJ7DzNM/xat/+3mc+vIXUH3lBanIS5w2JDeHURrzVJ/RUIoodasoLcwg4TWQknRPyDO3HNdC1/4NY15EmSOiFGl5FzZnnO9x4Ns6pwcTSOTHMXzoNgwdvhNLqVEzHtmsd2zCJXZM8FodCMPcCZr+pnwKrtFYM7NAD48ut5Req/eK3sdOwylMYvft9wNjIsKdDMpGVobi2ORXtRtcsip6XsMleUHn601WFlB+7Wn4F98CtIu/GfoQWCVkPShKCekDE5OTuP/++/EuEXL5fC48GqBdXAdd9Kgfo664Oi50ZGQUH3j/B/DwOx/G3ffcjd/6rd/Czp07Q0Gq9pbtX2+ov3Ut1TvuvBO/9mu/Jmk3YWbpvWGJKiKrmYFAPZJAdmwbkBtCTSqxQbfUjbCcL/W50/GkSa8uolRFlwhTFSKR6Aqy8lVc65zd+f0cpHLDyE7sRC2hs4hGE5hsNDF9JLTOWivCU1Fa0kmgqmI0jkJfbUkesaQOnUX+4FE89Lu/h93vej9Ko9txoaGTGaXh6kQxUsG3dOyfb5n69Oroyast6JFAfuo/2Yrw9NAQ53TspHYO1zlYddbZGhy/AbspUNvfLLhL9E9FbUO0bA1puX5bUsTc1Fm88e1v4sk///9h8dvfgq/jR3VSo7C7ronGwJEBQT0icdKoobI0J2JUxLXEUTCPc+jJDae9pJtOcKTlakJnG9YJh/R53pLMtBK9TyKLwsQ+7LnjQZQyo1gQwVaJWt2j+DdlQDwxukwYY13DExn9QCR5VUSpZUSphF3vt9VBNrd3YGWGkNhxCKOH70I5NYSiZwflQ1T3aIY78u8qmOdeZ2JuyHNRgTN/Ee6LPwcWLslhHfoQ5Od16TI6yY2JPvWEkGuIqfjKCziZSBpB106rdSLgmsJVCv2oLUCPRa+PrRS25j4x99W/R285it/9nd/Bv/+f/j3uvOMOI9wCO4FZyz+2qYCsTXTP+KzErX6IjveSKAza3fpOEaa/LsJ0eHRYDy2jtw2sLRvSW6LkNXEt+SWThzM0hnoyZ6SCeQK66iYedzAyKuM8EaVVEaVXpGKl3VNVfKxPO9e2ynSCybepNJz8CKz8qFQ6E2hoedOVK3GC67RN0gj2OYmfhlY6tY26xb3N5n91Tt2InE2mMXrgCD782T/Agfd/DNNDk7jgOqhaKfhmQiMnmNTI/FOknJCd6HI9FhwPwuBJWWFKEYkj3Xq2Vql9iR81IkUtVwSJhMuuI5lsIC+aYTRvYWLIxrahBIZTLpJ+TSrd2qIZlEfRvYI7qNtixF1P3HRNHNWQl+t2Zi3MP/9zPP9//Fec+dyfAs89JWK01BSjkWn7CoidN8agQkYFTfih7KrzvUTEtQjrWmkBCdkm5dkIps0K4mDjyLV6uSNiNJ2TrX5kCJ/ljTgbJXiracW4nYQzvhfZW+5DQQTatOSrisSlWaOzKcjEorleL4hMt4RuBRlD9nW2cKkHZPOwdQZenWRJ79nWo10Q3mZNZyRukzqW9PjbURnZi2I0lnRF+an+XM8vEg9aPsrzkkx6qBenMHviReDMK5Ld5+RcXc5FcdeGzUQnuSHp5g1OCOkzkVhdFmPxVlU5Fwk2eRGYSTVkG/1bp/lg04yOjOLuu+/G29/+QDiL8HovtGXUr620CvMoHLqeXXRGt+Ydr7fSSZb0nrqvpkdoONToGq06vvQXP/5xHNi/HxmzqH1kKdzG6aEfiNCMT9nRymthBLaI0qpUYKuSAfRbffua/FqYHBQYeT4sMbrUBcqL8LWVVNfgNBVuoVun+4V5BvRjl7zeUzkTR7YI05L81qVgluuZ3QfI1vjRVmSd4GhWx4tpK6K40+u4UT+qm7pNpDB2+CiOf+wTOPy+D2EmM4QZO4WSpLt22zbdDcWiWg2CFgawrZ+Cz3cqRrVs9CTX+CpARWBZIjLTIkSHEz62ZSzszSdxMJ/ARG0J9sWTWHr1WVx5+mc4/S8/QOXUG0hL3sjItWayn7CMiG5pyiT9p2LUqyKf8DAuxp46h8e/9iW88Kf/X8z85AdwL+hkRiLsG2EctvVzjCiQKtjsDOyRnbB3HQYm98szkZfj2sIoFiJ7PUfCJOnfUBFdr5mlYYL2vs2wfLWlExwltaU06r67RUTxrPGYzGFozy0YPnI3itkJFK0UXL2/xuNW+CFMH82Hnid/E2lYGUk7nXXYfFjYxD07ulQspQtI79RZhu/HfHIYJQ2z+bARnF6bKKM2I1GeHRdZv4rU5ZPwXn0KKEnZKfk++KAXy9TxS2OHCYmgKCXkOsK8JwUVbJHxPG+FcVWMaokvlS5j5xq9AbSr7vDwCMbGxs04zM2iYV0OZxg2MVGY9F9ruJaP9w69n6KVznwuj3vuuce0mGqX5R7f6vpg3UrLFmLuLZUgEaXp0TEkRXA1EhnUfK1QaYVug8izEiRmIErLc1NoqChtaMXq6g8mA0M8/0X7YRxpq0siO4TUyCQSEk8VOabCPbAWv3Adwkq05n/TtVm7seokR1ErchdOdY+Nws49OPjwe3D4gx/F/PA4ZpBoLu6/LIfUE5GJ0HNBeAMT/FYTlKNSpoho9Pw6Uo6L0Qww6lSRK15B460XcO6H/4DXv/pFvPHXf463Pv8nOPm5P8Gpz/0pTv/Vn2PxsZ8iJ+EflhqUo7FqyiR1WsWu3kv+aSuiCLihFJCtLWDx5afxxt/9Lc59+a8x9/OfoX5Ru+vq7LpyZeTJjpCbJnLAzqMYv//D2PfBX8fEgx+BRJTphmqE1pYRhMutVeXRKMNyVZR37PHVCSJPtGgSlo4ple2WVk9N+qv7SSTGdqFw8Hak9t6KGV/KEu2228wrvWalm/r42IkUrKyKUm0pVT9txX0j1O2klAnbUdh3K5IiTOftLCq67E3wUHRImOZ6iVyXtiXfL16Be/ZV4NzroSCVclPzRg+yB7l52MrSixDSY7SMr1QqmJ6exunTp/HGG2/glVdfwUsvv2TMy6+8jNdefw0nT53ElakrKJdLIua0e03owDVCK7AbRcVntVrB1NSUhPEUXpfwvPyKhPGlKIyv4HUJ9+kzZzAl8VCW+IiE41YRua8zJG/fvt1MeKSTOG0mnGQjSHxLnNsiSjPDY0jkh+E6aWh7zbLo6BZN2yB9VVw4to/K9EXUizqJj84su7V5qyfEvdjcTyCZHUZaZ/fMFlAV+eR1m1/j9mXXEWPVSjBjbcuLclBbQrYIvbdU1g/e/yCOfeAjSB+5FWfqPpZENDQ0LGH1JS4748RDuvKs7KlgFL9nHA8FEaTp2qKIxJOYf+ZRXP7uN3Hma3+N1/7qz/DiX/wxXv/in+PMV7+ES9/6Oqa//Q+Y+8F3gTdeQ760hLzlhR3HVaypzNWt+kzctF0MJzw4C1cw9/TPcPKbX8Hpv/8KGk8/AX9WBH1N8lbUZXddNDQSXlsFzChy+2/H+Ns/jIl3/CLGHvxFDD0govTW+4D8hCSStjSK3XgE9BL96FmvoVoswm/oKMQoDTaKXitxKBvHdN/ViY7CFt8tQ9125H8Oo/uPoXDodtSHd2DWT7ZZEqVXROEJwmsyjAmzpmkh6LasHxS2NNzifjKPws5DGDl4HOX0MJYkT2mYm2NJ10T9HrG8n3Z8NC6cQPXkS8D8ZTkV9qCI0/KTkHY48pz8r+E+aUPQKYj0jQGIfh0bOTQ8hA996EM4fPiwaS27lqhIq0klYGlpCZcvXcabb72JZ597Fj9//Od4/PHH8eRTT+Gpp5/CM88+g+eff94I0zffesuIunKlbNZD1SVobAmHjt0M3j1bFbFB5axbojAuLi7iyuXLeOvECTz15JMmfI8/8QSefPIJCeMzeO7Z50wYX3nlVZw6dUrE+ZQR6dqCqugYXV1+Rp/brQihilCNw1w+j6efeRpvSVq4bg9E/zrXqxjWFtqHHnoIk5OT4dHN4ov/38ITEr+vvvpqeGxAWDU+tAqcQCI7guEjdyJ364NYMl3udCkDOWfGRG2k9iM3lFqxStu8XUfllZ/Dfev55YXftUkjzlZkrs3S9JPuaOU2hcKeoyjcch/8nbdgzsoEY0pNAbBeAMLzZhPEp16WtqUsmT2L+kuPwz0tFdD6gjy8UgFdz7lu0bSUynr+6DG88zd+G3sefg/O2RlMS9p7Irrik1rprQMT90R0NNiYLsuSvvrPjOTza8hYDRQ82S7NYPGV5/Hmj76LE9/8Os794zcx++hPUX/rDeCypP+cCMjiElCVfFAXIVlv4Pj9b8f22+6EOzKBJXFc17JUwa+C1BHJrN16h606EotTOPfoD/HW1/4G0z/8HnDxbOCOEaOxfBr3+lXISZ0EKJGFXdiGjAjSbe/8BWx/4MNo7DiC+dQoKrlRVAtD8M+dAkqSJjpjdGue7RV2ApaImaHDb4M1shP1VA5VETUrlxLphiDw+sEjKyK+fPpleGdfl2dPu4eHLW5rxs8G0K7tKvCHduPgOz+G9NH7MJ0Zxxx0HV8VaJq/en3T5TwrHgg2kmeyjovGpRNwdbZaFXT6IUzDvBHW87KUCfbYHmy/810YveNhXEqNYcGS58mUF9HFuu0w7PJMaVSlpRyoP/MD1F/8F2DhwnK6GTvilpqNFMtbQYdBI31A0oaidB0oSvvMAET/tRWlKuqkoA9fELpfEWF59uxZ/OhHP8Kf/emf4fOf/zy++rWv4tvf/jZ+/JMf42c/ezQQbyJSH3vs53j0Xx7FT3/6U/zg+z/AD+Wa5557Dgtz85icmEAmnUYikTTCbWuQJ6b5cuscFc8axu9997v43Oc+hz/7sz/D33396/je97+Pn/z4x3j0UQmjiKef//znxvzsZz/DI488gh/88If4oRgVqnrfXC6LbCaDZEIqTvJ7I37phEQygZdefFFE3QkjpDf9wl3HmxSlgjkmf6wkUkOT2HHXO4B9unzDCMoqVjStN5Tey9fomMmcVUHluUfgqegqTrWvJG7kNltJq39UhYmI2378Xgwfux+l4d2Y18pnxy0ikR3J2OGujh3MSwW6dOoF1F55HLgklehGSaxs8qNM9Ow03ZAdbSkbGsXDv/1Z7H7ne7E0sh1XfAdVJyPWRfzosx3YNOiv5SOBMc7KrpGiUo7qPx1DaosQnSwkkastYPqFJ/Hcl7+INz//51j66Q/gvqViaC5YI1TDZZZmEZfUMWPUbRu3vuNdGDl+F6oiShdE4KggC1pJa8glfYwnRfhOncH3/+KPcekrX0L1xeeAxXlxT/NS4K8m8f0WJDvKHwmvnQXG9iIrYmL3Rz+D3J3vxeXUJC77Wcx5KVQlrbft2o3y/BS8WcmzRbmXTsKkwncN9zeE+MdK5pDffxfS2/ejkSmgLMeC5VM2cLPwEn32MraLyvk3RJS+1hSlOsuxRkNPw6EiX4R19vaHMXHv+1Gd2I8ppM349KD781a8H6MAmNDIT9nK/1zSQ2PmPBoqSqfOS5ijdZE3wFpxZM5lkBcBPn73e2DvPS75J226K5tys1ku6HY1h8J4MfnKk6jypT7ho3rxdTSe+A7w1jPy7CzIeXl21I6xG5pBYbWgkf4jaUNRug7Bi470jQGI/msrSiXHhS+Her2GF0T4fF3EmYq0r3zlK3j+uedx4cIFLC0soVqtSr3Dhed6oZFKl2xd2TZqDRGzVczPzuPMqTOmhfExEXPa7Xd4eNjMJBvM/ht83d8q8bYWkeA+ceIt/O3f/q0I7j/F3/3d3+OZp5/FxYsXUVySMJZrpqVXJ4RohlPC3Ki7Um+soVwqYXZmBqdOnMSTTz6JFyW+5ubnJXwFMynRVmE7Ni5dumT8fubMmfDoJlgn+ilKBXNMKkV2CunRXTj0jg+jPH4Q807BtNR0JrbWQC7XUZd2aRq1Z34E/7xUjMs6g2SbrmibvFXPifvHCFKpaNo57L77Hcjfeh/mMuNYFFFqWoA6iqeYHd2V4Gsr8lBKntnXnoD75tPAzNmgFVnkWM8wt7WRzA+ZcaT3/fpvor5zn1SeEyhpN21dq1TOq7VIiAb/lJifQ0xUSHg1XRNiCjqJUVq8/urzeP1bX8Wpr/2fKD72U3jaIlpaCsSo60p92xfxKuVimOxNl82NHdz68LtF7N+J6vCYaSlVa+r+ZNaBI2JKW0ef/eJfovSj78C7KEJDJwaScstYVGPcCU1EeK/gmP5RMSqeTQ0jeehu7HzHx7Dr4Y+hses2XLIKcl8VFJKm2uJnJ2VrIzeUgzd9Ge6MzoysHwwk7/YaFcmJPLL7bkdmxwE0sjpRjoS++aEzHqgOCK0bUep4KF94E/5pefZmL8JqVLZAlIpDiYxpMdz/3n8F7LkN8+lRFCUezQRHRnj17GYthIlsnJc/8jymJcz12XNwz78JXJZ3iYR5w63crd5u5im9l4Qtvw077vsAcrfej0XZ15bhhoR7ZZmg+60ORag7utGt9gqoo2BXUXv0n+G9+hiwcC4oE9qVl5HpN4PgB9IeSZuoFCGEDAg6BnR+YR7/+E//hD8VofZXn/8r/OTHP8Fbb76FGRFg5VJZBGvdCDTtlqsfVVeaYPKjRl2EabmCudk5nD51Go/97DF88QtfwJ/8yZ+Y1sWZmWl5Z2mrrBYD+hJpeZFsIeq/y1cu48c//jH+23/7b/jc5z8vYXwEb77xJmamZ4y/6+J/V+LCtHJcZVSguqjX6iY+Zmdm8ebrb+BHP/ghvvBXf4U///M/N11+i8WiuVevw6aTOu3btw+7d+9BMqWTcpAtxyShvrWScFJ5FCZ3mvUpG1JB6nqsZBt05l3Lcs0ajJ5O5FMLK4eS364rNCr0mU7nzHIwujB/XQ7p0iSmoc8Qjy9zQbDbjljw/XoVmJ8Wsb4gv7Tbrj5bvUT8kUgiO7kDD3/iV5DcfQCLktZLIhZ0YiOtsqwMw7IsVWkYmcDTgcddr6Ht6Bh2fAzXFvHad/8Bb3zxL8wY0eJzT8FVQVouBl1ztazQMtX8ExfkFpERhwMkbh2diMexTZzKHURYNDCeclE7+QrO/sPXcPJvPo/5R34A74JU0kvitra4Rvkocmc1jDVJPxF+GNqF4Xs/iB3v/1VkZbu07RZMOcMiSDOo63I4KjREGniehXJD4mDHEVjH3y5C66hcH619qe71EA1Ho45GrSSCsWHEZBDnm0ddslIixBMqlDS9e41GRkI06ShGD92J/IHbUMpPYEnEvY5TDhJaw9Kb8Kwk7qbeR4yUWzq6WZe3MjPw6vqsvayWm9vofTQfZJDdfVjCfAyNke1Y8HXIg+afLtD8rukv719HwpP2RZBeeAO+DnWYuyTPjpY0ej6wblA/ENIhPcz9hJDN0pDKy+XLl/FP//iP+IIIyG9961uma6qKLhWhbd+VeqydiaHjHhcXFvHSSy/jW9/8Fv7mS39jur6qu8uWr83bQ5d/OX/hPL7/ve8ZMaqtoy889wJmZ2dNy+8Kb3ThJb12emoazz7zLL7xjW/gL/7yL/GECNOFBa1A9xZtfdmxcyd279m9est5SxqQHqBiS9fzy4/Czo2YlrPeyKKgYq2V7LqIUr+kXS2jVsABT8irnhE9YMMamYQn8VSXCn5dwmBkVtdBWb5AO79Wi4tB99DykhzQVrhex42F3Ngk9t37dhx84GEUpaK+INXfmpNs+fAQ7K9dPATjR1MinFWW+9PncfpH38aJr/41pr7/bVRfeyXoqluXcKgY1aDEgtPyM8D4wTIfpTS/aOuodmlOVxZw+Zmf4cQ3v4yz3/wqFh5/FLh0ISZ05bJOokrzty7rkh1DYvcxbHvwI5h41yeRuv1dKI4fwpQ9hEU/LWJCW0ZFUBj/BAK64TsoO3nYIraSR+4SQbtN9KoIPCPu1o6prohEaUVEqYgQR7txqg86Cd86aG8HFaWWin7zsbSH/jZo+ZFDanwP9tz5EBrDO7EkcVaB5q+tEMHtkDDFvnK4Ep+2fkDStUpN9+Feh1nck/yi44B3HLsHyR37UU4VUNLcq3Hc/OoS2m3ut0MTWTOzh4Ske6q2hOpLj8PTrvwVKTN1UsU4azlFSBv0qSeEDADa+qfda3/yyCOmNfM73/kOzp45a4Rqs3DXd0Kr6QS9Xt83ro9zZ8/hn//pn40w1a6blWq1+RF/q9FWThWf2kL613/9JXzzG9803ZHNZEFK60ss8lfcf+uEu1at4eSJk/jSl75kugW/9tprKJd7PUOvZbrR6gy82h36Knp5KxJg8rBUWjM5WKOTIlQyIjVsM+Rv3UzRAbZUshJeDb6uwakzy5rJYmJqIsqbrXl0EJEKdmpyN/zCBGpWSgSLVj71hPwxz8F6cRW3I4LdCA8XlcVZeBo/lWJQAe1xwaGCZOzgYRz74EdQH9smgjSBskpLCY9KzCDy4wnQ+jvyufyzfCTF30N2w6wPeuGR7+HZL/w5qo/+BP5lEYzRhEOageKicc30DU4mkwmkbRG7rsiZuUtYfPZneP5v/hInvv5/YvH5p4ElHdMZxo+63QkqRnQm1sJ2pPbfjZEHP4ptH/wUkscewlxuJ6b9LIoiSD3tbqljIuPiRfflWEmyrD2+G6nDd4StpQU512uho2FyUS/KM1Irw5H9zbeUqguWSQo7lQlEqXYHFm9v1uUVWAk4QxPIHbgd47feK4I0J/nLMa3wev9rjgROh9s4mQIS+dHgg1szn3fJqpfICXHXmdiHbbfeA6+wDUsiwmu2zhutcRxeuEKcro3JblJWYu4y3BcfB+YvAY2yXB97j3fmFCEr0NxPCOkjwbhO38yu+8wzT+OP/uiP8C+PPorF+XACnch0S/zaqNIVvii0G/BPH/mpmTRJZ/TV7sBbQXysqoZRx8nqpExf/MIXTRfisi4cvxpx/yvxfSV+Pm4E7bK7ML+Ar3z5y/j2t/8Zp06dNF2BIzY7hlavHx4aNsvDjI2NtfUD6TEmXm2pvA0hvW13IEqlEhW0E20k8jUP6CswGKOoE/kkddbIKzoGcEkykVS6RIitcHJz2aZjtDOq/uuIq4Ku1zkY3r5HKuCTqNsZCZmKmNUquysuDokf06qrxI0tQqQkonRRlzPR8YpaqIRViNbLuyHylvgvNTaB8eN3Ysfb7seZBlAUsRC0YK0WF4E/g78iasRER3yvgZzjIb00hfM//Ce89Fd/Cjz3JLC0AEg5FH7NWHba+CHYbU940raQTSUwkpA7XjmDU9//7/jZf/t/ovq9fwDOnZa8I2Va1KslvMWaNO9pw86OIX3r/Zh8/69h1/s/hfntx3HGH8acCFJNR9PqaUS0GBP/YkwXYv2tGxu+CC3sPAL7lvuAbLhETJROSjyM4aUd+TOGxm9lYRZ+uSiiNFiQafljR5eOKeInTb+6xFsim4ed1LCGM0Wrf+N+7pa4l0T0Z3YcxNDxB1Ac2mnEmfpeCnQ52WpiaBybeI6hP/U6yQ9m23LJMnpilZNyWBvSdT3hZF7eI8loWZjwfHRtPAxNwnPRbjuMHx3YuVFkbxFBOnkQpWQBFQmzaSVtXhdzq0l009iNjXD1kdLipLqE4pk3gDOvSZ6flYBoeal5chVanCKkHbGSihDSLxqNOp566mn87d9+2UzYoxMVbTWzc7NmFtuvfOXLZnxnMPayt6gQVQGnRidm0vVFtRX4icefMONGt+QlFb78glbZOXzrm//dzNSrol9Rv/Si1TSVSmFsdBRj41KZYEm69Zgks5CSClxh2y4RpSkzHmtlrg0TvxNMPSywr1JGxx0m6xVYl86aFiBT6d98NtkgUSWxtaIYstop9a9WkFNZpIYn4KXyqGnIjCBVVglQ5F47N+Ua25a48WvwVbBrK7KZRVbcMs7JRW2v65AoAW0bOw4ewoG33QtMbMeUHDeVZ3U89HarNojthl5Rj4h/fVcEqYtsbQkv/ve/wxvf+hpwUirQOnbUtGCq5Rid+l/jMZ3GRCGHSy+/gCe+8Jd49S9E7L7yIqCzcNcbZpKkVv3SpN3xwOPG7D56HPe976M49LaHsJgYwpVGEhUrI+kXjrE04Qtp55btoCrBS4ztxNjRu4DR3SLEYq1vev1qfusU4wUPbmkRVl1bSs1oTCFyWLeR6RR1VFtKraClVIyZgdkcMxY2hwl3AhiaRPbAcQwduhPTyKBsRc9GcP9lEyP+c4VVfbfJ1nTPlkjv1qNq3VxjiVbOiXAclrylQ0GiZ7XFH1eh14pZy5p6MJFBenw39r7tnajo8llIoe5HH3pWuzh02xgl2urnLu0OX0N6+gwazz4KFKeXW0njlxCyAaLcTwjpA1GL3fnzF0Q4/cQs+1IqlnoimtZDJ0K6cvkKvvnNb5pJlHS9z60gaCGtm266f/OlL+Hpp582Ezk1w7hVQRV3dRzuq6+9amYefv311+WenjGbRf2uy+qMjY9j965dfBFfK0SI2iJKncIYSlKx0nU3166VrYUkmuZBuVydcUT+ONUSMHUpmOTItEaFVgeJeHB1vzX42rUzN4TUiIhSqeTWTDVyo3GkzvtwpMKZ1IqnCnadSdYI9ihyNhlJJgzyJ5nG/uO3iyC7B4uSIFVHx7wFlWdjJUgqY+Lo3Y0RC54qXMtDRgTpuN3A89/8Ci58+x9Q1/GjOuGQu0m/aphFkP/Lt/8RP/niX+HE976D+rlzIna1dVQr5b6x0oyadhjPtphwZ25uBkvzc/CqIseN2NHjEuIo0MZuhBw03S3jRtv2bTSSObjje4Bb75Z41Ql0QlFrrg/sbRjjVflTlnxg/Cl3FCeDd5kcN4E3N+oKc5U44YggtSUvmHzcC4y/xC0nh/H9xzAuYr0xssPMPFuXODHvoTUTTIji2bQUasVZ85iPlF835UbQPr8aJmTBbiviNz1j1rjVCZ4yOjlVvEwLt9HPOHqs3fE4Irq1lTS9+xCGRIwvJYdEiKeaz1VnhH439/ORlHB7i5dQPfMy/HOvSYbTsjLI+4RsFopSQvpMo9Ewa28+8shPzXhPnT33WqHdZ59//gU8+dSTuHLlSni092gr5Usvv2QmINLuwhrma8XS4iKeESH82GOPmfv26t2plbCR4RHThZdcA7Syls7CGRozs8qWPal8S01pZXJ2WtGK0KuDFg/LrcPT9R0XZoKWwBaXB5oo2BIQXR4kMTyGzPg2uKksqlKRNovjd0IUZFMBDYzOSqwT+qS9KqxLIsCq2ioSxFvv4sjC0J69mDh6DJntu7Aoeqwm6a2V9eV/y8T3l32hf0U82x4StSLOP/tzXPzOP6DyyguSpjpxlQppY3GDyMUqxutVvPLE4zils3ufEZGuPT7ccPmYjbjfDIyP0tQlnH3xGcy89SoKfg1ZEdimL8CqwkkuNkIpNPLbF8FRlRSr5MaQuuVuWMOTIkzDmXh7UuUTf6gI0cmuahUJt+kAuzJRNoj2WXDS2lKqolRnhu2Bo4YErNGdGD18F3K7j2IpkUXJSsIV4bvuUlIm2sP4lfTXsedOrQTvwkk4S1NIufrZZ+M+1TBra62vrcO5ghwR17SsW89f6yJu2BnkJ/diUoR4NTeORSdj8kbH5UGE8YpGhI7TbsC9eALVN58B5i/IoeusrCQDTS9KKELIhgiWbpmamsK//MtP8eILLwZjOzf7LuoCbUmcm5vDo//yqFlvs/cttNpyEMy2+9Of/hQvv/wyqpXq1r/DYu5rkE6ePIWnn3oK0zMiOHpA1MKdy+cwOjpm9slW48BO55EcGUeyMIayVBK1VUgrdQGt2/VYziTqil+voDp7GX5pQR6MRpBxridMnrSNKM0MjyMl4t1NpFGTePLWixIN6lXBlQNynbaCOSo8qiJCZi6JKNMeFSKUDD2KIyeJ7cduR27/IZSS6SBtTYtRkJprej+yIOWMY4ko9SqoXTqD1771d6i99JxUnGeDVszNYuJI/oggW5i6gtpiNDZV3A4/JK7pz3asuEDeB8V5zLz2LKZf/Dns6TMYc1ykdMymiuFOCPNAw7PhJvPI7D0M7NgPpHXCI53R1kSUsbq5pBP/VEqwJC9oV2mzLMymn5eg+66ly8FIvoUTzS68WSQfJTJmcqPM/tvRGN6BRc9BXYWgEX9qOrmPhk9HZzfgLFxC44WfITNzFnnJb2nz8UDPdxsHOjpXXBU/uLokzNBo4B/1c5CpQyOs58XW22sraX4chb23YvTQHZjzHbOebMPWcId2OsHYNb6E7Ui61xbhnn0N7smXgOq8nFJRGsufcT8Q0iWa8wkh1xwVa77UlRp48cUXjFjTmXfDU9eO8L33zDPP4NSpU6jVavJ+Xn5jxfc3goaxIiL0tVdfxfe/932pv12jwLV4W1tqT50+jVfFH82ZfntAOp1GPr/KkjCkh2iC2lK3zCEjYitRGEHVD7/4r8ijXeRXFRJ6rYoZfR6lkl3UlsBGSc6FovRaPos9QUSpk0ZudBK+rk8qFXtdx3VZuK+F2onMMqYVyK2hMnsFvk5y1KjKEa2E9ihypBJuF4aw6/Y7kNq1B/O+jZrlSNIstz9FIVjps2UCn3jIiI7xF6Zx5enHsPCDb8ObFf/Gn/fVHFiPZlA1T8RM3F+hneYtgtOGpp04Vx1Qy1LBn7+IpdeexPQLj2LSK6HgVZHSjwLmfkrM4asQR1XUqOrQFvORbbD23woUxs1vPW9u23r5VX7pAMkTfqMCy4wpFQcj/5nnsXsHVZ7p8iieilGzDuwGWkqvihq53k7AKkxg220PiEA/igVHJ/qJlpJay/3IMTEmSL44JaaxBFx4E/bzP8Xw/FkMS3mRFmFuSTmiJrjGXBCaNZDwqu265HkjSkcknaBifJWqecxLTdr9VuwUUtv3ixA/DoztxoJnixDv4ANVnJhd7W+RdFzUps+hrpMbXTkjj1ysrIzoxn1CWqAoJeQao0ItKsOr1Roef+IJnD59xkwEdM1Rf8hLZEYqb2fOnjGttr1uLb148QJefOklvHXirfDItUdboC9dvIQXXnjBTCq18i3ePUEa+khIxSmdTkkdgm/irUXiVypqSV3PLz8EL5kxwiWabXVDhEtO6MOoXfK0JdC7fNZUtk03zesRiRMnmcXYjr1wExpHUtnVLorh6Y4xTSliJG40hl0R7PMXz8A3s+5q1/velRGW+K8gYnT38TuRnNiBeVcrzuFyFSaBApb32pOQCnfB9lF661W8/q2/Ay5fBHScfDjWc8NcdakeCOIl8lMYW01W218XjVu/jMr0acy+9Dhq51/HiFtEVo7ruN5lAj9cRXMctHZLTaKRyAH7jwLahVdbIPUDRfyyVo93gnFAng/xT7VchFstixOhOG/jpW7w1G39GKFjSnWiIxW43fpPUX8YvziwkgVk9h7F2K33oDG6EwtIoaHCrxn46Aatv0OiMHl1M5uzPXMWldefBqZOijmNRG0JCf1oEMbBMi3uXEXgSX2P6LdaT5e6UlGajCa12mD13NxWrk1kMSzhzu47Fowl9aW8bFesNeOqhRXel7BZLnKSN71Xnoars+7WRZy72uupdx95CaEoJeQao62PahpSWdIJf14SwaZdaPuGvJB0bKl237146aK8JMNvyKYC0+5t1R1nz54zkwzpEi1tX37XArlvqVQSv5xFWSqqXo/G7SZ0vcJMxsQV2Uo0fiWuCyNI6nhSEU0NETOerdXhDaJ521SCdSt5XsdK6nhS0x1NxIEI1XXrlQOFeFYqsk4qi4k9B+GHkxyZaVg6yp8ak7HYVGEqP/V7i12vwr1yQWrOYSW02SK0WaQsdBIY27kb2cntqGeykFSAa/wbSJ1Q7rS/m5wKyikP+VQCS2dPY/rJn8N//ZXejQvW27ch7rLut/4OfL3q5csXxS9UNH6rS6hcPIHTj/8Aw5UrEEkhKakfA+LxHr84didzSONEx1w7GNl7BMnRHUCqdbmRDaLXm/R3UVlaRF3eHY7c0468siksUzb7pguvNntvxlEJq7YWFrbh6APvhTu8HXNWGkV9Jozgi0eE7Jv8rsciE9rRvCjh1Ql+nNIMrBMvAq8/C786h6J+xKqoi/phS68RjJ879bfYk8vMrMOO+DUradRsIQ7Nek7FrBqj/rYSsMa3I7f/Ftjb9mFehLgrx8w5XbM4CltwweqYMtJ84oCuCl278Aa8UxL+2fNGpHccTEI6RHMmIaQPuA0Xc7OzePPNN7Goywn0g/Cd1KjXTSuprl+qX6t71Vpaq9Vx/vx5M4GTzvbbT3R24UuXLqFYLJqxvL3AVhFg2xSlW4rGrbyq7CRyIxPIiKnK77oY0323WbnqJg00f2uFS/KBOOE2qmgszQGL0Xp7KryMxdXZ0gpZ6L+ukPA7SVjZEWTGtsN10mhIBTSYebfLuDG3Dv1gRFIRvo4n1Zk2NW669tsqyHPjJNI4dPwOM1a4Imlck8pzkK56l8Dvy3cLZGpw/+Co/rbEjym3jplXX8Tl554KxpH2uEW3Hcu+WGa93+sjV0iF3124gqUXfgZn+gyyjSIkNU2OX9tFiS8jooLxmS4SSIkgtcd3AZIvTAtcaM2YzSDPTrW0aFpKE7K/sTGVEdF1mpoigbSlVIXpZtBeA4Vx5A/fibGj92ApNSSCVMdUxpeBiWHiJDoWRZAa9ZuLrIjSxvk3UDvxPDBzWpJoCaXZy9Ax1kGObQ1/J3Eh7otfzDMqYtRJiyjVbrzOctf1aGPQ/ci0RU5o2Jwsdhy5E7ndR1BJj2BRhzpo7wMTvhZHYrvt0bC5SLtl1F59Gp4IU5SlrDTPl9BJMDuxQ4gQlPyEkGuGChg12o308pUrZjZaM/lPH1GRVlxaEiOVz7AVsRfCVLskX7h4wYjBfqPjZVV0a4tpr8aVBmkZitI1X+xkc0jkisjKDE2YCXxqOgZL4j0SLRuPfKkOyqVurYK6CtKiVLZUlJqWIMn/qz0CW1zJ8ps36OJGGhBdfH9kG/zMKGpS+Q5mJ95I3Oh9xVg+PCPYJW7mQlHaM7En/lLhIJXww7ffBbswHKxLKpXz6GND5PPlvQD9ZYykk87+mkn4qIr/5l9+HqU3XxehoBMQ9cKP3bHWHTv2jVrU/Fcvwr10EgsnXkSiOIucCAPHW2/5kWW0+NaPEvVUAf7kHqAwJhGmrWU9wndRKy7AK4vUk31HP/SZd0bHIQ1osa6zB5tW3aSur6rdWIPj3SEXJdJITe7D8O1vR3VsD5bstOnybyY3ajra6njkmSgcaoIJtBL1RTQkLRqnXxJRNiPBL6O6OGcmezLdd/Xjjdpf4WTk3mqoZS3HxNhJWCpK5TkIZh6O7t8N4p6UkxjeiYkjd8MZl3BbKZRVNq8IdweYW0vpYekzVoU/fwnuq0/BnzkrGask57SM7IBug0BuaihKCbnGRGJPWxEvnD+PSkm7k3ZYwPea8L2ndSAd36oiUv0StfxF240StU5OTU8F78PNObcpdFzp/Py88ZNnREdv0PGkm40nEhLPI2HeNEYrVDqeVCrWVmYIdV+q5s1KVnhBZLdTwm67jmz9WhmNxflgmQvTLS10SJ2O3I2bkLh3e82yMI3R7maRNYkPXcM1KQKkIUKkFlVETd7s0pfGulRIbR+NRgW1hWkRpVdCUdrDllInKWk6gu0HDpsWIiNKm8t0qBSN5Gh0P93GjcrXBgpSD586+RoWXxfBcEXFc0srTutlPaads/HbtZ5bH7lChI7fWMKF156FO3sRWa+KtNeQbCvnTPQEcRQQu1NMGGoLXNlPwlVROjwRiB3z3AiBlY1h7iGitLwIryKiVCc7knyxLJi7dNxY1z/auivpr+IsFa3Z2QVRvOjHjvwYcvtuwdDRezBlD6Gk63OaKm8UZ9FW0Xu3M1o+eEgnfdQvnoT71gvA5ZMiyhblVBUNCT+qJTgNedqaolTvL7vm+rVQS2pEePv6YVNEqbaSDo2EojQ83Q0SX1Yqj/T+25HcfStq2XGU0OHSN23xkFBBXltA6cRL8E+9DBSlLDC9ScLwtXM2ir71ooCQFrp84gkhvUCFqYqkixcvohFVoPpB9F4U1D91bWHo4ZtEWyW1i/LSolT2+/yS0u7SOna2JuJ7S9aC3cg7n6xLEK0iTobG4UlFsxF2Sw3y0kYjXS421/tIilO2VCx97b5bL0uFKyZKB4XYc9qOKI7SIkpHdx2EKxVTXdbftDhuqDKq+HC0hmBaSkWwa/zozLs9Wyjfgp1MiYjeblpJtWVXl6+5eu3ZIKlUpAfbwCgasoTlmwlozr/8HOZPvWWWKllhadBpmzzqeYlnET4L50+ifOkMnNKCWbdU5IWc04vWT1dtgavrx4mxbSJ2xkT/pCSzh62P61/enihefQ8NiWuvpt13RUpKOmh+2aizkbum1VBbSXXdTiNKu3DRuCHXOBnkdh7CyNG3wdlxEDN+GlURfcESMOJeJBxXGLm4aeS3OazrcroYs2soP/cYGmdfk/ylvSl0Ai15FkqLqC3MwJLyQ9v3O23FXkb9I0ZvKelip0WIa0upmeRJwy6b0C8dIc+QivGdd7xd0nwvSom86Q4fdNvuxiFBP7aKxzJ2A9nFK6g99Qj8+ctSBoQfpgatjCQ3BEGuJ4RccxqNBmZFsPVyiZLNUG+IKBVjZkDsESpytUXYhFGd7fK92Eu0dVTHzupHgF6NmSU9wlQKg922SAUtN7kLCRGmDTsFTytZpoKptbkwLddzoxVjV6rAfh2WCq65acmwOpGPuned5I8wvMa32jqUySE9OoGaCnd5vXubDIcKIEuEh69jNKs6nrSHcSN+T+Wy2HnwgIjoFKoS7/Jkxu4QyNDobrrV5Sw8qaUbI7+NaJBtQtLNevVl4IpUmvVE6/Ot8RQ3g0zkRw2DdpVenEFFRKm9NIMh25P8quKnU4KxpZov7PxQ0C1WW+Y2W/Uzz5yUp40aPDE6ptcRTy2Xq5uIZFVhKUlVnehI3WlJyjXR22rZkB7F6IHbMXLoDsy4CRTlmJkf13ircwc1TEm3gvqFN+C/+SywcEWCrR+tJJOpMJOw17ULr4hSXatU7RvMLaIfaxBTnLaIUicTilJdEkc/HogbeqvOkDRNZuFM7sU2EaVLuQks+Ak0gkDH0N+RaYd4XtNX0lInd0JxFrUzrwJnX5ewhx+tNXxqCOkxFKWE9AntJlsqlaXs711X0g0Re7mYelCsQrdZ8VavN0SQhiJwtXfgtSIM20D4hSyzTloEYyId5Cd2wBFRWrfTYTe8WN6MhGnHiJvyX1eFcUSU2gtTgE7kY9bc6/Pz2A3NYEtgkmkRHiOwC2MoulYww6ip9KqlbuNHXdRWOREbUunGjIo9HWurH5eM6gssbZJ0Noddhw/Dkq12MWx2AFVvN1m+V9B2E57U9JPw2ZJmM2dOo3HhvFSgi2Jd7PfGe/2j6X/ZqZVQnZW8KaI0I3k1WmFzfSSCRJBoeedI3nByInayBTmsLWcahysiuQvUc2o8+PUKGpUls2RQs/vuRp0N0Q8pfiol+VmXRhHHYsJtXdSunULh4O3IHboT7tAOLHoiSEWU+vqwR56LghCZq9BwSLxZkv9LM5h/8sfwrpwAqvPiwVCUqp1q2YhSu1ZGUnwerFPaKbGwiVPavdbMOlwYNeNhg5bSTsOubiWRGdmBHcfuhSvbRSeLshwLZhpuJXJ3NffVQ66ESd7dl0+j/MrTIsi1W7x+tIuFsTXu9HfrMUK6oF1uJYRcA7SyoF1mtQ51o6KCW8W3EYIDQNMXfHFeP2jFzUkjNTwBPzNsuqNp9Tc82bLtFMkAWlmXimfSr8GRCj/mRZia5WCuo8xhvKpht2Gl83BGJpGQeCpqRXwzr3dxUqdfMSs6atxMXwwq49p1t1fxIyIhkcliaHIb3IRWfyPBaaTNVXcxo0tFZC1/fxDb8sN2G7j4xmuozok/dRmYqKzpkTf7iwRC4r08cwmN2ctI1cuSJnJMw9Zh+FRD6AzHVnYIyKgobWkp3VA86UXicKMGt7QEr1oUf2lncfVbF55rRZJYW8EtEaVWOuxqHK0n3ErbW4j93BhGb70Hzp5jWND1OaW8UDeXBWAbx65yS/KVrXmrDHfqLKrPPwZ/Xp4BneBHP8wYK3KR5De3uAinUUFKJwRSh9R5k0nberAFsRPmV924dhLIj4gozYkbYUvxWjRvI3GUHkJm+yFMHn0bluwsSrpOrQjS1ceSRsfbnZe0dCR9a0twL7yJxokXZF8Eua7hHA9X/NLYYUI2CkUpIX0kaCXtc2m+zntvs5jWyQF5Y6lfOCnRdYJJJvmjlWipTOskR24qh4q23+m5ZjLKjsleKw6ui9YbzajLRhmWzrpbkkpXVOG8XjBB1j+6nMQQUipKh8bNbJuutpIZS10SRqMtEZTwarCXdJKjyxI3vZp1N0QqzCo8kvkCquJsQ4xvBMNytSTwipGjMRPtqR/FeA1cOXUC9VJRKs1SnoaV/OuaIHghngjuK6jPXYJTLyEp58xkR53i+SJKU7BzIkh1Ip12YqfrKNMLAlGqEx3pZD8ZEXFBh1NF/7bcoyOCDxO2iFI1ZmmUTstrnSzIySC/5wiGD92BxuhuzCONupncSdxQL7cTpBEr4kDHmruwlqZQfetF4PzrwVhSFWVRS6GJArc52ZFO9mREeRNzw2C3LXIudlqnOfDEr3ZhPOhm3YkojRC7ydGdyO+/DZldR7DoO5AnV8S4PktruRGea/Wm5K+kiFJ3+izqp14Bpk5J2FWQa0+SNmEKD6lrHfqYkLZQlBJCCBlMtIYjFTVraATJ4XG4yayZDGeFdGxTR+oIcdsRVVNfWhAzC1E1cvA6E6UGfY07SGZFlGprcjpvKuINqYivXP6iCyROHbne09lV50WUFhfkWI/jRtf3TYr4yOaMKFURHYwTVv8Gfl5O2uBYdDSQLuKE/LFFGCxduQK3GgoGrTRvNE8MEkGQBQmTxL+1NA/HrSJhAheZDpD4SCSSZlypzmCt6/2GDgfEdtcluqXZyh8RaZ4IMu3GmtJWa3Oi6fENYSSf5g0dV5lQmbsKK24hP2zJS5kx7Lnj7UjsOIBiKo8lEWuuaRmW8+tG17IF/ViVFhHmXHwLtRcfk/CFkxtFgtSg9n2zLI6r6VOvwjZ5Lzge0Hk8qMueI+JyZDxYGsaMKQ1dWPbaMnpMT+rzksygsPsQRo7chWp+AmbaJfMcdYLYiz1zutFW4qxXhv/mi2icfFkEuTz/XkvX3RY6vRsha0FRSgghZPAwFTERIlJRywyPiuAaQUNETE2PaUXzqkpXvDLYASKCkuJOeXYGVV0Oxown7eL6QcF0b7RFbwwhXRhBRcJVl9+mM6U2v3QaJlMvNX8kLnwkExaqC3Oozs+IYNdJjoQuo3hNEgkRpFkR0+F4Url3IDUDor3oloEJBamESce8+m4DjYqO61uEX9euu3pFSK/82XckIDqRU70M262LTluOo84II0JFnhmnKfuaznFnOnEyFp/6McCgE+PpDLwiSo1YNrOad+LY6rg63EP9p62koTBbF9ObYhj27lswefx+VAvjWBRpWTeCVJ4P00K6hr/MafkTisqM48ObvYDqyeeB828EgqxthmqgtjQPtyx3k/IjoR9VjLV17hcRPZua9/XWEt50YThYGiYp6aV+MueDzQrMMfmjLar5cWT33oLkniO44iVQM8+/uh2Z9VB31NhmnHZGos2dOgPvtAjS6fPihNuRM+qlyBCyEShKCSGkV8Tfynwzd0+84mMqZLZsEkgPjUqlM4dGQkc5aoWrF+iYUqm6zU4Fy8GYlsA2Na9BTsdmnTOJobFtGJrciaoRpdpKKh43cdgpy3Z1TzsPujOX0YjG2nrLI3l7ga7va0vFO5lOwzVhCF2XfTMkbzlwMSIfiCjVMPoeKktF+NMqnGPjSXvp0b4jYdJuotWKMaY1spvwmXwgW9OsHBdoarojcqaJxL9br5h1ftNyXCuUlgqzrvJdhF5j7iB5IylaKy3CVES0cbVNVbWZPfTGKaRHd2DXPe9GY3wfluyMeQ6CsEfuroc4ZsRXA2lU4Z96CfXXnwFKkv/davsu03LMlbLDXZqFJfGQMLeK4rhDQmd1YzlJpAojgHa11m7H4u82dw0w91DRncHYvltR2H+riPEJzMmTW5cyM/6BZ230Dmq0VHUlfRvIWjVUX3kKjXPabTkc1rCqRwjpHW2edEIIIT2hi7rJTUtUJ7qq0hNUusw4sbEd8JI51OS3TohjKmSmaSGwuSHUeW0dXdDuqdo9LyZqOiTw9jVI5NW8FVW4nTTSw5NmOZiqHAu67gZWOo6kFWH3pYItlVSJG1+7Noczjm56bHgsqlS8OE4CTjIlfo1XvnUvMtFfJQxrZPQaOamTxaFS1SY2OS4HAkUbWLsRMHldxJ8u2VULxZFpkQzDuR5izSStiiVteYy6s3aLekM26lYzq4i/vFrFtJRqS6EdHY+7b/Joh2hYPe0JkRJRmoUucaIfXIKqauiBCHVW3daWwuwwErsOY/jY/ZhJj6Eo1+skP4b4NU1/6cH4Cd33JIpcpJMNVGbOoHbyefg6lrS+KOdcsbHCoRB5JsqLsLSltFE1432XrbWzvwpiNfCBDV/KOWSGAkFuwhdYuQo9bsI+htEDtyG1/QCKUlbqjLvBWNIwzq5yQO/UauTZEeFpiSDVbsqN+ctw35DwT58DGmVzbk1nYruxQ4R0TfjUEkIIIQOGVKBtqaSN7tgDP5VDXV5ZWuEylZ4N13zkQq1gSQ26US3BV1Fa1jGTIm66JqqptdbYriG+vMazQ7AKY0C6YOJoecbNbiNJ7Wv8+KJDK0HcqGD3W2bd7AXiR9uR9BWh1BQ5co9AngYHosOtdw5+BzbNGsiN67TrdRf4Ek7PDcJpdHdXwdW4knyiYsXkjQ3mV7ls5a1FLIsobZSXzKRHRgbF/bWRNBFhalpKVZCqUeEVCUwl7qQJTwrZyb0YPXYP/B2HMGvnRZjph45W8b1amKMQ6RJIDeSdKupvPYf6qZeAxcuSwXQs6WrhkOO1shl7rdugfTJyT1ntujZIuDWNXFvE6JA8y0ldFkb8vGpSSdhFuKZFjOf2HYc3vB1F8UHDVl9EYV8vzHF/ekhYIsobS6i8/iw8XZe0KM+/6brc0jdllWDFXSRkI8SedEIIIWRQ0ApZAraI0dEde2Gls2bNvZbq0caR2nOlOA93YQaoSKV6reVOVq0YrlXx6zFRje+qmp+Iu9FJeCJKa1KZNy3Jxlsb8JepfEsMS82gomPl5qZCwS5iqBcxv8Lf4U/xZjA/dxAwszXHgnOrEZ3yPfGXmuCKGxOTLkGbfGS6IsoL6k4UTRuNrhWe8EWLVlArhaI0UqQbdTt0WD9UWCrKkhn5qdXU0P9xzCE5lxnB6P7bsOP4/SgmC1iy06hbSfGCnFvhjzZuRIgg1E9dCb+GVPEKrFeeAi6eQDD5meSteLw10QNivLqZ7KiuS8NIGWImO4rOqdE4WePWEZq6ZmVgFaUjk0BKBfkaVXQ5Z6WHMCZi3N5+EJXUMCoqi41QD+KxMwL/adqlJPzZ4hSqT/8U/uwFs0au6U1iwhKjU6cJ6ZI1cjwhhBCyxUT1p8g0kdeTk5SKVx65sW2mkhpUy4UV9rpH17dMiNHKpCcGUrHumfC6lpiWFAcZiR97aBw1XSxf6o+mXtw+UtdALwpaenTS06qK0sVZ3QnjRs5tMt7NLUJ0eSZdw9i0dBp3RY6GlX+TznKzmPUVBN4IckPCSZhJkzbvuUElSBdbx+A6Kp3knwlq5+E18WjiVvN3bwW8W6+jUS7BatTFR4FfN+2+pmVzYiatpspvk9eDXYO5hSOCbD8SB+6APbkf866NhjwPphus9iAwVdwVFwiRI9HxYKuzTWdEYM698iQa514DSnNyVAWpOX01TWc9lJcWxMybMsWW36vn3LVRf+vkTP6QrlUqotyEIbpRHDnmpGGP7cDk8XtRHd6BBaRQNyPB5Zogg3SI2BX7eqVTXgjCrq3E1bD3iOaZoEBZid4idpvoZ+wQIV2jOZ4QQgjpD1rfaVeH00qotpSMTMJN6gytwTIHXdW32qJtKCK8tMK5IBVPneTIzC6rlS+tsF9PSGRI5T03ucOsT1q3kxKKMILaVSRXJbKrV7tI2R680jz84nwo2HWiE50VNbS2UfT6pvd8EaQN0yVVJ89pVuSj83HLbTAzC4stJynV6YyIF52VdnXr1y9GjAVLpNhm/K2jkRee7IwgbuP5O7w+iMLmz43gV8uSTxZEv5h2OljmHptxUAW4dtuXNE2JMNNEbZeuGi+5YewQUTZ06E7MWXlUfX2qQyHXbDFsR/y4+NWSq0SAOUtTqD3+I3hTZ4JWUs33EXrJVc5pWF1USguoLs4h5TWQEWHqSBi6F6bBDXStUoxOhsv3hCJzxY11P4FkdgTjh25DaschlNIjKFrJ5XG03dxb/KsmaUlYZ85j4bnHgLnzEn4dS3q9lYfkeoeilBBCSP9p1qOiCpgFWypmqcndqDk51DwbbpeV8dXQjnIJrw7LdE8tanOP1C+10h5auJ7I5JAojMHLFFBTWWAqphsLiM5o60gFNa0L71w6Gwh2txbEjaLOXlUx74L4ta4Lv1aDJyaoxMtpU//urDqvLYa2bSMzlIc1Ohy0lt6QSMw4STjyLDjahV1++2YZoPD0ekhkGtGv3dM1n2urd6/yuT6PtSpQLcJ2daIf/eCjx81Zk5adC2iTA4yxRIxZ6YwIs9W676q7SWR2HETh0O3wJvdiVnKtdtsNqrXRNfHrWv0h54xo9ZCyXTjVeSydeAneyVeB4myQ71tF2VVB0QMN1MoLcEWYZiRuk2bCp42VJfoUaBfeZGHEDFswa8oacR1aMMhvJ4PU6E7svv0BVHKjWHLkiZU4az77KjTX80AUPeJXyxb/1pfgXjwB783nZF/XJW0T/jgtt4h+rnNXQtZEczAhhBAyOJiajY2kCK3hHftQd7Iik3Q86Yra2YZQyaMuJRoVYOoiUBFRqhX2665VQOLCcmDlh5Ee2wY/nUfF00rtxuNI48bRllJfROnF0yJKdf1WbS3qUVUzXmsVoetXq6hXymZ+Ve0+qXRyJ+OMih0RZ6lsBsmxMVhmXcfg/I2FBCqZMd3YLdk2TARpQDsMrMSr52pcS343rd6az00MmtObRoVutQyrUZW8I24aEdqt21F4xPgqSu0gPbWlVGcMVppOih2d/Cg9gp3H70dq1xEUU8NYklykvSmCzxurEfdX4E/bcpH0y3BmzqD6ws+BhcthK6mK95j9tkHSg67o1zK8ypIpU9K+CFzzFOq5KExqd30CUWojkc7ByhbCyY4k/OGzYRDhqb0i8vuPY/jAbWb5m4rYcTdUnQ/8n7br8KZOo3byJcDMuBuGfzWPdxgeQrqFopQQQsiAEKt8ScU0kc2jMLlTRGl68+uThvVDrd9pFc7RLrtTF6RCrZOZ9FB4XROiwDhwcsPIjk6Y7n4ViSDt4rxMaM+YNTBWpEoslXDtAJl0RWRMnRfBvijREomYHiNi11NRWiyKnNAWWjkm9zdicw3MWbGrFXjTMpRIIT8xCSedkjwjJ1aE/0ZARJo8B1ZuCJ48B8Garl0gz1GjLqJDewRUoi6ZPUjPyAlNR3mWGrosjEoq00q3eXwdKxwfU2oO6h+Jj2QOqZ1HsOO2B4GRXVj0k6iaruutVdp2fpFjUUuixEXSlquKM3BPvwy88awIUomnVkG6JiL4RZC75SUxRaTETZ3sqJkLO3VGr1AviSjXZZI0zZHKmPQz5yIHJZzpyd0oHL0LjdFdIsYTaGi/+g3me8f2kaovwT/9CuondCypPPPtWokjOg4PId1DUUoIIaT/mDpVWOMxylGkSiYPOzuMqla85HW1divIOoSVNuO0VCQT9RKsuStSCRVxel3WtGyJjQQy+WEkxHhSga3bwSQvwatdw9tNfEllX+NGKuSWzri7OBXGzaY+BVxN5C3XM6K0uqjVaklZbz1Baqb40YY0tW0EqSc/PCuJ8b0HzAcM06p0vaNREBlFW8aGx+GI8ZNp1OV4V8+BJKqucWpEaTUUXE3HN4HxgnrGg1uvolxcMB81JBd147ursbW1UJxVMaaTHYXV1KabVgJOfhwTd70T2HEE5eSQKR+CNVjVQhR5q4RR7ago1XV4JS4ylojqy6dQev1pYOGCZPcNLH+ka8gWl1BemEMw72/r/buIEb1Myj5kc+GY2vBZNs5J3KZzyOw4gNyB2zBt56CfAvST2gr0Iengnmoj64jDM2fhnXkFuHJawl9d/dJ4kFqI7rj+XQlZneBpJ4QQQjphjYrJhrmqJiOvplQW9tAo7MKIqXgZUaqqaZO1HiNtG1VUZi/BL8+LOJJKWOt4Ut2PjLJqmFst9pCohtfW6B8RpVYKQ+M7zPqkZjkYOyEVVDmnp4M/HaLXBKJUW30WLp0xY+RMi8lWhM1EmS9RX8XSzDScWs2MR9QuvFESG92wyq2DwyJePBFcIkYO33k3siNjUpkXcWLi5gbBBNRGYXwnsuO74CbzwZI/UevZCkykBrsRatWReJI09XQtUSNKe91V3UOjVjaCzHwSEbdVnHbe0hgR+j/ymwpSbSlUgSYBMa7pR4fsMJK7j2Lf/e/FfHoU80iZGXeXgx660xZ1X43eQ/ya8OFX5uGfehl483mgFs04u9r1bVCrbgON8iIqC7MiSsPPZx1lQ704MoLJ/Jb4K2Vaxs06reJa4JieSyE5sRf5g7chsfMQZjx95iV+TGuyEtozZi30fhJ+q4GsVUf19WdR0xl3S9NySsMf2CLkWkNRSggh5NoSrzu1qz/5FhKZHNKjE6aVqCSVrppUzDZcV9J7hBVldcWvl7F0+bRU1FWUxoSXblpvsuZN211wjZA40W6MY7sOwU8PmTUK65ZOdhKvoHeI2veCSWqsRg1L50/Db7aq9VLACE2/+WY86cyZk3CqJdPt0UyUI2lki51Vs4jkjeCfuuCb2UoLO/fA2b5LBEtejsZs9ylpeoeERdI4ObYDbn4c2tE5GDsYBSwKq/4OI615TrYSpzpm0quXzGzKEOFkRIdJ08jeZtB7uHDleaoszsIRcabTTXVXsYyll/GTaQ83Hxh0ojMzftS0guoHhzQyI7swfss9aEwewFxiaDlOmmGPm3bIcc1jctVoykfj9KuoaLdVHUvq6phbyfOtX0NWc06OGb3oakv0EtzinIi8YEypYYWf2tFyTndd8ZuKUin3dHZhM9mROmTiIYfJA7djaP9xLDo5FO00XHneg5bzmAnFbUDkfnRe0Ss01uqoz1+C+9YLwNSpcCyp+D2y1gVRSGKhIaRrKEoJIYSsJF7DaDWbZd0Kj1iQipbONpocGjVCw0zkISIsqHxthMjj2honplFF49IZoCbCy9OWgR4Lr2uBxImVzGNk+z74mYJUL6UqrC0mzcpo92gM23WJm4vnpG7eZrKTXuWBkFqpiEsn3jSiNC0Vee3GG4zHC0x0w/htNXSmFTW0VZfwepk8ksfvCoSpinK1pBdsPCr6hwmgGvljJWGNTCK76wC84Uks6QzUctw3+TWKkRjNQ8GOdoTVju/+4owxEuFyapUPDW2cWxO1rx96RNx4kmeqxQUkRKCaRVnU68bSekSBVYyDxuj6tZbOOJzKSqYMZa6KsswocntuxfbbHsBCcgiLIsp01lmT76/yf+SeEN0mvJXmsZT42ylNw33jWXhnXw/GUpqyQK65yq3VMVEg/vWqZdF08zoHMBxJH6Nr1TR31KyH2BEH9cOSrxMdSb42otTXPC3xse0A8gdugzOxD4t+ClWJE0/zuwbM9GtXo9X6MKBNYvfWU5bkCxHPOVRQfk3Cf+4NoCj5w8y424k/CdkaKEoJIYQs0+86iak0OUhKhSyVH0FNKqc1W8dNSWW8ta7VDWHlUKWMCi9MXwEaa0zo0U/WDadYkMqqdvFLj0yYsYa6RuFK0d5NQopdiR9fBYvORjx9UeJGW420q2foTq/zhbjbqFawcOEcPBE0SU8EjRyz9J7mZnEx2v7mmnI6xrIoGWP4jruQPXAQyKqQURET2Lk+Uc+L2HDSyO3Yj8yOfWjkhiWc2r6n56KYaY2X6HcYeEnThLaMSnr6CyI6zJIwV41A3ARyP3l+XLcmenfRjEduduENbWwEk4/lubdVlEbLvNgpJCf3InfoTqR234J5PwGd79cI0lXv1i6OxLbEi4rHyulX4J58EZi5IHGzubJAx9XWF+dgy3NjRGl0X7O52g9tMQWcfkqQrQrStIpSnexJBLmTQf7QHUjsvhW1zBjKIlQlpuXcKuFf7ZZW8Dkn4VWRWppC/aUn4M3I867jx5vPHiH9QXMzIYQQMiBIBUtEaFqXOhkeQ1XqSA1tHVqt3rku4oAKUq1w2j48qTjrLJlYmDcTlASiK1YRC+qFgRkkIm8ar0rFMpmBo906peJak8p5+1lZmxesg8gAiSNPKub1osTL/LTEjQj3ra6kikjyJR3mL4ooqJWRkmp2UKH35K7aYqRGfKDGXKCJEoRJJ0UKRKmFxZqLbQcPY/jIrcDkpFTgRdBd17UbCacIESs5hG2HjsMe3Y6yCNSyCJD26azxotdEJvwpMZQU8WFmUtaWUv3oEETf1eg1XRM45ulEP5USbK9u1v8N5slu69EOUMkk+VtFqY6pNGMmRZSlCygcOI7Mobswl1SBHhOkYXg7QfO5Y0k+qxVRfPFxNC6dkLynraQbEOuxezZ00q6FWTNu10wWZo6GkR192OkISTVPrhZRamWHgITGQQZWbhwTR+8GtJVU123Wjxarhbvt7eSgKQdFkMo2UVtC/eyrwXhaHcag4e/Gm4RsARSlhBBCBgsriezQBAoTO1CzHDSkkqZLJbSvga2H1LR0IiOtKNs6E2kNNa08qjHjSWOV0ch5rZwNdAVNl8spYHjfYSNKqxI3rlZ8r4qeKBDrB0YnxPG9GiraorYgorSuy4dspSgVdyVdXBEzrzz7NLylRWSlsmy7WqEXUaoVaLET/BPCsMWTyJM/roS9XG1gdOdeFO68G86hI8GspUawXAeYwLWgfk+IEClsw67b7wdGJlGUNNfWcCM6zURHrcjxmFumNUzydtoVsTgdilJPu+4Kaq/dfTtlxbWSPuKuW6vAr5XhyH7QUtrpDSJ7mrJqJO31A5IZUyqCTMS4jiW1J3Zj9Na3Ibf/Nkx5KdTsVDBDr8ZHWyL3lDDA4q5t61q8NVSvnAFefCJYl1PHkmo5EHmlU69HiLsadndxFpZsbXlumsK8K0EqiH39l8oVkNDJjkSUWqk8krsPY+ToXagNb8eCLymr42wVU7atdw89HxkPKYkDe2kac8/+FP60DmMIx5IqkbVW2h0jpMdcJ6U2IYSQmwOpbOnkLkOTSBUm0JAKWDDRyWqVz1bilVFF9vVaqVTpmEVI5bmuglRbBM3yD2GlLrrkuqh86VqGOeS27UEtUUBDKujB2LKQrsPgmdYjnZXYXZK4MTPvXouxtto6W8fp116Dt7iInFTI02IsEZqmC6eY4J/smSRaDpgetUWk2RJu20qi4lrYfux27L3rnmDW1kjAXQ9osFYYG05uDENvexjVsT0oOllUJZy+aQEWY5KlTdia4Q1aA9OWi6ULJ9CY1e6ZZXMmiMcWuokm9d8K5ICIML+ma84uwRZRGk29sz7NAJtfBnVO8oAtYU2kJR21tdTJY+fRtyG9+yjmdSyplYVrmYWEgguCi8zlQWDCu0e7mo9NXhaRbtWRLU2j/PQj8OYuSLwsBeWAng8va247wdgVQavCbmlORGkJacl6Zt1d9ZduO3YvsK+iPJUvIJkfkfCLIM2OYt8d96Mu5eGCnUHJjia8Esvm40t0A40DDaca3Y/iRDDWJF4TcqxRgn/5NPDqU+Jv/VgRivJWIic2/EGQkO7QbEoIIYT0j2blR3/IaykrlTGplHuJHOralc1UiLqpFMXs68ZUqrSFxINdLYkACrrZLU9yZG4c0M1t+oWThJWVSuvoNlQTGbMkRqcyYDUcERaOiFF/6pLEjQgYjRut3DYr+1uBitIGLp89jTkxVlGEqQRD0ylgNUEaGFvSVY38RaXuI7d9D8buewjOvQ9KZV6XE+nmY8agIH7ODiO19yj2PvA+FDMTWLLCZU+ikK8VJnNKxIeYlF9D9fTr8OYvi/gow2rXRbUX0aOiVPJMbWkBCVcnO9IPC53kG7XTYk+uM6I0kTQzcCM9BOw9htFb7wVEoC/4SdRFlJlZpiPPN53Q35FRZKtxpUbcVLFoV+ZROfMKvFeeBEpSDhhButkeAXKtPi9Spuis1Trhk3ZD1wmVukPD7sH1PBN2R2ffHdkOW8I/cextKIlALYkYd22dZTsKZ2Q6wGsgY0tYp8+h/PpzgBHl2koaDWOI0fKzwzsQsikoSgkhhPSPq+ptNpIj47CHxtFwpDIu1aHu1ieNWWzZNbO7Vkrw52Zi3VMjAXQdEIUnKaK0MAxneAxlqaTqzLtNUdptPVjQ7rI6Ds7W1uOp2KQvXVequ8cXoVS8chEzp96CPz+LIccSv+h9NUSBuIklYxM9Fm9Prbk+Gskc8rfcgd3v+zCwbUfQjbfzqWAHAFVNaWTGdmP82H2mq+p8YgilYK5YOR8FZLV0kePRRxZJT1+XKRFR6i9OS5pWjeAJbQX0Il70i4GkoXZfbehkR67OPhuk3frEPRDal0NGUovwMuMpMyNISFz4u4+hkh1F2ZdzzdZBtRy5EXerFXVbx1LK8z53CZU3ngEuvSllgC571Eaod424L/HtSZlSXpiFpXEgxzqLgxYkGGZSt4Tk3ZQI8rFdwOG74e84gqLER82EMzLrEdrROBKvaOt5orYI/9wbqL/5YuzD3Hr+DLoUE7LVUJQSQggZDExdy0FubBtSIkxNt9SOKl9taF5mHJVKom1EqSMVZ8zqzLtVOS4V0uulrhUEQ4wNK5VFQgRpcngcZQlZXU4st5xogKJA6e/10RadhFSqE7qW5cwlOdKyFMxWIkLJW5jHhVdfRvXyRQyLl6PZSyNBGq/cR6E056OthF2XSik2PKRGJ3HkoXdi17vejcToiAgbqeaoxZ6gDmm1KTKRb3qBuGMlkShsw+jBO7Ht+NuxkBwx3TVrclyFWsBq6SLHVVxo3In48EWEVqcviQA5CWi6mvVJY9Jio96OghwZxYjSihGlOtGRLgvTufOtNjW9dEInB41kFta2fcgcux/F4Z2m227dtJBqKOQ6I0gjo7TuR3EisafRJyLMvfAWvDeeBcoi1D0tA5oxsjGiyyXedb3WBYlzqx4I8yjFml5aF7Eo+VivrEksNnJjsHbdAuvI3ZjLjKMk5aGOoe7cz2o3vLn4LyVR502fh6uTG106JT/041Nw+ipilxJyrWg+M4QQQkhfMRUuB9mRCRFd42Y5mIZWmkzF0tjoAHNBsNusVen4QxGkUjG3dcykEV4qSLWVpGOHrx2Rl+JB0RY/jR8rgUQ6j4yIr+ToBKq2rkQpFVljt11YNA7i5mo0bhJSQXW0pVQF+zWNF7lPo443nnoCs2++joKImrQI5PiyGss+0b2r/aXRYjvBzLSeqI+JfXvxvn/zu8jt2imiNBHa2iwad1Krt9OwUgUglZOfulyHiqjAxrpESXCVfTmgYiuRR/7wXRi7931I7b8Nl2sWqiJIPZ19dsXYwdXQuPGQtFwk6ksonnsD/pVzIsYW5ZSI0qAf9PrOdItOtiOitFZUUSr3lvtEabcRPEnQmmehoqLsbe9Aev9xLCaHsSTxb5ZBWbc8CAMYCTjJS5mEj/rsBVTeeB449YrcRHtK9ODjSxSXTVF6EXajioT8DoRpt+7rpGU2Kg0H9e37kbjzAckLt+Oym0JF56fWfBA5qds1nQ9PmvRoIGs1UD/5Mqq6DE5Jx5Ku8VFuXbcJ6T0UpYQQQgYArd3JKymZgZUfQSNdEMGVhO+EFfKOK9JSQdbKd4SpmJodOCK8bF3+QLszmgrpABOvEOq+TjWrkeAnkEwPI1WYNJVUjSPXCJYIDW9rZLU7Ju5p5V7EblIEXaO4gOqcCNKajifVc6G1rUZbeKVy7F44j9rJN+HPXMKIJLnj1iQZdWkY9UogcQIT/QuOq0hR+dpwXTgixnIiPnQZlKkzp+CWS+J20GV180gc65qRTgHZw3cieeA4MLZNhKQuWSJhiKK41UTE91sx12eAXUeRv+vd8A+9DWeRNy1jy74PHdT83Eyb8FgTHV0rAsyuI1/6/7d3p1+SXPd555/ca996w9YAQQAiCYKURVIkaJKiLImiKJGWZdmyLFljauQzPjPWmRfzcv4Cj47PjMdjzciSx0NZx9pJmeYukhABkgJBAiSIfelGAw2gG91d+5L7Mr/fzYzqqOysqqyuqo6squ8HuJ1ZmbHeuJF1n4rICNuWTz8ilRetDvz2Pjalnn+02ButRlNNC6Zp26/8jxx+65X1BfX1W1/W+PL2YtvaAnrN2nZ99JjS97zDAumY1tIF1fziRmFazmsmNo8g/tyG68zXT02fylZUOP+UWucslK5f3MhDWXycHrZ5++r7tv61soXSy0o3yuG+u+EPK/7++mfQdmw4C6RK5W39C2rM3KrmTXepmB3TqrWPRsrv2do5jXu75XJh3fzz0JYj3VBrbU6tl5+R3jgn2zk673VNqN9FBfZB/DcZAAA3VrwT5EeLRias3z8VTt0rWp8xfL9qvVO7ndADvFqi/pZ1zjLW+WqUV9TwQFpasRevdvcPjNC5zWhkfEaTJ29RxTqwFrNtTbyO2oNsab0+PKD4+lux0JazYFpbnFN5NrpKqx8pNdHw+ynqOFuH/qWnH9eLj35HU9aJHrEg4UebfCFCDrM20H704q/5fUo9tNalelmTlhdnUjUtPPtDPfiffl/f/3//QGW//2l9i6NBfemE0aEJZW++Syd+6hd13y/8E83cc59UGG2/vx6UevC3ut/25Yle96OguXHp1F26+yc/ocl736vlkeOat1BWy/gFfaLpd0+kBxskl7GJr82r/OrzkhcPYP2Er12x7WEhrLJm+1W9YsE0ml9UXJ/rEPj3RrNqWhBt5EYsjPrFjezn9T++dE87rvNamFUrLMtIPqXl88+p9NIT0uyr1rzL1uR22y5iOuvqF+0K9yq1cO634/Er8Pqp5VdFy9yrRHx4P75q2z49pGZ2uHN17egUbn8/Ps0u0dvtydikm7Yf1TSZa6r47GOqv/qCtQ8/ddnqIJwR0cMWkwf2U7SHAwCQjPWOVMr65xPKTUyrWRgO99/0U/nafbZ4x20b6/28zhObhF/kw+9PWl6eDSFmv48c7Qvv4FpnfWh8SuPHT4XvkobY5nXXT08yDOL14dPpFKuHTNpCxeqiGl434ajafoeYmDAb+8dC6OWXz+j8E99XavayjtuiFWw5oqOlEV9fL40QSWu2XauaHrZh12Z15dFv6txn/1wXv/TfNP/UE2qsWiBr+HYOo14H6yJ5ILWQOPSmH9WJD35CUx/6RdVvv0+NkRmrPz9yFQWF65GxBZ9Q5qZ7dNMHP67C296v4vRtWk5b2w/fzLT340Fsw3r4D1Fx/r4FEK+ZuddVPmsBbOUNW//OUdL9FGbdUGllSc3OVX79bPP1eokWcUf86LiHs/aFjfyoeP/1HNVL05p4UwW/L+mLj1sge65z2qp/v3aPrC+SV4LVfamoRmktXPDJv8N+te6jZdqquOjReR1EJW7jT5vzry3I4m1N+eKsGi88rubsawpX3A0XONrndgHsEKEUADAArPdknc/8+KQF00m1ckPWlfIOqff6+u2E9eLjto+U1pfnVFvyU3cHvEPmq7ze2Y2zX9lWL9nRKaunqfZ3STvvbK1rgl6n3luNXm7W5fdYDCVcEMdCafTeflufR1OlhTldfu5pXXryB7rZ8tiodfLbp0BGa9leXz9Gmko1lE83NGLxrX75FV1+8Ms695k/0aWvfUl66YxUKlvn29YjnPa8U7ZQ4QjmqHLHbtfk2+7X8fs/prH3fETV02/XhfSE1hr2fjjVsqui2gu4pXD0zAPtyDEVTr9NJ378I5r58Z/V0uRpzadGVPI442cNhGl3i78WzaxdMmlr0+Vl1V97UfWXnrL1X7H1r3be309+pLSuyuqSNR8/hdfPbzDryx8t4w1kbSZ8V9q/R7lwUU2/BcqVVzpHjvs8db/fRbb5hIH9M8VCeXV5Uala+88KocX22ozX6EwjiJ5vVvqX8Y+Meknlc0+r6aF8rRPKw+ffzqYF7DdCKQAgYd5rS1smzaswNq300LgamcJ13H/Th+0xvHVQrYuv1IoHL783oQevg3iUwH5l+70Lx2bUyI60Q2mv6tm272pvhqBnxSZZLxfVXLbOql+l1U+H3XrkvRXfZNWyFs6d0bPf+LomSqua9O+IpvzonwdTP2Lq26yhnL02mq5rvLGm1Buv6PnP/aWe+g//XnN/bYH09VcteNj29TC6k03cqY6wMJ1TajPH79T4j/2kbv6Zf6Tp931Uq1OndaGW01Irr1rLWtR6NXWerP9s1qcX5yuatixbUGr0pPJ3vNOm+zHd9uFf1Nq0BdL0qFbl3xEOrdX+txJNY8O0ogoz/tRCkV/IZiRXV/3Ky6qcfVK6cNY2pd+D0rbnvh/1tulbKPWj7elaMXyHM3Qufb77Pu8eQp1Yu7H2U2gUtfTc99U4/3z7u+Thirt9NIwdL3a7DrwNl5fmlK6s+WWJ2vXQl9g2vV4bJuEr0K6DTHFBSz/4WzXnbN+odkJ52DadwYABQSgFACQndIy8N+VHhgoanfb7S46FWyJYd8re3mlnLfRI208j/pvOg6hfXba4bPPzo0cHIJRGqxKtTjqrzOTJcEP9WmbIYkh0WuN2ot5np/jFf/xIiXXcM1btVauT+pKH0hXLfFEo9bLx6b6IT986yuW5WV387sO6+Pj3NFEva8LCZ84vUGXbK9xn07bjeF46Ya9XXnxKD/4//1YXP/UHqr38kuQXNgpHR31a7UlusD6fzmPEfvYmEmqyZYE0O6n08bs0/eFf1qmf+lXV7nyPXk1P61JjKNR7CIv+ncRwESUbudPB9/F9OtFBaP9OoX/FM+3vWQnvpkZs+seVv/cndPIjv66p+z+hC8O36I16TiX/3qAH4vAnFBs2Osrbedgg9pofjctYfUx6pH3hUbXOPi5VrJ3X/NTdXiPvAZ9sVAKrj9KiUhZ6LFYr53UQ5u01cYP4/Dqz8/aSa5ZUWHpdqUe/IS1faZ/KHNp+e5ieNqxTH6LhQxuwOrAwWl9dUK5RVt72L99D2wu1XXHR43UIk7F/ouLzTds+Y3XQXLgoPf99+/ybtTrwqw77vh/GavNFBAaAf34CAJCMqDNlgSuVHdbMTaeVGRkLgavdpYv3nnbKelt+FMlSQnltWbVF65R58PIO9CCfvrbpYqU1fuykhmZOqZqK7lnYQ6jT9tOrYhMN77W/sedHUmpri2qsWCgtr9nLXjdhqI16TnMfWChem7ukv/6z/6LahZc1USlqtF5S3spoqqbbLZFWz7+ox//Lp/SDf/tv1PzG16V5267lslRves7uBMAtxNfDh7Wfm35UPjsqHbtd4+/6Sb3jV/9HnXrfz2l58rQuaTTcI9MvvOPboNWwOqr70VgP8O12FFWPTy66eLG/4xfn8fFa2XFp/Fal3nq/bvml/15v+rl/qvzd79Hl7LRmmwVVM8Nq2T7QdyVHwaNVtwhb1VShpbknHlbxBQsfixZCwmm77UH2n83E66K4rFSlpLRtw2jP7XNt9lajpiH/g8vanBaeekSti2faIX2zth25nrqKVjJsDtviNu/a6qIy9bJy4Y8oPtH4QFuVXfDZRH+A8EfbHkPphtLzF7X61PckD6Y137+jNgsMHkIpACB5fspiflhjx/xI6bDCCbZRXy3qbPUl3sGz8SyhpDMtVSyMNvz0XQ9e4cqbO5lmAnzx4sXXKZtXbmxSqZFxVdIZNSyY9LcWvYay0GCdZj8VVsvzavlR5Hr8IkedOoxXp4s/3w8273qxqAs/fFxnvvkN5a9c0G05aSZT17F0VQs/fETnP/0nuvi5T2v1h4+1A2nFAljngkZb1ke07D5QVEI3KG8PY8rffp+O/92P68SHf1nVN79b8yMntagRlVp+1N6GS1sJidfnZfXkQcwfN8zVZ+LTtJCbtqCZnZAmblX6rvdo5AN/Xzf/3K+r8J6PavWmt2i+MK3VlF+Gx88IsHE2/JEhPs0YH2R9sKbSqYayqqhpQbT65MNqXngxfK+07+9N7la0PL5P+ZFZa0MpqxNvmfG1uWE8CKa9bdtyzL2u+nOPSquXrX1Et0BpD3aNTap7x2zd6/6Hr3JRKQuo7QnbTG9EZfisfN+14veKzVdXlb70khp+0SsP5b484Y9xwGDyT04AANoS6UnaTDN+4RcPXBNqZCwEWKfKb/ux/v51dhr9+rRZC17N4lI7eFX9e3bdQWLAhW1i/xSGlZ2YkYbHVbYg074/qb8ZBthE93q2h/V/0xa1ChZq0nNvSCsL1mmNh9Kk2HZv1FWdu6LnvvplLT/5A02szml44Q29+o0v6+yf/ZHe+OvPq/TsUxamFy0EeTDsLG+nGtaXfqtq8Tf9VNnsiDR5sybvfZ9O3v9zmnzPz6rxph/TG/njmmsWVAwno/rptK495ZbNrz1LD6nWbv0IajofbuHR8ukNTYVp6uZ7NPr2D+jY+39ex37ilzR2/8eV/pH7tTx9h+azk1pR+96bV6+wG/GJr6/FJjwm2/ZL1zRUWVDx+w+peeZxadGvuOtXl95u/H1gwbTm30+2cJpOqg1Z+y34RZFXrqhyztrI+ecsLFsgC98j32SZ9mxRbUIW+iorSyGYeijNhCPaN5DXu5W8X1F7/nXV/L6kl16x9fd9m0CKwUYoBQBs5P2ozcq+sAln80pPn1ItN2wddQtcnXeC0LHb6czbw4dQ6pcE8gv5eCj1ozl+VOdAsXWxOkmNTig/fSKE91IrY2vmYWmreol62/4Y73mnwlh+ReJ8q6bUlYudUOoBr3M0KalQEdgy1Cu6+Pj3dfahr+nC3z6o2W8/oO//x/9br3/uryxs+NV112wY247ez964alfLpuxND4P5caWP3a6x+z6g4z/1DzX1Xgukt7xFs6kxLTTz4RTpcEptdOGhZvvoX73prSpvbXZcKhyTRm9Sa+o2tU68Walb3qbMm9+l/Dt+UkPv/XlN/syvaNrKhE07ddu9Nu1xzfv3R1t+QaPoKrvxPy7ES5f1l3yF/erDdQ3XlpR5/VmVv/UFtS6/3L6QTTiCe4O3ny+bBcLy6rIafgqvtaONwdSfRz/3WLctRfWx3Xh+vNkvjmX7+IUzKj/3g3ZIr/v3KDf5Y8ueV1NTZfusqReXlG5Ulb2hodRXxvdfaxt+VerXXlTlpSel4py97kfOu1Y2vmjxt/a8ToD+EEoBAMmyjls6P6TCqdtUDxc5ssAV7xitd9r7YSNGg/pT64jmWlWl5i+1L3IUfQ9ws45XEh0yX95Ni/9j699KKzc2pfzkcTWHx0MovXohKC870R4nY3VTsI5zeuGK1Y2FmfWEl0QlxITwYMvSqOjJBx/QF3/3/9B3/uB3pccftfC8KNWq9rYvq9lu1aPVWS82gn9/2QKpX1135J0/qTf9wn8nve2DemP0Fl1sDatoYTQE0Q3tzh79Z9sODX9/5LjSM29W+ub7lL7jx5V+50eU/rv/QNmf/jUN/fxvafLv/w868bHfVPPtf0+z03fpQmpCc428yh50oz8mhOWxfzaEJZ9fVGKil8INQNu3xBmy8OXfl5z7zpeki8+2T9EMgdRH2GfXLKLNtOmhdEmNcsn34PBHj40nmHevZz+iGUXDbz6ev5O3esmtXFb6/NOS3wIlHDW+USHd59FQq7gYzsxI1/18Bv+ssdf3bfY2YT+jZL2a/OsKTbVKC2qdtzbx+guWRzvfo48Wwh+iEtfrNeAGIpQCAPq3eZ/w+llnPzs0puO33almflQ1+znc6XBX87IOsY3vsS1rwSvlp6iWos6Zs95X1AmLlxutr3W0gdI5FUYnpWEL7ZmCqqlsuIjO1hOI3vPHeLF/7SFlIaKyONu+HUytc1VOl0Q9xIVFtIWw5akuzmvt5XMqvnJOqtp2rFvLaNi2jfLzduKr7UHTr547elKj975Pt//8r+qej/8zrR57sy6lxrXYGlJVFhq9XnvVrS+SzT87MqmJD/6sTv7Gv9Itn/xfdOs/+591+pd+S6c/+k916gOf0NBb36/VqTst4I7rSmNYy42Cys2C6vLzSmNHXvsVHW3z9W35abtVTReaqr/+vJYe+ar0w29b3VhYT+oUTQ9d/keCdEury4vhFkPZzpHS3t96jjbIHvL1tvA5mm1p5cyTWvPb4qzO2mv+PcrOML3s8WKEz5fyarglTKZZU3a/e9kblt//3FG3ttFS6cwTqvhtcNbmOsHclqt7Xfd83YHdIZQCABJkPSMLXOnCqHITMyrbc7+eaCvqiLvoSEDf2sOHUGrpJdu0MONHA8PVZb3zmkDH/XqFDrWtSCuj8ZmTSlt4r1pgqlvxW/Nvz4eJSiRldZOy0NDQ8qXXrc9qYT0cQd6q934D+WJ48dW2bdWs19Sqerjw7xlffXvDKvWyYUALhH513enbw71BT/69f6z82z+sKyM36XJrWKWUh0Y/ndYDaZhxZ7yumdgCNNJDqozfrOKJu7Vy4ke0NHOX5kdv1WzumOYs3K5oRBX5LXtyaoTTrP1atN7d6hF0rxEtdKyEZfGnFkitLU8N29PLL6r2+DfUfOaR9q0+/Gq7SbXrsJjtZS2trapRLStjy5qx5dnxrnuN9nTbxUWPsW3jM7FAnLZA2iwuqmGBtHnxrMLVZqMjx/FJ7CevB1v/6tqSmpWStyhbvH2ccbg4VrsevHXlrN5z3h4slLauvKZw8TL/ukJ8/WNVBwwSQikAIEH2ayhXCN+XzI1PhSOANXvNj7Fs7EX22bGLdbZSfiqbddLqq4vhxv7eWWyHUnuzz8klan0ZrY5SOU2futVy1YT8rp3tI8nX37NM2/gZP93y8uvWeY5uFTGgldK9WL7a8VXfbHuG4TK2ssNKjZ/Q0Jt/VLd/+Bc1c//PqXnnu7QwerPmWiMqWoD0a9i2j46aMK1edeuvhWPvtg2GVEyNai09pjULoWs+neaQSo28qk0/iu3TsxJSdK9p9aMznocuDxvpusZyNdUuv6TS976m2lPflmZfseBh7bpz9eFE2TLWKn6v2Go4UupxvL0G8QXz51Hp1xbjhBm0wh+fRqx+ymefUv2V56SlS50jhF1BfSez3bHOxJtVlVYWLZguXz1ivJ/BNPA6aKnQqmjtpafUeO15hSPFfoEnn/d+zx7YA4RSAECCUpa3hpS1QFqYmLFQ6lc79V9N3pn3971DdX09Kp9KulFTafYNNUt+S4QEjyZdN6sHD1b5EY0dv8XyVecerrsIpF6nfqmejNVNc+6iWtUolA5Y3fhm7970WzWFa96zesuOKDNzWqNveZ9m/u4vaPoDv6DW6XdoqXBM8828Sn4ENW0lOqU2TMPr3B+7+ev+htW/Bc16Mx1Kw4pHsPBdUZ/O+um5XnqtRJ98Xj4Jm3ouXdOwxd/C0qtas0BafuwBNV+34FG9gd8j3UxYRlsAC6WNaimE5Iy1J6+R1r61KZtfCOt+DNrqx0+8Ll5R5elH1LxsQT1c8KnHFXfDsu4n/+NAw0LpguoWSvP2eZOzZej35k3Xp10X6VRdueqKVp/6jhpXrA4qK/aW79fAwUAoBQAkxHuIKWWyeRVCKJ1WPd3+rmT7SGlHCKV9durCUYF2CaG02dDaxfPtUOodNO/IDroNHWf7wUPT6DGlRqbUzA7FbgVzPWz9O0fewhFS/65tzTrwXjehngdYu7m0+aJGZcPr9iQcmbRgWJhQduZNGn/7B3Xsw/9Qk+/7uN4Yu11vaEzLrYLqfjsXHzFa7/DQmVDnpaui16OZWomehzblYcRf88dYWefD9ClaHt/O9jwjD6RFFRYtkD72NbW+9Tnp4osWOpZstlUfYX3x9p0vWq9VCXXQsLZUtnZVVKpeVdZvS2L1EjZHVILNJrITNn6o3/Ytn3LWhquvPi29/MPO6cyd9hzqsjPjG1JHPr96OH23UfKb/jRDMG3vsbtd583Yp2W6qVSzpMb8a9ILj0vLfmug6PZXYZB2iduvxQGuE6EUAJCcVlrZ3LAKoxa4ckOqWShdP1IaL/2eAhmOLrWHTdtk8tZB1MVXFb8/6a4OMt4I8c6iL2yuoMxNt6pRaF+ZuBEuTby7HmW9XlFx8Ypacxetbgb89N1umy1m2PYWRtPDUnZSOn2vTv3ML+v2j/4Tjbz1fl1ITeqKn2absmAfjo5G7cyEafrzqMT1es3ZSFHwCeEnTGR3fDahZ2aBq1lRJlXWdL6i1KUXNfvgZ1X88p+rNXuuE0g9ePmwCQqr3Vl/D4nViurF1XBbGL+6877xaXf+GJBJ1ZVZvqyVRx9Sc9b39U57Xt9k+7gcvVg9VIorFkpXlfOLHXkoDfXTeX/PdOrA1tW/EZ1ZmdXik99Vy48U+1HSKJh385f2fFmA3SOUAgASYr+CLITmhsc1NHVMfgMFv4iPf1+yfaQ0VtY7mNvxjpo9pJqWQatq+hV3LXyFC354KPU+3EHokK0vY0rZ/LBO3HanMqOTqqctlIb167tCYrxurBOf8e/61azvviCtzre/e+fh/epMB1f3Iq5Xgz3xI5/ZMWnyVqXu81u9/KZG3v1RzU3fqdcaw1prFdQMR0et3fl0Nl3d6M1eA2w5Yox3r7qLL2yv1614QPZtGiZvISZV1WihppsKJVWf+5ZWH7Aw+ujXpJWLnQv4eFvuZzlulE69WChtlIqWpyvhIj++dmETdd6+Pj6FMJWr/C9Otv6ZTEut8pLKr5+RXvyhVLL2HB09vu757VZTjZrVQ7lk26qinP3cde7HHvD18yPFVgfplrL1NWUuv6zWc4+3Q3l3IO1RhW5vlwnYHf+8AAAgAdYlSueUH5vU2Mwplf17eqmMBQe/+u56d7YtOi1z/VzATYR+mP1jgzSaNVX8AkdLs+F7bu1QmlhPtX8bFjFtub2g4WM3qZ4fUc3rx1duiyrorV0nvv7hG5BVCw5+RWIP7eG7tn4UOX666QGwoQ5SSg+NavpN9+jun/hZ3fORf6DMm96pxdFTmk+Pay01ZIE+b8NF3/fsV3xj7LTSffju0iW87PPwum9YLq1pKFPTZLaswtIrWv3Wf1Ppwc+q8czfSvOvWMjx7eUXrxnEbWXrYe3Iw1irUlLOQ2Pnnb3RqT9/8CqzefnFjXJzr6v67GPSwgWrn+LVQNajuncl3hS2ZAPWqqoXV0Lxb8n7d7j3hbWDggVzv7BT+dwzkh8lDRd4stf6Xl5gMBBKAQA3xjWdRHvBgkJ+dFoj0ydVbfld9tLXBtIN+uhpNi22WUe/aWGrsjQvrS5YR61zpPRABS9b10xWqaEx5aZOqpTx+2jGjz/1U5z3Tts9VD8Y57E2498nnfWjbqWrIecgdWKjVVuXUnZoWDOn36Q3v+u9uvlt71RtZEIr1qZKLb8wVOzquhvqpodr3ooqps8KWp98VO9RMfEj3OvDtANpNlPXWLaikcpltV55XNXvfEErD/1X1Z592ALpq1Ldj4ANaiDtsEDYsLaVqvolpPxE/M6yXlOnO9Gpu+DqhHJ+u6eS7duvPa+m35c0nLLaVT/bzTc+6X70O3y9qtrqsqorCypYPfjtcXY+s23YuvnnXLZZUfPiOVXPPtH5Pm2nDvqo8z1eImBXCKUAgP0X7yB5Tyj0huzF3LAyo1PKjk21jwJagGitHw2NRoq6TtHP8fe6hFMgPba1lKpVVFu2UBodDbTOYTgqFY2+ySQSF1uuVK6g9OQx5Sy0F1MFVTr3vbx6xHir0tH11E8nzJVWpUsXOqc1Wwc23jvtGn2gbLZs9lr763V1y9klFVdX7Oe68mlbVwsvflK4WtZZ98cNK9uD1+01p0fH22CvBXDetjrDhUH8eVTM+qj+s4cU/+OJX6jHl7OqQnNFI8uvKnXmES099Bmtfv3P1XzFgsbqZdtOJRvcl91sNvsbYX0dNmFhrOUXOqqVlLd181uh+D1xtx1vJ7z6bNqFbFP1N86p8pIF0rnXrg2kke55d22WHetn/HpN9bUl1VYWww2Hoi8lbBQt2E4rxoYP+7/ty37XoeVZayfPSa8+3z6S7vWw00kCA4BQCgDYP5v0udov2a+g0Qm1xmfU8KOAno38u2LrgaBXzy+a4CYTDeP6aYNNZWplaXnBOmr2GHVYt+pIdmwxhxvDlzHMPK10fliF6RMqTJ1QJZUP9ygNq9Cr891TfG1sevbgl5LKeVAPoXSTi6EcNLYOflT8pUcf1oN/8Ud69ltfUWHxNZ1KFXUsXdRQc1WZVtmyjJ+q7N+f7dRfvHpCeOoUf2G9HfbLhu+EhVCn8en409D+fN5eahbYLLipqIl8RcczK0q//pTmHvhLzX32D9V65KsWtF5uX9DIgt5A3Ie0HxacW7WKLW8lXBU34+vd3Mtl93q1sJu2MF8vqnr2yfYRwrLt5y3/w9MN5uvVa92addXLq2qUljWUboTPo42htNM2QnHRY59s8JTNYzzTUPX8Cyqfe9Y+6y7bfEv2ps3nMOzTOHIIpQCA/bFtPyuloYlp5aeOqZpuf/Pqai+vu/TJO2OWvPxG8hkPXpf96rIeSg9Ip955NYQL32SUzY9YHc1Iw2OqZtq3y1kPOZ2jbZuXjpb/qs/YS1YvNmKqWlHTT2leW7T3/AiiD9MpB5atr4eSyryarz+j4tf+VOf++P/U4tf/WFOv/1A/kl3RHSMNTeZrVgcWmtbDqa10xuomqtdQsV5fVkLA7DzfrHjdhvrtei089+0UTdMr1+q6afNO1zWUr+ukLc8pLSh99hFd+dx/0tpf/K7qD39OesMCRtW2TSP2B4NoMgOvpVq1pFppLRwtVLhS9G7FV7xlu3dDw/mmilfOq/byM5I9Xr39SUKNOD7bsLktnFdKatlnUNba2sbTd7s3ZvQ8/tpWWkrZ9PIWdnPleaVfesrazDmrb/8uqc0nOlrfzV9OqHqAfvinJgAAN1ToG1kQGJ6cCUcBa1n/5lV0LMH/jTpx8dIH68T7RUWyFjiyHkrnL9mkvHMf7xQeAL6oqfaViUePn1Ilk1PVQmrdQo6vSRgg6tv2Veyf8H9LFQuka34rGL8ozKFiNeNHxCvLai6+qtqZx7T07S/owuf/UOc//5+18PjfaHTpvG7OrOrkUM0Cal2FdFWpEGj8NGYb14NjVMKp3j1K2Didcs1rvnVsXA+8Pj0rKQvBOZvPmM3v2EhLE60lZWbPavWxr2nu83+k5c/9Z9Ue+ZKa55+QFl+XysvhPp8ePNYne4DUymXVS0WrV6uD0O78ckexkL4e1GM/91VsFKvfdKuqoZpt4yceVvPCmfYpq6Gu23vGQLBlqVWKqtq+5t+v9W2Z2nZ9bbyer8dLmLjS6Za13YaW/Ujxa89LK53vkoY/vvVoMAesDeFoIpQCffBbgO+9AfstYYvT2vDLzNY6/LwHyxlNYg8mtVsb13EP3Ih18o5IVNa1t8/1lq6J3VjRrDN55camlbZSSeVUj97Y0NHfCR/PJptqKqeashZOwpV3kzyCct3813NW+ZEpjZ+8VcVWRhZTrgbS8GCPW5ZOBzU8toOW30Kjsbak6pyF9XDxpwHqyO8JX19bV1+34pyqb7yo5Wce1oJfNOhv/kJrD31apUe/HL63OTZ/Vica8zqVLWsqa6ExW1MhU1Mm7eHUj6J6sIyVKGxG70XvhwDrxZ5bSfkVYTN1DWfbR2ZnMmVN1uaUm31RtRe+o8Z3v6jag3+p0jc+rTULo9Xnvytdeklam7dJ+ndH67bZmgeuxQbW3uqVkq3Gmu3CDQtPvk9b8UAV9m8v0dP4a1uVSPsWMDkL+eULL6h55nFp4Q2rLz/qnXA7ji9mYPtZ2ULp8qJaVQvoYVXsn02L7e/rZ0FsUXxGFkhT1s7SFsbLzz2mxuVzUtWDubdHb/9hAYADh1AK9KPzId/+S6f/brBn11t8AsZ/dySuvSiBRZXOs7Z2cNn9Qg7CavpCtNenrXtddyralvH620+h1cTajttt+/HFv2Er0C2ad2FYqbFJNYbGVFJG9Vaq85W8Xaycje+n7qasc9/y01P9NNWDGEp9A2VyGhqf1LFTtyiTTSmfbWko07Sws5PS0FCnFCx0jeTqypeto7x0uRNKD2DdbCe0IWfr1rCQV5pT69JZ1Z98SIsPfUZzX/9TLX/jL1WzcJh95lsaeuWHyl96UcMrFzVanddIY1nDrVUNpyoatoDqtx0ZyTSsLi1ohrDZKevP/TYuVQ2lyypoTcNNG7+2oNzqBeUuv6j8K48r/fQ3VXvki1p+4M+0ZqX67c+q+ezfSlfOSmUPo34rEz/aZ9uie3Osr89B0FKzvKZWaVmZRllZ+RFC2w4hNHpphLAair/eR2kP53+yqlkgrapQWVTxqe+o6WGsvGSTtfeTbMK9to9tR7/gU3N1XqnqmvKpzsWOtl3vqJ42KxZGPZA2LfBeeUUt/z7t0kUb1dr5joO5L/iBalw45AilQB9S6ZT9IrAPb//89j6D/8K5zuLTaIea9mN7oslLp9Kdv2pftdvla69nZ3zvNCS1qt3zDR2Y3fdiQp1l/K/bnRf2Uq9pxl6L6vZ6i7dFewjPb8h28eper/IwY6VGx5UZn1azMNq5bYe97vvIrvhFjlqqrS5ZX9+Cl9/65KAGr1xWhZEhzYxlNaVVTbeWrCxqqlP8+XYlGnaqtaAJe5yszmlo+YK0fMmqxEJp6OwfwLrZjrdpW62U3x6oaevYLEu1ZWnhNemlH6r03a/q8hf/WC//2e/p5b/4D7r8wKdVfvwBZc9+T6MXntTk/BlNr7yq6fIbmqnPaqY5r5nGvNXpgqaa7eLPvUzW5zRpw40vv6LxuRc1cvFpZc5+V2uP/bXmvvqnuviZ39flT/++Vr/yp9KjX5fOP23179919osYWRgN94m1QOGb4cBvClsP2+fSpSUN1dc0nippyEohFAvtVoZCiV7rs6io4bRNq7GktIfRJ77dCWOd71EOWr35mR7VotIWSguNNU1mahqNr7etj1/kyos/77cMWRlLFTVSvqLiM99Vy79LanUdjhanrB467f7gtyMcRdYroOmu61ETFkXCo8WJ8C9usBvRWd5GPp/X6dtv0+/8zu/oQx/6kGZmjrU78rv06quv6t/9X/9On/rUpzQ/N99f89pNE+y1yD69zusf+NAH9C9+61/oV37lH6tQGLJsYJ25sJ7Xv65nzpzRv/7f/rX+5I//RJWSd4BNv5Pb43UdGh7S2+97u373d39X977tXo2MjHTeuX6ra6v64he/qE9+8pOqVWrtPzp062c9etVJbNuMjY3qn//mJ/Xbv/3buufue8J26TmvHfDt+9A3v6nf+73f02c+/Rk16h7c+tTvrKP1ig8fXrN/Uha47vxRnfrpX1f2vp/WbG5Gq+mcmuno+2cmjBeN7CPGi+s6MhBO+W1qPFNR/fyTKv3t56Vvf846yVfs5U7ntVuPdYmm7nq8vbfiM4vz+2oOT2rmznt1+kffq8vpYa2l8rZ2HrndzpYs1IzVT8E68dWzT6v0/A+kFasX79T799Aimy3PQdVdTb5+fjje6zcdlZyVvL005B8U0ui4ND5t5Xi4OnTO9r9soWCjpdVK+x912pNyrYZ/d7Cq5poFg5XFdlm1srasll/sx49Ge+gMR0FtH/PvN/uRvej09J1sxkHcNtfUr+27+Sndc//P6F3/6JOaP/FmXbEo5ZeXigb1e5d61/PqqJtVgndR7d2mX9xIKthmWrt8Xi994wsqf/lPLIzZ702/cFQIpT327c3spM77EW0Xn2703OvBYuTJu96h9//z31b9zh/TlfSIKimrB3uvaZ/f/u33SL9d8YwaSlnYX33pGZ3549+XXntKKnr/wU8530KPyccX+8i4WuWD50htiB5s2xBK43rutITSRA3AB0g6ndbI6LDef//7dettt2l42Dotu+TTXF1d1fe++12dOXtWVevUbGsvmt8W9Xni5Ande++9estb3qJMxn5xhiNp7RGuNwAtLi7qse8/prMvnrV+7w3uNHStq9f55NSkPvzhD+v48ePK5XK7CnZ+5Lxarercyy/rgQceCB2nDXY66e5t4+N3XvPt8Za3vkXvfOc7NT1tnWWz21CayaTDH0aefPIpvXzuZZudTa+fSe5kttE6xcfxNhUufJLV+H0f0Imf+nU13/IBXUqNq2zhwDts7RGtbFjHaGKd94KuNhU6+o3w/cDqM99S8aG/kp54SKpFndceC9/jJZ96j5f3T7Q6EZ+510Mmr+zwhPLjM6p5YLffR61QdztdQhs+zMP2aQtIreKShagFta/W6d9DCwO1dS/LYdFVXSHurKdLf7TOkNet/1EkY0E1ZwE1OxK2QSqbtSZr2yO0XR/26sS8Sfm9UcNtW8KtW6ydhVui2HOr25QNEEpnHA8jPn7X4vQvWuRB0b0ioSqHNHzydo3dfZ/qoyes7VqgD6G0vfDRN6PbI29XE2GCNpi1/nRTjdU5lV95Ts2LZ9pHmUMY3WQa113J18uX1WYaFtn/ySk3flwT97xTrenbrB6G1PQ2tqHduf4XNNSdrXdj/qJKZ5+2QHrFryxlk/A/dHQGcn1McudzPwTidTRojtSG6MG2DaE0rkdNEEoTNiAfIB5oxsfHNVQYap+uuUse9hqNhpaWllSpVK4NNAnI5rLh6KGXKIyuu87Fq9VrIXyXy/5L017wySa4qr7tpqamlM9ZR9P/9L6bZfHRLWiXbN2WFpc6L+4Tm5f/MWR0dDSE6XW7WH5ff98ua2trqpStE70f28an6aLp+s/etlK2DtZxPfX+j2nig7+s4h3v1mWNWafNA1cUSjcTJtJ+2h1KfUYpC6XpoqqPfkXFB/9Seun71olbsUE9JGyygnu93rsVVq+znuGInndkvW78tfjnT78LHtWXDR+OKvnROj+y4s9j04gGO+w6q+yr60+jxyB89lkJ4SHWHqPPxA0Dd3gdhnDk9eklOl28HcOi0n6lrXsSfekswsDzW+LkhqWRCfvFYo9hf+/VbuM1splO7YV2anXrR/ZLy1J11V7zOo+N33NSUaVtN589tL6drP1kCtLQmJQftabkn92d9QnDxJat38XzP7z5vlstSRWrg/U/LN3A9TvI1rfNADrqmzDsFoTSq3rUBKE0YYPyAcKmB3Yu1udaf+6d01TeOmvjuudjv6bMuz+mhRNv1Wx6VI3QcY13XnvxCUUT805pnP2cbmm0Mqv6w/9VlW99Rrr4vHVk/Xt71nHbakcetH18/bOvvb7hyF4QPdvJAq9PzMby8Tw4dR2tuzrI4bdZ1W2oA//haq273lUUdaI6Ew3h4Grdtqdy7Sy7f95W75kPJlu5UHNhX4+CfQ/hzIZtRNPq1Fgr7PNNq+YeXzfoObmo4vqY157zOvD5p+3B68DXJFqe63O1Zfkz3487Bf3ZXfXvrySa6CCxbbPdb38AAHYn3hEIv3j9t09e48duUm50QnXrsPm3zNYHjD3tn03YJ2t94GppRbXleam4bC93rmi6nR3P7wbwxbZlD/c4tE54uMVGOCXUS+dKntuUdCj1WPHX2/UxiKt8Q0Ttq7vErdd7u6Rjz6Of2yWq484wnZ5lfJJhM3aVHeletkFmK9de91a7XppVK+UNxS86FUqjsn1pVjrj+aOXmr3mbbg9u8FmC+ltwvfXUA++PrH1v47SnkbFcnnVHv0I6bWBNN72gIOEUAoAuDFCR9K6S370JDes/OS00oXhTiDtiPemdtizSqWaytqkG+XV9oVn/Mq73nELR1cORC/2qtji+tOo+JpExY8VbVWiYaK1j8aLJh09ogdre/E6i9dp7+Lf9muX9jdIN5YdN+aDqqveepXt3u8uvdpy/213Z0Pvh2gJ4uu0mxKtzWZrFc0POGgIpQCA/bFZzyiTk6ZOqJEfU90v4JOyjvtu++w+fquljB8J9EDqxS8440cSehxNOGiijma8bCcarrtD2+/4R16PNtm7TtNW4uGzVzl64m2tuwS9qqlH8eG3bbs9Xxwc8WXfqwIcNoRSAMD+ifeevJNp/6QyBeVP3KZ6YUJVZVW/3h6Wjxd1XgMPpXWlFuekFQuldT9117qz9OCoghssapYbmif2ljfqqAA48AilAIAbJ5VSOlvQxC13qDk8oVoqqw2n78Y7mDvqbLbvZZhr1SyUzob7RIaroB6Co6Q3BB37fUUwBYCtEUoBADdOKq10flgTJ25RMz9ioTSzMZS6nRz96AznU8j4d0r9AiB+pLS0aq8c9EDqa9WrXI9e04lKB8F0X8Vq+nDb6xWNN9UjU4nA0UMoBQDsn+5OZCan1Oi4chPTqqZzqvn38aJ7Q+5UbDSfRNZTVdnC6LKFUn8MR0rb7x8svlL+6zlawe4Svdef9o0ouqfRXbAT29WcN7t4icTH61UOjV4r112uV69pedlCn4MdOPH1Oozrh6OFUAoA2B8bekj+Q0bpwojyJ27WqJVadkjVlt8OZqe/irq6+jbplJ8W3KqrsnBZzeJC+6byPkw/vbTu5AC4vtvEdgN23RMW2CPd7Yp2hoOMUAoA2BseAOPlGhllCuMaOXaLNHFMJQullXD6bvyo4Fai973rZWX9x5b8npx+kaPS5fNqeCj1e/lt933SzmSuai/D1aOKSfGF8mXfqmxY8C15JAo32t+09D8ttEVNp11z/m+veo1Ke8j4OJsV7MIWu+xhruPDvG44WgilAIDd2yrDhd6SDZDOqzA6o6lb7lQ1P6qSn76byqqVikLpVqL3e3TB7KlPIWfBtHHldbXKS5YFavaKB4Kd8Hm0S/LBNAFHbHUBAIODUAoA2FftrGO/brIjyk/fpOnTd6uknKrKqGGBtH1/x+3EQmi3MLpNxYPowhWpUrQf/Vb7W4xzjWuX4UhltCO1sgCAQUMoBQDsj84BTc87KT91d3RahZNvUuHE7Sraz+EiR513+xOFTBver2zUtJ87L7WaDdVKa9LyolQt2wt+kaOr719js9cBHFk7+TQCsLcIpQCAfeX5r5XKavTmOzR2130q5idUakXfJb3OX0NRqPQepE2i0axpbeGKWn47mJqFUgupYaDuHmZYmPZTAAAwGAilAIB91fJfNWMzGrrtbuVvuUsLGlJFufbr16VzPMOPlraa8nibaVRUX7RQ6reDqZXs/djpu1EQJYwCADCQCKUAgP3hoTGVtd80wxq9+U6Nnv4RNaZOar6RVj1c4Kj7MOYO2fg+hawF0FytqNbcpfb9Sf27pX7l3SiExmfjz6MCAAAGAqEUALBPLPl5KB2a1vG73qnR2+5RKTemor3WSGUsM+4+GaZsKjk1lausSW+82v4+aXTqbhxBFACAgUUoBQDsAw+k9ismM6TCTXdr6u6/o/Sx27RmEbKeznYC6XWmxJQFTi/2f9oec626csVl6cJ5qV5tHyUFcOTxtyjg4CCUAgD2XieQZkaP68S7f0K65R6t5sZVbKXVsG5iOHU39Bavp8voR0HbJWujZxsVpVdmpSuvSw0PpZ23t3LN+90jtcJ/AABg/xFKAeCQ89gXlV42fS8+Yq8But9bH8Z+taRyFkiPafS++3Xs73xQS2OnNNvKqprOdIazwOe3bOk7+EUTj8Zr2ktNC6UNlRcvaeHVF2RP2t8n9fe2suks29NthdLvcgEAgN0ilALAEbFZzOo7fq2Hzk1EEwrfI53R0Ol7decHPqrS5M1azIyoaEHVv0u6/YT6EO5B2lAmVVdq6bLqF16SGiV7re5vtocBAAAHAqEUAA45j2jbxbSe70cjxstmovc8kA5PaeTO+3T8x39GKQumi9lRFdPRd0n9146H0p0G0/jM2wuTSrfUqKypfuU1tS69IjWL9rKF0q2WEwAADBxCKQAcMVEk7C8WxofujBF7epW9YMFThSmN3fF2HX/XhzXy9vdrNj+jZeVV87AajpJGofR6RTNvKZdpqbY8q+ql89L8RQulFXu5x5V3AQDAQCOUAsAREkW63cTCazOf/SrJDEmjJ5W/7e06+d6PaPJHP6S18Zs01yqoks6r5Rc+au3J3I2P39Jwui5dOa/6xXNSsfN90nDlXUIpAAAHCaEUAA67zpVuQxz0553H9rMuYaBOCaJTZe2l2G8Mfxom5Uc/M8MWSE9J97xPt37iN5V/90e1MHFaV5p5lVN+yq4NEwKpa0/vuoT18AVJ2fybGq4XlXnpWem1M52jpP59Um4HAwDAQUMoBYDDLlwUqPPc+NOmvdYzvkWZMTa8azVbNhl70YNhOqNmyo9+jkjDx5W9/T5Nf+gTevvHf0PpN/+YZgvHdCU6QuqBdGPKvT4+76YtcbOhTKuh8UJGy+dfUOWCBdLVeXvfj5J2LTQAADgQ/E/l/BaP9KgJ/3u8a98egKq64XbZj90zbHocYGE38jDZCW3hHqHhydWG3b2rbWzy9m4Yx49S5tpHRkcmpRO3auxNb9P43e9Q7vRblTp2WkvpERX9O6SKLmoU/e3Tx9/FjhSNGm4DU9dUtqylr/yh6o98Ua2Lz0m1VRumz4sc7WIxDq3uBoDBaSdsm/51bbOo6vrdlDsdHgfMIO9LR73R2bYhlMb1qAlCacIG5QOETY8DLOxGIVTaB3443daCpZ8GG448tr+DGd6OhVR7xf614sNlspYtreSGlB6bUeH4aRVO3q7UbXdr6I63KHPyDlWGp7XazKrSTKvp84hu/RIm6dNyu9iRwqhNpTNN5Vol5eZeUvHT/17NM9+TVi/ZWxUrfU5/F4txaEWbCFcNSjth2/Sva5vt9JNnDz6pMMgGeV866o3Otg2hNK5HTRBKEzYoHyBsehx49lmWzis7OqWp296sYjOlSqmsRqUsNfzUV79qrQdU/81gw4bSCaLDY8oMjyo9PqPsiVs1akF0+CYLpVM3qZwf06ryWmtmbDex4cNO2yn+EPYdf+J2sSNZYE6l6ipk6hoqz2rx25+XHvwLafasVF+1ATxgtwfdEvtyb9EmwlWD0lbYNv3r2mY7/eTZg08qDLJB3peOeqOzbUMojetRE4TShA3KBwibHoNsu/0kvO8Bc0KTt9+nD//Gv9TzxYZevzSr4sKsVF6RqpUwqNL2mZfJ2OA5K0OSBdHc9CmNHb9Jw1PHlRqZVD03rJIFwIoF26qVRssDrB8d9c9Lm9mO9pf4wO3P242v+XMvTeVSNY2l1jR88Tld+P/+d+nys7bs8xaqq2HIbe1ouY6YQfmsHSSD0l7YNv3r2mZR1fW7KXc6PA6YQd6Xjnqjs21DKI3rUROE0oQNygcImx6Dqt99JJWXJm7V5Ns/pA/82r/Uq/lJLbSyajTryjYrStujt/OUBctWun2abzOVVVU5NdIF1TN+r9Gc6srYODaoDRuKL0BYBvvnuvaT+EidUBtei173mfhR3Lomcjb3Ky9q+eEvqPE3fyWVrtjLxc77m7iuZTqC+m1HR8mgtB22Tf+6tllUdf1uyp0OjwNmkPelo97obNtEf5YGABw0O/oFm1Fh4pjGb/8RLWcmNN8Y1qLGtJCd1lz+hOaGbtJc4ZSu2PPZrJXMMc1lprWUmdRKakRrrYLKzaxqnSOjTfv10b6QkS2E3+7lun+h+kpEpRd/vaXhfErN1VmVXvyhGk9+RyovSA0/utvPObsAAGCQEUoB4CjI5pSfPKbhU6e1rCGtNHMq+X1EmwUVm8MWOke1plEVWx5A/Qq6Iyq1hlWxMFpt5VRvZtS08NmKAuie/1U3CqU24ZSXznMLnX613dFWSTr/jKpPPSJderlzhNSP7u75ggAAgBuMUAoAh50FydTQqHIzp5SbvkkrrWw4FbfpV9T1ixnZ81ZU0gX7zZC317z4VXpjV9JdL3stNs31px42G/ZLqqrRTE2tN15Q4+mH1XzpCamyZG9XrXCUFACAw4BQCgCHXkbZsWkVTtyi3NQJrTZSarbvAXO1+K1h1r8o6sV/jr3m4s/3THcgjabfVDpVVzZd0VB1ViuPfl2lZx6Wli7YW37ari9L+2F9FAAAcCARSgHgULOP+XRO+bEpDVkgbY1MaM1Cat1eb2c5D3fxVBelvF5lv3Xm06or1appKFPTtFY0+/CXVX3iW9LsK1JjzUJpzTMrAAA4JAilAHCo2cd8ZlgTx2/VyLGbteK3ccnk1Az3IY0dpQyB0H+Ov3Yj+HwtYfr3SANPm3WN5hsaLl/R/KNfVePbX5Aun5OqqxZK6+3BokVNYpEBAMCeIpQCwEEV5bjN+EWJ/GM+P6qR47epMHOTSn5Ll3TG3vKP/wFIdOsXNWrf9iXdqmgiX1d26TWtPfEt1R7+inTprFRatEFqNswmK+0v9yoAAGDgEUoB4CDbIniFA6GpjNKTJ5SduUUamVFFWbUslLaDoI18zam7OxUF2zDBnQmj+D8+36Yy6bpGMxVl5s+p+sRDKn/ny9K5zoWN/PYvm92P9HoWGwAADAxCKQAcJp2Ath4TLZQOnbpDmr5Z5eyIavJA2gmC4eq1XuKpbicJL8yh87g+xx58mlExPv/1wf2CRg3l0zWNpEoaXnpVpR88oOLDX5Ce/55UnO8EUlvO+GTiBQAAHGiEUgA4TKJc6GHNw1+moJnTd4UjpeVUQfVwSm80kIs/34EwnUi/6TAaJxreL2hUVt7C6GSmpOnSG1p44K9U/qYF0leelmrLIZCmmjZsP5MHAAAHEqEUAA4hz4xNPyo6OqHM9ClVC+NaU1YNf2095EUh0R/jIXMbPvH1wX1CXuJHXaMS8V81XjojNRtWqkqla5oalSZqc1r7/td04VP/RvVHviRdfkmq+EWNamEyLX5TAQBwqPGrHgAOsk2zZFqp7JDyx25SfuaU6kNjKlsgvXrV3e6yAz0H737Rfo4mHS5m5IG1bj9WlcvWNDHcDLd7abz8uJa/9TlVHvys6i8+qtbia1LZj5BWbXgfr/0AAAAOL0IpABxU3Tlwnb+RVSo3rLGTp5WeOKZqrqCKvd70QBoubhSNvOlEthBPiT6+T9Meoqv9RkdF/efwvdWG/VhTPlvXeK6qicaCUheeVv27X1L5bz6t8ne+qMZLP5BWL1tuLdk4foS08x1SRygFAOBQI5QCwKFjYTCdVSY3ouO33KH0yKiqqbRqITt6wvPAt8uk5/kzLhx9dSGdWmnaIHXlUg0NZeoaSVdUqM0rO3dWqRceUenhz2nl63+u6ne/Ir3ylFSctVEqYbwNwmJ2zwwAABwmKftvlz2TQ6RHTaQ6ub3dkaOqbrhB6Yuy6TGo4lnQhZ/tcyszouETb9L9v/Y/af72H9OFoVNaSA2pkcraoPa+f6/UBw73K20/7dnOr9kHoxfs0YcPk7F/wvhNm7KH0YY91v2OqBpKN5RvlZUrLWjltTNafu5x6bkfSG+clarL7SOjve4/uv5jNL+u97G3rtnOGJgmx7bpX9c22+mnB582h9wg70tHvdHZtiGUxvWoCUJpwgblA4RNj4PC9xm/N2lhQpN33qdf+lf/q16bvEPnWqO6XM+o2Ey3bwvTDAN2ijXwnXzEheFsvCjQpu2FdFMZm+xQpqXxnFRoFNVcuqTihXNaeuV5NZ9+TK0LL6m1tmBh1C9iVLbpWBhtdh0Zdf0uB/aONwNsNCjtkG3Tv65tFlVdv5typ8PjgBnkfemoNzrbNoTSuB41QShN2KB8gLDpcVD4PuNhMTOs3NTNuvndP6HiqbvUuulO5U+eVn5iRq38sBqtbLjokR/X9O+Ztux5w9p5a8OtXqLPvqv83bQNn7Lh/NdHKhwdrVuxgFkvaeXKG6q/cV66dF6t2dfUuHxejcXLai1dbl/AqO73HG2E8VItPlkHxqB81g6SQWmYbJv+dW2zqOr63ZQ7HR4HzCDvS0e90dm2IZTG9agJQmnCBuUDhE2Pg8S/35nKStkRZSZPqDU2o+zkceWnTig7MS0NjdlrU2oNjSo9bMMMjSg7NGxBNq9mOm2j+6+G8BsiPA+ffuF0Xw+h9pqFynq1qmpxTc3iqlJrS0qtLqhVWlJ5/rLqi7Nq2c8qLkklC6I1P0W3KjXrPiErNh1fzDDFdkHCfGNgo0FpmGyb/nVts6jq+t2UOx0eB8wg70tHvdHZtiGUxvWoCUJpwgblA4RNj4PGg2n4/MrYg5UQUvNS3sJnfkgat3A6PK6MhdKch9JhC6i5glrprFJpH9d+PXg4zdg0rP23/DTbcHEk+zSs11WvFFWxUNpYs9C5auHTQ6jfW9Revxo+20dE7QUb1R99QvZgol2bXWtADMpn7SAZlMbJtulf1zbb6ecMn0uH3CDvS0e90dm2IZTG9agJQmnCBuUDhE2PQ8E+z/zUXg+pspAawmr0mv3swTXtP/uO19n5QkA1Hkg7oTR8D7RhwTOEz0bn0S9W1AmjzgaLTYVP0EEXbShcNSgNlm3Tv65tFv/86cdOh8cBM8j70lFvdLZtCKVxPWqCUJqwQfkAYdPjAPPdaEMTXg+d4bfA1Z/Xv08aPW7C3w4h1Y+Gdo6AxuYQHzt6vnEIDJxtNvmRNCgNlm3Tv65tFv/86cdOh8cBM8j70lFvdLZtCKVxPWqCUJqwQfkAYdPjAPPdKN6E/VMt+rm9i/mvgu13t+h9H79hpf1z+9Oxc3w02Gx3YTcaYNtt/KNoUBos26Z/Xdssqrp+N+VOh8cBM8j70lFvdLZtCKVxPWqCUJqwQfkAYdPjEIjvTlGTjl7zx353Nx+ue5eIf0L2s7tE8+pnWNwA/W78o2RQGifbpn9d22ynnzN8Lh1yg7wvHfVGZ9uGUBrXoyYIpQkblA8QNj0Ogfju1N2kd7ur7XQXiebHrjUgBuWzdpAMSuNk2/Sva5vt9HOGz6VDbpD3paPe6GzbtBMXAODQ2+p3nr+3m7IT9LEBAEAcoRQAsCMeKrtLv6JhdzIOAAA43AilAIAbbqdHVwEAwOFFKAWAI+R6TrftFk0jXvp1veMBAIDDi1AKAAAAAEgMoRQAAAAAkBhCKQAAAAAgMYRSAAAAAEBiCKUAAAAAgMQQSgEAAAAAiSGUAgAAAAASQygFAAAAACSGUAoAAAAASEzK/mt1nqNHTaQ6ub0V3tyHqkp1Ho8yWuDgGpT2SRsBBs9h//01KJ879BP617XNoqrrd1PudHgcMIO8Lx31RmfbhiOlAAAAAIDEEEoBAAAAAIkhlAIAAAAAEkMoBQAAAAAkhlAKAAAAAEgMoRQAAAAAkBhCKQAAAAAgMdynNK5HTXCf0huAFji4BqV90kawFT5H2UcGGZ+jADYTfT4c9f3T6oEjpQAAAACAxBBKAQAAAACJIZQCAAAAABJDKAUAAAAAJIZQCgAAAABIDKEUAAAAAJAYQikAAAAAIDGEUgAAAABAYgilAAAAAIDEEEoBAAAAAIkhlAIAAAAAEkMoBQAAAAAkhlAKAAAAAEgMoRQAAAAAkBhCKQAAAAAgMYRSAAAAAEBiCKUAAAAAgMQQSgEAAAAAiSGUAgAAAAASQygFAAAAACSGUAoAAAAASAyhFAAAAACQGEIpkpfqPPaQ6vyHI442AgAAcGgRSjEYNs0U/kZUcKRt2QQIpgAAAAcVoRTAAUcYBQAAOMgIpQAAAACAxBBKAQAAAACJIZQCAAAAABJDKAUAAAAAJIZQCgAAAABIDKEUAICDbouLUHMvXwS0EQADjFAKAMBhsGmm8DeigiNtyyZAMAWQHEIpAADAkUYYBZAsQikAAAAAIDGEUgAAAABAYgilAAAAAIDEEEoBAAAAAIkhlAIAAAAAEkMoBQAAAAAkhlAKAAAAAEgMoRSDodV5vIa/sembOEpoIwAAAIcSoRTJ2yJPtNbfJHQcaX20kattBQAAAAcJoRQDj7CB7dBGAAAADi5CKQAAAAAgMYRSAAAAAEBiCKUAAAAAgMQQSgEAAAAAiSGUAgAAAAASQygFAOAw2PQi1P4GV6iGoY0AGFCEUgAADrot8gT3e0bQRxvh9loAkkIoBQDgkCNsYDu0EQBJIpQCAAAAABJDKAUAAAAAJIZQCgAAAABIDKEUAAAAAJAYQikAAAAAIDGEUgAAAABAYgilAAAAAIDEEEoBAAAAAIkhlAIAAAAAEkMoBQAAAAAkhlCK5KU6jz2kOv/hiKONAAAAHFqEUhwAHjgIHUfelk2AYAoAAHBQEUoxGDbNEwQNbIc2AgAAcJARSgEAAAAAiSGUAgAAAAASQygFAAAAACSGUAoAAAAASAyhFAAAAACQGEIpAAAH3RYXoeZevghoIwAGGKEUAIBDzwMHoePI27IJEEwBJIdQCgDAYbBpniBoYDu0EQDJIpQCAAAAABJDKAUAAAAAJIZQCgAAAABIDKEUAAAAAJAYQikAAAAAIDGEUgAAAABAYgilAAAAAIDEEEoxGFqdx2ts+gbQQRsBAAA4yAilOAA8dBA8jrwtm0Ar/AcAAICDh1CK5G2RJdpRg7Bx5NFGAAAADi1CKQAAAAAgMYRSAAAAAEBiCKUAAAAAgMQQSgEAAAAAiSGUAgAAAAASQygFAOAw2PQi1FydGtuhjQBIFqEUAIBDz0MHwePI27IJcHstAMkhlAIAcNBtkSW4ly8C2giAAUYoBQAAAAAkhlAKAAAAAEgMoRQAAAAAkBhCKQAAAAAgMYRSAAAAAEBiCKUAAAAAgMQQSgEAAAAAiSGUAgAAAAASQygFAAAAACSGUAoAAAAASAyhFAMvZf8BW6GNAAAAHFyEUiRvizxxNWwQOo60PtoIwRQAAOBgIpRiMGyaJ/wNwgYMbQQAAOBQIpQCAAAAABJDKAUAAAAAJIZQCgAAAABIDKEUAAAAAJAYQikAAAAAIDGEUgAADjlumYTt0EYAJIlQCgDAQbdFnuB+zwj6aCMEUwBJIZQCAHAYbJon/A3CBgxtBMCAIpQCAAAAABJDKAUAAAAAJIZQCgAAAABIDKEUAAAAAJAYQikAAAAAIDGEUgAAAABAYgilAAAAAIDEEEoBHHCtziMAAAAOIkIpBsOmucLfiAqOtC2bQCv8BwAAgIOHUIrkbZEl2lGDsHHk0UYAAAAOLUIpAAAAACAxhFIAAAAAQGIIpQAAAACAxBBKAQAAAACJIZQCAAAAABJDKAUAADjSuII5gGQRSgEAOAw2zRX+RlRwpG3ZBLi9FoDkEEoBADjotsgS3MsXAW0EwAAjlAIAAAAAEkMoBQAAAAAkhlAKAAAAAEgMoRQAAAAAkBhCKQAAAAAgMYRSAAAAAEBiCKUAAAAAgMQQSgEAAAAAiSGUAgAAAAASQygFAAAAACSGUAoAAAAASAyhFMlLdR57SHX+wxHXRxuhnQAAABxMhFIMhk3zhL8RFRxp27YRAAAAHESEUgAAAABAYgilAAAAAIDEEEoBAAAAAIkhlAIAAAAAEiL9/2NdXQeeIAI1AAAAAElFTkSuQmCC;" vertex="1" parent="1">
          <mxGeometry x="580" y="840" width="120" height="68.04" as="geometry" />
        </mxCell>
        <mxCell id="rhl6Vlfjw6nyRb7RvXe1-30" value="FastAPI Model Serving" style="shape=image;verticalLabelPosition=bottom;labelBackgroundColor=default;verticalAlign=top;aspect=fixed;imageAspect=0;image=data:image/png,iVBORw0KGgoAAAANSUhEUgAAAgAAAAIACAMAAADDpiTIAAAAV1BMVEVMaXEAl4cCl4cCl4kEl4cClYkClYcElYcAj48El4cAlYsCl4kClYcCl4kEl4kEl4kElYkElYkClYkCl4kEl4kClYkCl4kEl4sClYkCl4kEl4kClYkEl4mtLhB+AAAAHHRSTlMAIKHxQO9ggRDBMN/hUL/Rz5GxcH6frz5uXo9O0/0UAAAAAAlwSFlzAAALEwAACxMBAJqcGAAAET1JREFUeNrtndt2qzoMRQ0DMLfkAA0tbfz/33nG7mXvXtI2EANa0tJjn+poMm3JxjhnJOqH6XQ8duH3OB7H0+ND4hhKEv94Go95mB/d8el0JgiYUT48nE7j8RhixPH4dJoeav6qGPEwjXHy/iWa+9O55A8s2vfTfVg5uidCINP5j6dFM/0iCMaJawM5kZyfNkv9h6XB0yMp2F/6T13YMZqnM3OwZ/absHvkIxnYw/sPj6OA7L8ycH96eGBOtkv+dJ8HeXH/yPJgi+X+YxekRj6yW7RynMcgO5qJlcGKa748AETzRA+sMfE/NQEmyED0ZV8XwKI5cS6Ituy7D5BxZFkQIbIxD7DBsuDWeOwCeHTUwHL3n/KgIPIxYy6XLPzGoCaaR+Zz7tR/DKqimTgTmJr6L8wEJyJw5dQ/NUFlEAFDKz8iwPQTgQVzv/L0E4Gf098EE0EETKefCJhPPxH42vYxln4ioLrrdz0CzP2fnr/R9HOP4KXwH4PpaA6283/Kg/U4Gj46ZnHtx6XAv8n/nsl/ic7kiZGJ9v8XT+ZKQstr/4uLwYyPv/G4NySBumO+LywGrVSEychkW5bAiYm2LAHa37YEuPgzLYGSrR/TEqjZ+TXdE5iYWsuNQep/1u5ATf3vG206tLuuBSfqf89I//zTA9eCVvXfPv/bfue1oJppAK/5U0gAIAQl00AB1/zJX+x7x5ZAjADc+vEv/3nGaiDC9I/Y+0/EABDyAjv/GWLvP3VyAAjhidXfTgIQAkA4wi4EQF/6SJ0sAGAXAgno1n8iDYCQQ+4O1aBb/6kTB8BbYwKr+kfdh0kkAoC3FITNf+pEAhBGdn+2FoAsAEJXMv/bCkAYAEAElMCvfSVyAYApB0vgk9+pEwxAyCEISJBP/ieiAYAgoEY++Z862QAAtISg8/9RABIBEN8Sws5/6uQDIJsA7Px/EoBQACQTAJ7/1EEAIJcA8Px/FoBYAKQSgJ7/1KEAIJMA9Px/EYBgACQSAJ//1AEBII8A+Px/FYBoAKQRUMLn3zssAIKonmAJf/NPXqIBIGlfAD//lwTgykACrOQ/v3jYIpCAq0LB3R/eAQIQGhlnhBRc/HlZAOIBkHFKTMPFr5cFIB8ACQQUQa0AAADYnwAN+f9OAAgA7P2+QBYUCwACgNCzAbyWADAA2LMpXKq4+rt12ADs2BTWcfV7gQ7Abg0hHV/++F4AKADs1RDyQbkAYADYpxgsgnYB4ACwRzFY5+oFAATA9sVg2egXABIAYesvzWj58GehBYCNS4E+GBAAFADbLgSVLAB/66FgjWXkAnB2VE4RAOGOC8DITVRlw+ERsJkCgAMg32YZcBeMCAAOgNBtsgAIVgSAB8D3O9tcACyZMjWOiQuA6wWACMDqG4NqOgDXPCyIoxrZAbgyUqcSgJU3BTo9AkiUApAnK+bfB0sCwAQgHFkBRhIAKAAr1oKdLQGgAhBqTgBRBAALQMcJIIoAYAFYaV+wsyYAXABWqQQ0TQBXHqHEHeAKlUCiKP/XbpsCDzH+C4NHRQBcWycZYNzgIYAZPw7yIO8jbwLnBgUADUDkjeF7iwLABiDqxvAhWBSAszJOS6eAZi2PwAcarxnQ2xQAOABXtjuviExT/ltnBoBo60BNPeBZHRL0sUbaFCqsCsCZot1GC2DeT2JpwWtjE2ieAPABiHFxSGJXAAoACLeXgqldAWgA4OZSUNMu8OxFkYYhZxTAv6icPQCOFMDypyFQAUfLAtABwE0KyEwLQAcAN70saFsASgBoKIClk6HN2ocC0AZAQwEsXA1rGfodBbBIAGoAyCmAZW/Mqhl8QQEs6omrGX1DASSmAVikgNS8ABQBsEABCQWgCIAFCqAAVAHQUAC2AZitAApAGQAzFaDrKHBCAOZ2Qj0FoA2AeecCNAlg+eH4YFYBql4GWv6adDCrgI4C0AfADAVkFIBGAIarBz5QABoBuLoaSigAnQCkBptAN70fG2wqwOaVcCYASM01gW57QV4dAOGqn6OhANQCcM3xUE13ArYlAfgQlbEa8MY7cvQBkNuqAVtHAGbXAXcUgGYAfv9JOgpAMwBHSzNAQQDmzwE9BaAbgN5OE6AgAPPrgJoCUA7AL8+FohngQAAWLAP1zACVIwDzl4GKZoCMACxYBvYUgH4AGhMzQEYAvo3awGHQKALQCkBq4CxYRgCWtAJyCsACAN/OAQcKwAYAvfYaIJIA1ALQaa8BEgKw5AdS0wWK9sVMtQAcdJ8FSgjAokXAQAFYAaBTXQQmBODXKBUvAeIJQDEAmeIlQEIAli0CUgrADgCd3i5AQgCW/UxKlgDeEYBlv5OOJUCU76VbAKBR+kZQVAFoBuBLMzChAGwBkKqcAeIKQDUAjcYZILIAVAPwqRmYUADWAMj0HQaKLQDdANzpuxkstgBU3Zn+y6+lYSu4jS0AV2kGoFI31MIRgMVlgIIioHUEYFZoW+4UBGB5GVBTAPYAuNNVBRYEYGakqqrANQSgHIBG1UjXEICmC3MuRaJoDbiKAHR9PfGnhwZ/DZgRgFsWAfB7wdUq+Xd1FS1kLwJSCmCbqLPiP4mLgI4C2CwkbbwftKwBMyAAJFVcXsndUEgCELWyfPuUaEEBbBiCmguNjmoHSwCimm46+oBYAigF/nTYbwUOjkuAG8sANR1thCpQ1DlDr6ARnGIJIBX442UUwHatQInr5zsKYLM4StwN8BTAViFOtvDvBFAAt0WJ3gagACI0AnIKwKoAXgCgAMwK4LkRAPxmeE8BRAAAtw0Q/XVwcwJ4foRwAfBYApC45VIhtwHABCDy1AU0ABRAnFZgSgGYFcBzK7CiAMwKABkACiBWLzinAOwK4E8rkAIwLABcACiAWABgHghrHQUQJQrQRmBBAcQyaUYBGBZA8JjvhVEA8QDwFIBhAYACQAFEiwERAAogXlSIe0EUQEwAKgrAsAAgAaAAbANQUQC2AcgogIjRwF0RRwHEDUcBWBYAHgBgApDfZXEUwIpR5gSAAiAAFAABoAAIAAVAAG4N3glpHICEAjANQEoB2AaAArANAAWwCgAVBWBZAEAAUADGAaAAbANAARgHgAJYCQCQL2T3FMBKAGD8q2D3QeAIoAUBwFMA60SF8b9SAOsBkFEAhgUAAgAFYBwACmDF9kpCARgWwJ9niwIwLAAIACiAFePOuVb6/1hQAOtFJv+yaLD7ILAEgAAABbDqVoCTvhtEAawNgKcA7ArgP/EfD6cAVm4ESv9sHAWwaoj/bmBFAazfYxNepVAAa/++FIBZAbwA8B8FYFUA4fnfrigAqwJ4AUDuddE1BbDFEyb2/04pgE0AEHuZZUIBbFEFim0EeApgm5+4lNumpgA2qbJYAhoVwNtvLLIObCmA9eP1sN0gdZuCAtiiDSAU3gMFsHp0r//8gUsAmwJ4u3izJgAmBfCv0CYAJgUQzm//v8Qy4J4C2K7VKvJgcDueTg+vkVAAK0T+dwDnYCa6AwXwFv922xM7AKyxwwAqgPetlpYA2BPA+xPXAwGwJ4D32+2eANgTQP5uDBkBsCeA9ycuSwJgTgAff4mcAFgTwMdea0UArAkglATAtAC6D+PoCYA1AXw8dF8QAGMC+PTifU0AjAng81sXOQGwJYDPh25TAmBLAOOnoRwIgCkBfL17hwCYEsDXFy8HAmBJAF/fuykIgCUBjF9xJgCGBHDp+r2OANgRwKW7FzwBsCOAS6/engmAHQGMFwaUEQAzArh8Ay8BMCOAy9cvVQTAigC6i2OaTAAwUgDf3b5h4/2gigJ491qwwW5wRQH8vRrGWdwRrCiAvzeDfImcAJgQwPTduFICYEEA39/BmxEACwLovh9ZTgAMCGD6fmgpAdAvgJ9uYT8QAP0C6H4aHAHQL4C7nwY3EADtAvj5OxwFAdAugJ9/gJIAaBfALx/jHQiAbgHk5c/jKwiAbgH89im2kgCoFsDvl3APBECzAH7/Es+ZAGgWwBUn4loCoFcA13yM0xMAvb/NNV/jLQmAXgFc9R2WkQBoFcB1H2NMCIBWAUzXDTQlADoF8FsX0IQCKsMCSK8daksAVJZH9bVDHQmARgFcP/SaAGgUwIxvcVYEQJ8A2hmjPRMAfQIo5gy3JQDaBJDPGm9BALQJYObNGC0B0CWAUFojPioA+D9Hag/5iAAo+DUSe8xHBMCeAPQqoKIAbCugMimA0Sb2kQCwKQCtClgAwB38oAertW8cABr4QWdWu19RACgsQq9XAZVBAdQLAVCpgMqeANKl+VepgMqeAJLFAGhUQGVOALfcj1625gEwLQCN5wIqrgBsnwuoKIBZcbYNAL4Abv5ETmUaAHgB5OWtAGSWAaAA9F0aVJkSQHt7/l2SmwUAXwBFBACUdYMqSwLoYuRfWTeosiSALAoAukrBypAA4nwiT1kpWBkSQBILgNokAPACiPWdbOdcrweA3owA2jIeAIrWgd6MADIXMc7mAIAXwOCixmANAHQB5GVcANT0A70RARxc5LizBQC6AAYXPTpLAKALIPYEoKgZ4E0I4OxWCG8HAHQBDG6V6MwAAC6ANSYANZOANyCAg1spvBEAwAUwuNWiMwEAuADWmgCeJ4HcAgDgAji7FWMyAAC4AHq3agz6AcAWQFuuCwD8G+NeuQBqt3IctAPQKBec9dNBXrUAuvXz78pONQBH6Aow2QAA8FrQa34V8uA2iYNiAKAFkLqNolcLALQA1q4AdbSEvV4B1JvlH/mEoFcrgMltGAedACALYHCbxqQRAGQBdOW2AMB+Y97rFEBeb5x/2H6Q1ymAwm0eoAtBr1IA3u0QmbKfClgAqdslCl0A4ApgdDtFrwkAXAFsXgBAlwJenQDy/fKPWAp4bQLYvgD8QECrBQBYARRu14A7HOCVCWDn/OMR4HUJwLvdo9Dwi6EKIHWOBMQAAFQAo3MkIAYAGZ9/M+0Ar0cAOzaAPseIDUDC/NtxgNdytkFU/oEc4JUIQFj+cZ4ir0MA4vIP4wCvQgAC84+yMeQ1CEBi/lEI8AoEIDP/IM+SxxeA2PxDrAM8vAAE5x/hcfLoAhCdfwAHeHABCM+//CdqwhaA+PyLv082gxZAJT//0neHM2QBpA4iChgASqz8jw4kJJ8TzICmq0/RO0cCogKAde1p4YAi6RAAQBJADpV/58pBPgBIAtj3/R9NDYEMUgAtXv6lFgMZogC60iHGORcNAI4AUgcadSsZABgBTA42ykouACivs+SZQ45eLAAgL7Z3tcOOQphp3/4vkLtOh9Khh7CFwNu/VUHk3zsFIWshgCQA8OlfZsflIH676m9UpdMSmZzf+/mrChlC/nunKAS9M9BkyQlB/2enK8C/Nkf9a5oG2PxjNcDmj/VqQPLqr3Rao26ZXjPF/+VpYGSG1fd+AQ8JsPjbUgIp82z28X+JZGCqrT7+nAfMP/6v8wAl8HmPInO24syK0Ejt/60EuDugv/X3y2KQveGXxZ93VoPzwJ+Nv8QZDm+9HmgLZztsLwVyXzrzkaRMv/GoK6bfeGQV028dgY7pNx5Fy/QTAaafCDD9REBv24fpvwIBtRWB+a6f7aKQ6Z+DgLoDIx3Tb7lBXGXM6PxtIq9lPZgy/YbXg3maMJE37BOlOfjUz7rv1pmg6HAf/pr5s6uBduLDH1EDaKuBngu/2HUhUFEwcOZfZyroW4B5f+KzvyYDk+gl4XBmitafC4ohF/rws+LfKs7SJoO86vnwbyyCScqGUdefuebbJ7J+9xXBMNH7+3YIzv1uLYJ25KMvpTZIu83n/IKPvrD5YCMK2sFnfPClTgiZr/I1n3t/5nMvvz7I/Bgbg67yE597sCnh7Mfq5nZBNfgp41MP7YPC+6GqZj7wVe+njF19ZQuEVxae44MbXv82eF9ktp73/wFm9NNDANs+0QAAAABJRU5ErkJggg==;" vertex="1" parent="1">
          <mxGeometry x="283.02" y="790" width="103.96" height="103.96" as="geometry" />
        </mxCell>
        <mxCell id="rhl6Vlfjw6nyRb7RvXe1-31" value="Docker containers for each process being orchestrated by Airflow" style="swimlane;whiteSpace=wrap;html=1;" vertex="1" parent="1">
          <mxGeometry y="130" width="730" height="880" as="geometry" />
        </mxCell>
        <mxCell id="rhl6Vlfjw6nyRb7RvXe1-32" value="Airflow Orchestrated" style="shape=image;verticalLabelPosition=bottom;labelBackgroundColor=default;verticalAlign=top;aspect=fixed;imageAspect=0;image=data:image/png,iVBORw0KGgoAAAANSUhEUgAAAgAAAAIACAMAAADDpiTIAAADAFBMVEVMaXEAt1roOiEArUX9bU8AsOkAfe0Aypr+LhbkOCAAofAC0FUArUUAx9UAx9QAtEUAfvEAe+7oOyMAyNQAe+8Af/bkOCDoPCMArUQBytjtOBzlOCAAe+4AuUHpPyYAwOQAgPEAe+8CzFPkOCAAe+8Ax9QAtEcAfO8Ar0UAx9UAeP3kNyDkOCAAx9QAx9QAfPAArkQGofkArUUBy9nmOiICzNkL2ecI1d8BytlMaXHlOCAAe+8Ae+4AydUAx9UAe+/qQinlOB/7aEsArUQArUUAfvAAx9XmPCMAe+8ArUQJrf0ArUXpQCcArUXbPioAe+4Ar0bkOCABytgAsk0AyNUArUQCxNwAyNUArkQBu0wAx9UAskcArUUAeu8BxNwAe+8CiPLxSSsArUUAt0kAydYNr/vrPiUArUUElfYBzNgCzVQAycLlOCAM2OX2X0MAffAHpfsAx9UMq/oAx9QDlfgArUXlOCAGoPkJ0ucAskgAu0rnMxsAwEwAr0X3YUQK2ebSSjoAsEQByFEK2OYK0t8CkfUAtUgO3esL2ub1Wz8Aj/UCylL1XkH5ZUn5ZUgJvvAGovruYkf1X0IGovr4Y0b5ZEgCy1IM2+dGi70K1+dMaXEAfO/lOCAAx9UArUb/dFYQ4e8Mt/8E11hKSEgC1VcH1eIKsv4BzNkP4e0M3OjyVTrpQikO3+oAtkz+cVMCifIBwU4Cx1AIp/sDwHj5ZkkC0l4Ct2XuTDLlOyMSwcsBm7y/S0IM184GmfcAht7tel8GxI2QmY4K0LcKtv8Af+8Ek/YCtY98dIwAvEuuW1kIyaCYZG4+s7YCy2vCiXQCvIZClsZfqaarkYAAsUY2Z1QZwMP5dllFU1QhqekAjdJrpJ8xoNhZibAqscwAr0YBp6kCg/EVr/KNa3oAkcwEj/VRrax4mZclp+Ueo6sCrZ0afsDUhGs2VHAyeX4WnUwCrpoUxrFve5jffmaDVkxmREAKza8ycI1wRD4CsZZsfJ0ockYoXpGFQjgCrZ8Cq6FsUEpl8oCqAAAAm3RSTlMAFSzw/gz+AgT0BP7b9ugnJPZW/dYW20j6QhDF4ws6FTZN/eeU3D/vTcQKif2i0Wtz/v4pbln++xsAqsW5c65dYaH2rR9AjZR6Z/7DeLj+r4K/N/2BziNiM6CYkY3+Z4aYGFn7TfshnX1R7Da12vul0u/yuEzm0Ox8nl4bcl20oPk3xI/xYL/0u30o14rj3K6kmZy5ztXfwYtmACRNwT0AAAAJcEhZcwAACxMAAAsTAQCanBgAACAASURBVHja7X0JtBzVeeYToCr0xCY12kCIRYAEKpB4CKGSwaCwCLGDwGCgICasNmbxgnOCGYMzHDzYmUPiSTI+Vd3vdbvUapBYRUOB2BuzGss29osBj1gsTDzOcuzEiZ2Zk5lT+//fpbqqu5Zbrb6S9fr1637vmf+7//3+7bsj6nDt0Gtk+J9gCAB1p9WzDWPawoWzb7113/OCdcMNq1avXrNmyZIzly8/8cSZM+csWLDTbfsM/5MNxJp6zEWfCgCw0zTFsBTFUCzFIJdiL/uj4X9t2sLZ+553wyobHEuWLFl+4sw5C3a6ZoiLcq3jq9Vq9Yuf8gBwq6JYhmUolm1oi/zrwMD9133KfbVh40IJETNt9r43rF5y5okzh3AQf32y6qw9VjoAWOBZ2V6WYSnhX+85xXva/4L/pPOQeLELCWvawtm3nrdqzZLlM+fsdNvwP7ho9q+4AKhc4gDgTCXc+OgMgD7ACI4A99UG+ALpLmxYQDgYC2+9YfWZJ87ZaegZRFjyEVV/HeIAYHm48Q3sAPBz4UcXHdAhuK8ywOfwGzoMwz0nzlu9ZPmcBZ8ZmqE4+19SDZcDgGvAlocb2rV08Bzx0Qg/9ze/FToI+3PFMixIJ70vO9Rh2ux9Vy9ZPnPBbbsOLZLzgvavuCRwjb/lFbCh/W2swFOf8dFyXQPc7t5jx+iIUfh+xOcUdoQx+4Y1y+fsNMRBIfbf3csD3GAE+1UhznQLnvqcj561LcAULEgVfIeCHA1mFtbC81afOXPBkCRkvU6twnWLnwm8IdyvMBAAzxlRH10/oQCiYACqEBwBmFsAZhGkHIyF+646c+ZOQzvlY/9KAAB1VbipiSgA0X/2x5AsKOBzg3QBBuIW3tNEtOF6jmm3rjpz5jXDYyH1dUEVrz0CAOy6ymKkART0HPeju7uNIF1g+Hscvp1w/RbIO4BoI6QeijFt3zUnDslB6vk/6AH2AMWg1SCMD3cqeI7/UbFCl+99TlAEd5crgF4YcNcHDILIPCiK4qBgaLp07F+pEAg4BFYDV6MwPvTyMaKAYO+CNAF65HkTzBDArg8eosxDkEyadt6amdcMDdjnupw0PwEAdY1BRwGWES8KCJxFmCZQIAuwDJBntNA5EEYbROaBKEZMO2/JnGGU0Pu6qEqvI2XUD7CGEQUY3aIAsMMtyALgI+RNQBRghEwD+AIFEYnQP9gvnb1m5rC00NM6psICANEQsgT5/1hRQJDyA/vfAPsWsX/DQFFAsOuDnAPOPFjAPyhhmLFw9fIhK0i6rmfZnwKAvCRxFAA8OqgaEizA3cMoz2iBXR94G5x5oPyD/4vZ+YJVy4cBQt/2rxxGtYSdmTAKMAC5Dx0AxQL8nawYKAoA3MEywp4E8EbkH8L3OJ9Mu+HMoSeIt65i2r9apQEgL1diRgFgs1tBnM9jAUrYbgDzhEF0oITgAd+C8g+WAQMOey1cPXNIDLsteV6FA4Av0k2h8nIcBIT7lsH+A5dtBCSfwwJQgA/yhFZwyKOgw/f8hH8wAFXwXIJiGPsuWTA0ctSat3u1GhsAqnyiAuJwxQChPuOjQu5kFgsIA3wUBTC5JSQZpH8wwlwTTBfYjmDNnCEjSG7/6ieZbeEnKiAIYLcEGSTlB86CYgEowA+jAAN6GQYBACwkeJFC1Ck9x2CDYOHqmUMMsNb5fPtzAKDOhEEAsyVIITe7AVN9oFsQFAIU/xQn+gYM4G0QhyDQZuFcIkoXuHCdtmrm0N5J7F89gg0AeaZigGPZC/V5YQDcyQo+whWY00NVQEMxOIc8mY4kS4VEhgJwA5sRLFwz5ANofe6WanIAqPIcRUF0jF8MACV9heogBsVB1HYMdjI85BXoVgANCYsGFpV3hDll94fNXjIsGwTr6Ej7Vy/hjYbZCLDQzuYVAwxQ0ic4vAKLg7Dt2AKuAR3yyH1gB4GCB/SjwO/ngkgx9l0+jA3j2J8PAFWdo6BIIDIMCGk6ywGA/gBU/rMYlNLiRQFU8EC4H+ACnM+nrRqGBd3tXzk1Yjh0wTTDCiOByDAA7GCGA4AtQhYjKWgxOQQRBQSRhIJZhEI0IBphpnDhmh09T/ipPapd1gVyxHTwnGkG2tn8MIDm8DQLoMp/yaIA4DfovKMBuxNDd6QY5+3IkaG8sqv9qxdEjocvmGbgmUFuGEBxeJoFUOU/ThRgMKMA6Deo7gPYdwr8hvOKhUt22BmUGPavHi9H6gMsmIb/I3OqAQwOz2ABuPxnMFN9oFUYJyOpliI0ZaAQM0og76goxqoFQ/tzAdBFIGKnacgF8KoBDA5PswCD2ut0FABdjYFfDDiChfOO8G0Kyhr4nmLfHTA/tPKQSgwAXB7tAVR5p4XABTB7gYiaQRQLoCJ+FrOEo8eQggCOQAQNYDAFjTgqgA3ceuIORgb2P6QaZ13UTSJG3mkhPLLpXiBUM1C6swDkLRi1ALKHiMURGNwANSADvIVkYfbyXeUdyf6VWAA4Ru6qEWT7AIUs0+GSvxGZByRZAMziUVEAY56I5ghsbmAQQ4gKfpVlLFy+w3iB/Y+MZ//q9TFEoq5ZiPt9LLLkj2sG3VgAShgavB1OjhRaRKBhsWMK9A78KnvNPnHHsP/UI6sx11VxVMJuW4jiboMs+eOaQTQLsEhnwtzhuOqHWAaVeAw9Cmw4RAwgbEdQbp05tD9c82LJxF0zG57wdNeeYqGEYRQLQOE8Jwog54lwZwKReCSCByIEoGePlH0HPiicelglNgDOl2PpBN42G5zwVNce6uDqwgJQOM+qBTDmifDPYDEAAysVMBgAmDdQVn9mwO1fjb/OjykU+ZnZisUuAmAGYHTNBViEM6E6gqh5IsbPYHMDiwoBwlcB2SLDmDbIbHA0wf6vVo+OqxS6z60GsxhA2Ji//1GXb3QUgOeJWD/DoLgBkCxiMwCsTzB7UM8BefSL1STrU7GlYm0E0MUAyyD+iWQBdNsAPRZAzxMZ1M+wGMMEClQqYDAAxcJRwqrBHDBLaP/qytgAkPe5lSjtGUyPz3cACqNoQLX9WtQ8EWYACjs7gFgFiwHgJKL93ECeA6OfTGb/6tQEYtH77KtQxQCGC+ATAJjZ43YEUfNEmAFgvmBR80QKjwHgVgLH19w6cO0CclL7V0flBGrh++xLFAMshqWj0gBU4w8vCgj9jEL/DEth0lFYoGAwACB/FAwbK2sGrHEssf0ryeTidz3PIts0SB8QmQagGn/4UYARCg/SLoZ+F05NcBiAQuiZWYoyWGTwiGolIQBuSQYAedfziCiAJnn8NABZ32dHAYAFoK2ssOsCBtWKEMyqYQYQ5hYV2GOsLB8c/39JNfHaI+mFEbveYDBOcMZcDysCiBUFoHQDkwHA2J/nOWgGAFoJYI+xYtwwKMdAD/a3FWKSAUDe9QbWCd61JzBuFKDgQoFicZBEJASI+IGVAzCQnhnUNV64YIe1v60PkfjKmFXEqY4PYqW/KIAsFDBYBiMKUChZAYoBWFCvGDoAe6zwzAGw/6m92L96mNzDnUGrLH4UYPUbBaCQnsEAGFGAFc4dk/kJoowYZiOxLrqxqvQpgQuqvQGgp0ujVim8KMDoPwqwyDCA4WbIkUGkUmoQPoKaboQOwHdLt15T7m6h43uzf/WTck+3hq3mRAHksEBPUQAOAxipRiIKgDLntGfC041EsQAoYk2bsyPav/LJHq+NW8OMAqiZ4Z6jADwEHBkFIJlzfn7Cnx6ExQKkiKgsKa/9L08c/wejgXKP9wauYUQBzJnhHqKAqDwDGQUgiYAu77PgbIJCuCVLUVaX1f4XVXtd9pVBPV4cucSiowDGzHBvUQA/z0BMC2GJgC7vU8AQsUW4JUda4IZyUsGLKj0DwJ4M6/Xm0CWMKMBC4mA9RwH8PAM5RggUBcmfFOECoLA5IhC3ljEndEwf9q/0AQBbUJAVBXALgvGjAMZXWaUAfEEBOwogogvfBQQeg8hfzC5fk8D1fdjfmQzrFQCyvJwZBfBFAmJGAYyvskoB5AUFnCiA6F0zUOMwaA/wfr2FZasQX9WX/e3BoN4vj5aXG6xKIJcFxI0CrC7VRsAAkBRhlyggsLWC2wewGnLJ8sJXVfsDwDH93R5+osKoBHJZQNwoQOlSbQy8Df6h3aMABaqa4vaA4O/GhWVKCFy1e7W/dVWf18efqPAkfjOKAjADoNRKo6MHnwWQ15uhmWJr2pzSJAXn9Wt/ey6kLwDYCGBpe2QWBRAMgClKyE9Io44h4CwQL7CeKMn8mHx+3/avfK5fAKgzFabCX0ZRAIMBEBwjKgqwYMeQQt5d4H9ZUZ44sRQ+oH/7O13hfQJAnqPQCn9MFpBCFEAxAAbJ4EYBsC+YdEuAFyiKNe3+/1YG+9/Sv/2r+/cNgFBQkBwByiIKoBkASTIiogCiLxjfXQDmUAxLuVF8BHwuDfvbTcH9AsATFCTvCsgkCiAZgMEgGfwoQMESY+iSY3xTmWX90bcEt//RqdjfbgruHwDqnGmsuwLSjwJIBkA4GnA7KY8BIK+jEBdYAlVja+P4t3YA+1f3kFMBgCcmhllA+lEAyQDIYUR8O6nCnVoi9MYU4t509+X3C42AT+2Riv2dntA0ACC7goJovyvpRwFGZDcweTspsx5IXGGooPvLgKqxYTw2/pcDb3+nJzQNAKjyTtO6soC+owCaASjMBGCMKAB+oqB70wNnYT04/leCxv8r07K/fWdYOgCwEdCVBfQbBdAMwGImAJWIKADLCOHLBoi7DZ4YH/8rIRsEVu5RSQkA9n0hKQHAFRSMZgH9RQEKiwEozAQgr5OIkBgDwuOYeLjfw3psfPy/CGj/uAJwcTzAEekBwBUUjGIB/UYBTAZgMRKA7F5iSmIMvEnBmQHvN9o4LiICYgpAxlunpggAR1CQfWNQKlEAmwEYdAKQywAIiTGcCEDFTA9/9wuIgFTt73SEpQcAW1CQnZxPIwpgMwBCXJitKMKTGAvfxGQBhvXg+Pj4/xDL/kemaX+nIShFALiCgozkfP9RAI8BEOLChhLFAEiJsbAlmM0CFNsFCIWAqena32kIShMA6jWzcXcuGhPoLwpgMwAsLtyFAWCJMeIqEwYLUJRdbAT8tUD2r6QLgOvTBoAtKMhKzvcZBYRnCUsvIFpTjCsxBhMBCpMFWHYoOD4+/t9Fsf9h1ZTXvNQBEAgKUg13/UQBxCwApxVZ6cYAyIlieOsgkwUo1i4CISB9+1c/lz4AXDk51tU+PUcBlmJwGQBsReZpirHmiiw0x6CwWYBhuSxgfPwvBMj/jaZvf1skLnUAqPvcapHJ+b6iAII7cIv8XEUR1lyRQTgPHgtwAgEbAYXnBJMKAMYViUsfAK6oKH21T69RAMEdOEV+rqYYc64IdhRidVLEAiw3FyACAjKx/+5qJgBw5eToq316iwLwNzJ4RX6ephinq9gg5hi4LGDjpI+AfQbO/o5EVBYAUPfZF9fle48CFLKAx5Um5WiK8STGaGVyTi7gMQ8A439UIAKSC0DGrwZnAQB11/PQCd9HFEBk+XlF/tgMAN0pCJXJOSzAeMIHwPhffGbA7O8IxGQDANmWlLTw9E4vUQBq41MiJn6UeAyAuFPQ6sYC7G8aAGD8jwpCgHxEJRP7O/og2QDAERRk1d2SRgEEVeBl+KM8BCMKoDWF2CzAed2NhSPgkmpG65IMAeBISvYbBRBXB0XN/Ud4CDoKIDWFOCzAdRQbxwECChgflzOzv1sMzAoA6q6rUMqtlyggGOmlEoLU3D9XU4whMUY4AC4L8H6rBwECJq8ZnP3vFQMzA4CNAAP03fcQBVAJe+7cv6V0rQIECQCkEBLFArwXu2eAFw7ukjcCTs3O/s5weIYAcAUF+4gCDCJhHzH3b8RlAAa4RKwrC3BfBc+A8fEH85WQuCBD+1fnyRkDQF1tKcmjAHrKMHriB4QAsaIArCwQzQLsb20hAEw+uGBQ7O/WgjIFgLoa1d3iRQGsKcPoiR/cMtQ9CGAIm7NZgPvNbxwnfEBuw8PHVzIFwMrsAaCuCbuwYkcBjPmCyIkfC18R0L0UwBA2Z7EAn788MU4gIC8fcHm29q+O5gAAW1AQXOsdVymUwQKi1b9iMgCDd7MJiwUE7YK+9w8RkIsPuDxb8zvXhWQPAHWJgYS5u0YBRCch0bLHU/+KxwDQRQJWNxbgeyqvLQSuPISELsrY/u5kYPYAcAUFY0cBlOCwZaBLxHhRQDwGYPBvNrFY2QcXrTdSABjP/g7qYypZA+AwORcAuIKCiW4NMww2C1D47f6xGIBhRNxsgq5Hh6UImgTkgYDrM7e/OxiWgwewBQWT3RrGyQUY/Ln/WNvfopRB+SwAXo+obIQEIECAXHL7e6WAHADgycnFvzWMnQuImPiJuf2VsKxodWcBgAzAPEDwKEsxsatysH/lgvwAoJ6oKMmiAJoFRPB8JbYLMKJuOLbYvEOxjMfGWSs7MbF5lRwA4I6F5AQA9USltyhA6ZYHNJQELiBIAsZlAe4PDjoDiZWVlNS83at5rKvyBIAtKNhbFNAtD5jEBRiGFXGpCZsFuIIxeSLg/HzsXz0/VwDsOkdJEAXQp3PkhVQxXQCWB4rFAlwPsBGf/5NZIkDOy/5eJjgvAISCgjGjAOp0jtrcRjwCYHS54JTFApyfO85b3yrt/vczwbkBwBYUNHqIApTIPCC8CqBbCsDqesEpgwU4vwwfAKkj4Pxb8rL/HmreAPAEBanp/G5RQGQe0CL7hmIVAuKzAPfXfIyPgHTFxI7Ozf5eU3iuAFAXTKOn85l3B7NP56gcvxW7EKBE3G3IzAUoBqgI0zzgr8pp/8oXCwCAJyhIafaRdwdbzNPZipb+SFAIUBKxAIMbB3oI2DVF+1dyQ8AlBQDAExSkNPvoOz6p07nb3H8sFsBQGI6TCzBcAEzyEJCWkFBqApAJeoJzBoArKAjv8mbeHczapt1P+Hh1AO61ZlEVgSfGI1c6CFiZq/39RGDOAHAFBeE5z7o72OBKDBpdREC7dgMpUZebclkABsBkJgjI2f6Vq4oBgCcoCGT62VEAT2KQG+J3ZQEcheFYuYCNrH0PcdC/lNTKQ3I8/+11dEEAcAQFwf1dMaKAiKkg6sKy7upASmIWYLEBgFa/CEhXADDO2r8wALiCggpKzUVGARFTQYziQkQdgKEwHIsFKArX+Qfrr0tm/93V4gCg3rYwHL1hRwERQuNGlEpAZB2Amj6MXRGwuLYPn+5DSkqeekglZ/tXDikSAOpts5H4HzMK4EgMRlwFYHSpAzCmD+OygAfHu9DAvhCw/5F5279a/WKhAJBvm422fd9RQBcWwJ0+jNsd+OB4jNUrAtIWAE2UByoGAJ6gIJ2m7zEKCIl9RB2ANX0YlwXsErX7g2d6k5KaWsD+D/NARQHAFhNTmAr/PUQBSjcWwLtjIC4LUHbpFgf2joCphxVh/8pFRQPAERRUUooCLPhaTh2AM30YjwU8Nh5vJRcTy0AANN5ocOEAcEVFU4oC0PZlvoA3fRiLBfgAmEwbAfJoIfvfuzW2YADYgoJpRQFIpJxTB8DXjCRiAUZXDzDZm5xcNgKAcY6AUQEA4AoKphkF8FgAdiHJWIDlXSDEMTjlFBJJSRVm/z1UEQDgCApSefq+ogCDf18YLh3GZgFO4BiXAyRDgPzJakEHgKcRWDgA5F3PM1KKAqJYAOFCrOQsYJeoPU86h9hiYp+sFraOEAMAtpwcHaX3FAVYESwAjxXE6SAnWIAVMwz0BQSuibf/K4U5gDANUDQAfEHBPqMAJZoFoOajGA6AzAWw8wBcJEzGEhM7olKcA/AUwkQAQCAoiOd8kkYBxEAxywXEywOycwG7dPf+6Gu7dBcTu6Ra5DpfFgYArqAg4QISRwGk9GfEdWHd9z/NAh6Mx/8m48vJFWv/oBtABADYgoJUUi95FIDfEXFdWFQ3AIcFKFxD83lAtJTUJZVC7b+7LBQA1NWspF6PUYDCCwTidAOwWYBljSdfkQg4tdj9H0yFiAIAX1CQ3bQbLwpQurAAK15PIIsFdO8JZCOAKyBwQcH29+VhxAGALyjIbNqNqQIUxQIsZumwCwsIOchGYPDJ+FyAJyZ2fNH2r5wqHAA8QUE2TY8ZBfBZAPn2uJJS/vfaGD8KnOwuJ3d8pVI0Ai4SDwCuoCCbpieMAigWQLw9lgMA+UjFeiJZCBAtJnZ54eYPxCGEAoAtKMim6cmjAKNLQ1AcAhBeSs6XCOm+aDGxi6oCrP1l8QBgCwpyhXyN+HlABguwGLWB7mkAoHB6P3e7d2UEpJjYMQLsf18lVjAPoMrLFVC8SxYFsPYwpyEoVhSgwAyirxU62YsPwGJiQtjfFwkVDQCOoCCo3yeKAlh7mNMQFIcFBNcLG1Q1eDLW+c8WErpeCPuDWqBgALARoNBSYTE7giJYgMJtIIq4WSKsSzwWj/VNsrEQIuAqMewPaoGiAcDxAZRgcLzpYD4LsJT4k0GkhGGSUsB4Fzm5q6qCAOB6cQFgCwrSt/fEmQ62+CzASDQZhCQMFVYpIPFypaTmVQSxfzAZLCIAdp2jsG7v6Tb5y5QVYTcEdZsMwuIlVnB34GSC+J/8yrfyEwCNkwiUBQaAIyjo5+K3vPHhK6/85o0tXSIBgy0rwm4IitcRoMAe5SdIm04mzgn9ZY4CgN1LQUIDwBYUdNJvW/7wcf3qurM++Pkrr53NjQSCoh2PBVjce8m6RQHOg3h5oGhQTP6lOPaHpSAhAeAICm75Ycc1fr1Zr9c7nU7n528YkUUAfi7AiLiXLDoKiEoETiY7Dj4SBwAXiA4AecG015qduo+Aer3j/Kl//ModHALAiAIQC+DfSxYdBbilgMd63PY4Z/h9YQBwvegAUOX/6Vjd+afp+QDns87Pz1a46iCKwWcBRuJaAIgudunq4OOcET8QBgBHy6ID4Dpv44deIPAGH7xyNk8dxIpgAUovtQD3kZKwH4jbL/aRiEGAkAC4LnT9Td//dwIIfPyGxcrq8S4DYzUExa4FOI82dsn0xfUJoriAI1WxASDfVQ8cgEcCm4AP1Dudd7cwWIARwQIS6QPgWoDFvjWsl7rQ5JNiAOAIwQFwV2D6OjwCOhADfzibLu7xdjJDIShRFNAlCpyMDwlBaODxYh8Bd3X8E78TbP5mHcYE7jlA0wBecy9VSUgYBTzWw/HPfP4dMSjAVUJ7gLvq5AoOAgyBH96hkFLB3OZegx4WThAF7NIH90ev+aUYtYCpAgNA/lKzDp1+B1CADkZF54PX8FWgBo8FWGxh0bgdQVbSU5/7yheEAMAeqsAACO1f94wfpgPxKWCfD69YCpgLVvhXgkb3D0Z1BAWloMg4YDIeCl4QwgF8UWAAAPv7OQDgADrIAdgv+eEdltIlDGA4/NhRQOStgT2sX4qXCBYLAKegg74DbN4kWYD3pZ+9pkQWA0CHbyJ9AFhCurHvHKC/3hHiCDhGVADIB0AT4xCgjllAxwdHp/lKZDHAom4tjrX/nTd4l51au8R28dSzhKqIGGHgp0QFgGv/Dub6Lg1oUiygEzgEpzoQEQVQLYUxBwODImK/1C/8wpMitATdIgsKgAOurgcZAA8ITb8gVEcswEeJ99p37+AXA4gOvwSDgW6+AN4W0ncY8FshWsIIDigMAO5poqS/jwVv3zf9oKATxgfBSz++I6IYYFANQXHlATwOcH8fTQB4/VgMDiimB7jn6noHHPgo+9cEjSFhfNAJwfDxlogoQKEuHo4rD0DeGZgs+0t/UYxq4PVCeoC9rvY3ulcICLd/0z/xQ+ffCUiB5yh+tiW6yt9DFOCXA60H0woCBakFrRQRAJ79w+jPZ/lN4AKw428G54T96IPXIsMAEAUoMaMAw8swbBzvtRuA+GxSjGrwHqqAAFh5dSc46JuBqZugEhCQ/g5IEHYAKWh+GKe2Fz8K8BMBHgec7DkGCNePxGsIFQQAs77QBOFeaPvQ3DAW9M6J8KPHG16JEwXElgcIEgE3xq8CRweCz4lRCTpePADM+kIn3OsdEP8DJNQ7iAaGR0MnxMGHCnd7B1GAElMrOHAA1i49ZP0m2ZUgIRAwTxYNALb9wwAA5P7qqB8oeK7pgyHkCM5nnc6HlhEdBfgpwQQOwEqnGWh8fPynYjQDjIrmAaZ+AST9w3Ogg1P/Tf9AaIK4sINahTr1zoe8IF8BOuRJHIBhPNE76SeTAEI4gCNVwQBw+Bc6AZnvoPYPb1/Te78DaGLHpwVu7PCGERUFJHMAzuviVYLiKMiK4QCqpwoGgFHP/4MzvY7yPM064oVN0jc0oXuoN19T2MP/hmGBFH9sB+B1A6XQC/LjJ6silgILB8BXAJ3vAOrXCU2LEgQoUGhCHLhfvfo1dkLQO9ENIxkDoCpBk73ygP8lyEjASqEAMPoVch+jQ78DyAD9CrJRyP3qB1siantGshDAMOi54Dh7f5IZAggRBByiCgWAr4QnexDPw53dwbTQ3+hNWDYgfcHPzmZGAUp4B1A8BqAYUVmAeLgI2wGeFMP+xEhA0QC4mWjvIbMAHZgGgL1BsD7UBL7Aec27Zxts6e+gSTiWA3BRk04hYPKdqiDiIJfL4gBg9GaU6+vQDgCc7z4cmpAedgh4uJ9f/UO2UgB1D0B0COA83NjzJMgkMRMmiDjM0QJ5gJvJxt863s4gz4deBCsAnTBhCIKDP1h0KECMEHZ1AG4l8P5UYoBJOwQUsSO8UADcXIf8DRzpYDs34U4PXQR4Cx4f8V3CK0y1UfIegGgG4LzssX6jP+cr7wjjAI4QBwA3ox1MRHfh6d/BR30HftYMOoeb9XCK2FlvdGEBMRiAM07QdSAgDhh+sKEqyrpIFgQA8rc7cPifqAPVw8YQMBRIVAk6dZQehC/t1DuvRbGAOAxAQe2A8TUA6PXck8LYn2wILg4A3/ZSfrDjrwmegEc6GeqDVzbBK+CDTv2D7FxvWQAAIABJREFUOxSLxwLiMQAbKDemEQJ8JIw6IJMCFAGA0Xvr6DSv08dAB6eHmijqx4d/E25/v07QefdsDgtQ4jOAbgKhk11uD3T++bE49mdSgCIAcC9O/IIDoFPH8T22dhNQPRQkQE/htxP/kM0CrMj5AcwANnLNGp8H/FYc86N7QooEwL2wwxuW9lFVkGD3TdAQ3oHpIEAUmkFbuf3xNwaLBcRoCfIZQPyhQC4jmBRIGqxarewvBADuDbc/OujBxvdPeDgQANN+TbJaCBMIQVHxNbJDKHQBcRiAAe6Lney1E+RHAtmf0QtQBAD+uEmXeonh3ybxoBnN+ptg+8OawQdbLIN5GagRjwFs7H8k9AWRDgByLLgYAFxH0HXoCxA0mmHar47iA7I7gIBS2E9qVwVYl4FasRhAvIuCopHwY6HsX51XPABGr4PZnQ5o8CM6AInG3ybrq5gdoDECb8js58zLQI0YDMBLA072EgMEtYJfPykSACq7y8UD4Lo63dvXrFM9gCgfgGeD0LgguygIvsGHjFxALAZg/9NvAuC3Twq1/+mJgPwBcB3a0ESDHzEFQPN9wvkTpYI6QFXw/T/YQl8GGocBKPAEmGSN+ndfz/1ULPtXLiocANdB181M/cGBkCZqDEKne7NOjgugjABIH75LjgzGYwD2P4/FPfLZQaBQASBzKDBvALgCoB0w0AdZfpMs/xNV4iZLNaZJDQh1gpd4H1+hrh6KxQB6uzBcUHV41wEcqRYMgLtIJ4/dNqrzh/btNAnZSMz1MT9oguSi7wNeI68eiscAjCf6KwN/tEE0B3BBsQCQ7+p00AZGp33ovJt0MhBXepnZwTrxHtA08PHZxNVDsRhA91aAyciQ4EfVimgAOLpYANxFHPxNkvA3kTsAGlF1oucHOYEmMSNMZRKa9Z9bimKh8aDuDMBvBZjssRH0RxXhAHCIXCQAbAFQ4uBHg95NsiugWecGeMQnTYI3NImmAXdkEI8Hdc8B4CzQZMJE8DsV4fY/YyQoTwB8qclQ+GrSwRvSCCB7PsHuB2wSQqZDRQF2bai5xVKseCFAKCHwWA+8L7D/hqp4J8C8IgHwpZCgM5UAOqQkXJ0aEmqidGEHDwd2oGNoUr7AaxSPnQOIrANMdn3inaqA6xa5QACc0iT6f1Htn9jXMAtQpzvFOkTuGFMBLB4S3Drxm5hJwJAB9CEP+05FRAAcoRYGAEcAFFC7Dt64Tar9n1H7R4SQFBGmKoYd/NJOvb4lSRXA9gC7JJv8Ed7+xB0BuQLgAETS63RnF9EVwN7SdVIYhGKJnUBCqkkNGLiHQGwGYGzsqgDOiQIn7Q7ASplOgMwBcMDVeLYfx+9NUAagJGLgkcAdIiZbyGB8GX7H3ySoAhgWoxIcLwZ47vtVMR3AJWpRAHAFQMmUPa38HfAAuKXJtAHa3NQ1Ah3mxLA7M3j1Fit+FcDoMhI4ya//iLn/I2KArAHgC4B2iHI9GPbrUJQOBfaMjADUFApSxnVicAj1FdTr7yZhAD3qwvxaVPtX9lALAsA9V6PYr045erqgFzACsl5QhxKhTXqamKoM1FGX0YdW5GAwuk7kxvi9gOBrP6g4I4AiIuCCggAABUCx7keTVPmBJzxQDUd1QET1qUiiidvLm0QX4dV3WEosBtBjIdAZABD0AODWATIGQCgASo964I8dnBAIju4OefTDdH+HyhATQ8U4bfBDI+K+MHSj0P1Ru53XGPKCOwEsJACOlAsBQCgASpXrmrBkDzsEcNzXJL/QJDsBmkQFsYkx0YHTJG9E1AINuhCYpAl8cvJHAtufVgfNBQChAGizTlT1iKxtEx8AcMc3aRZAHPsdIg/UIQOIoNz48dlcfRAkJr4xuf9/7vtVgRd7ICRrAMz6AjqfiWbfDszbwSbgJjkWAPr9Ozh2QCNFhKRos053GdkZYc5YEOwZY0sDTkZV/3/9pMj253WDZguAqV9g5nZQsx9Z46dFQPDRzhAT6eBqEml5UFXwkgHMjgB8p+CD8fM/k377f0VkAFxVAABGvxC256GkPzqf6eHPJmoabpLUn7xJFEoFEx1C1LeyeSAnHYgYwBNJk4DviG3+6h5y/gBwBAA7KPFXh4X+Zr1++umPwtXs4EphkzUyTrSHNGHGt4loY5h46sAZ5DcMqxsDiOwEmGQd/xvEtj+/FSRDAHylDvc8OK9Pf/SoZ763/aGHXtJ0XdPB0jT9/Ye2f++Zox49nZQBITVBgBQA6iQgFac7VC2p/rOzjUgGoIAbQiZj9X/84MlqRXAAHJ07AOSv1PFFb7YVTj/qme3v21aXdEnXnX+9P8EDzfmK7iMBqohgH0AoijSpPqMOeblAx/vCb7oygGTCYC8I7v6r1ephat4AGL0ZuelOvf7oM9tfsne55Ftfk2wI6MHnevjB/qO5T7+//ZmjTq/zMgSUSADuBqYkRty1JZIBGBZfFYQx//HcR+LbnyEPnTUAbg6u/nLO+qMeesmxOLS199c5B0I0QDAE4HjpIQcFVE6hQ0yI1slmEOK+Sbsm2XHygREMQLGS1IF+8OQG4c3fjQKmDwBfANT11c88pOmBYV2T+n81CT6h+Ttfw67BPRRe2v7MUU1aSw5kkuqU1jBKCoQYeSOqCqCQFDCiGjT5yxJs/+g6UCYAuDlk8Uc9FJjSt3BgeD08BMK9j1yEFh4XkmbD6KHvOQcCJSNB3CJEKgqHCHFcwMdnRzEAK3br72+FZ/8xsoAZACDY/49u14N9r0mkB9Cwz9dcDui9QAv8AHyj/XX9/e1HnU51BTaxeHATzxqRpYhX+AwgfjPo5I+f3FApAQAqn1TzBcDNbg2v+cz7WsjzfbsSHEALfT6gBRLBE5BnkDRdc0DAyf01sZhoJ9CXB1nDD86GkoGYAThZwBiCQM99VC3JmpcrAEa/7Qb7z7wUGNVzA5q/kdEhIEHO532BIgla6COCKEF//3uPNolGwg6WCsLqI3Aw5Q8KEAtEk+NdWoEmwf0vJVlHqrkCwBEAPf17cIdLgOtJmBKET2m+iTFNdExNocT3Jy9tP6pJZgTYt4h08IUCV98RygVjBhBvHui5H1XK4P2ddX2uAPi2vfu3a9iIgVsPT3TI8zU6NvQPB2BsBlAcv/KQzQjwhHCHuHWyQwiI1ev1nyscBrCxexvI+PgPfloa+1cOUfMEwL122Od5cQ2d3+FW1kDGT9JCbiCxYgMEJY1OI9j40R965nSidMCYJCCcxBYrEAxDDODGGKn/H22oVivVkiDgmBwBIN9brx/1kq7TblyifDtBCQHN04isIHE0oOhA87/3+8+cjq+XDdVCiDtGPRcQVAVxUihGL6Bz+pfF//NHwrMAwL2d5naQyvWDOQ1we/rwB9lh7AT812lhzlDi/pV07f1nTu8Qc4Fk+1GgI1uv119TLGoWIOgF5A+DP/dRReDOT3pdlCMA7nW3PyfJ4+d9pTCcw3lf4OA1KlcEYaXTqaQQA+jOADwf0EEio+/6s4KoFaibOPgLT26olGj/R04DpA2A6zrbg5iPkeTRJVYWSAtPeugQ6NfpmAmExCEID9032nyAqhISyUAXBG8wGECXMsAPfuq1/ZcGAZfnB4A/Pv39sLQfntYS7a41hneAR71Ovk6T6BoCP2msP/RMk5wo6pAtwp1O/WOaAUR3gvz2ow2lMn5cBpAOAK5z2R9AgJf5B5EbAQUNBHiapBO+gPqLiwhuV4GGE4WBx7HzA3WyWahJXDL0IckAmJoQPh2Y/OUGj/yVCAEX5QUA+bpndLyksKIbHvT+2R5saY1hacABGIWjkA8Ae2MMeDmiR5twogg0h/gk4WckA/Duh5lkc/8NZdr6iRxACgBYul2nF877QYpPnw9kHpBzaHiY8DPMYajglhTgQWLnik+v00oB4cxR/UNMAJADwCj49ferlfLZv3pMXgC46yFJZyIgLP9qRCaYSPwBG2uMthEdZ4olv0SMyISOk0n2D7XpAK4DwAnVj4lWoPs5mf/n3qmWcsV1AH0D4EszJCYAUP0m3PmA6ms4KeBnBlk5Xwl3CrGCCuwn3I8vfe9R6rLRICLALoAnCfBCGb1/zCpAKgA4ZcZLOmcRbV5hvZ95uGsSsyao0ZEjKx+AgwvwM4OoAGuS2YEAqgPezwn9KpVy2v8wNR8AHDBD0vUoBGjA3kHxh2b4JAMARWAc/4FEMpE69hiC7yaCRy/5bAA5g06984YV1gGNXRgE8NcfbaiUK/ILk0BH5wIA+Z5FEfbn+2+wf6mCj0bnCTSyZVTSo1pGQISoeQWjo0iFAdsbfAx6gekk0KRz+JfV/peouQBgr/l69CIsrVGZXLJ2iGICTWJ2h+DdrzECRtg6oHn1oiZ1AY2dDvR9wGNUBPCC2/JbzgPglqm5AGBWN/tHFQbCHK+kkwUjuKs19rdgZgg0kCcI50yk4CQIzO82CbyrbPm///6v//rv/3fL2TT387ZSOUOAy9U8ADB1b0mPiwBNZxtOwljQYCiP24dwdxBFH1COUZPoRISu69sfhVLk9fr//m6wXiOqPpWyHv5xG8FSAMDhn9DjLGAPwndLrP2Nd7JGOxFmgpB+UgP+I2CP2kNHhXWhD/7tu2D9y+TAmL+SgAH2A4BzYtmf2QxCtvhpjOg+rPOiwRFGqZBRKCKmUIIPmksGnGsl/+G7aP2/SRcCL/zUM395EXCBnAcArtD1uAgASVpNx8ka3BGkhRUCHPWx5soYJwCjdgzSQt5LHDLQqf/bd4n1L7bUzwtPVkpW82XkAEfVHABwoCTpeiIMEF1d6CSAftpPIYOUjwa+iSZRhvcPAE2iPAoJN/fz7Y/C8z/gAZMv+P0+JTZ/tXK+mgMA9lqk6QmWlw5inPWSxxOIPEHow7VweDywJI4CdfpNIXrQiRMmHbb/HQ2A7zqj/pWSO4AkKYDeAXD43nqihbL4MCmso/EhTdcp4odaROHcMCPLhHKN+BAgKAPDAXz3u39fvpo/4wCYmgcAztETLolo+giDOi1EhYSOCY3TBSiFTAH1CON0sYaRQZSPtP/DAsA/lv74r1ar56s5AGCpnnihoi+xiTVyTJzF8zTmkClqJNCIzmPcfwI7i7V/YAHgH7zcT5kRcIGaPQDke2boek8QACyO3Nkav+sbb3+aTOrgG7KyCohJeN+NCYCfVEu/DpNzAEBSAgAjAY2gd6yuII07JUzRO41sLwneGLJF+FTwI9keoFIpuf1vWZkHAA7We1wwya9hh9ClDuAfAND/42RyOGAG+wb8IBPVCey/bA9QdvvH7wLpBwAH9mp+DXf+ENs66BYK6wBhWZ+oCgCbk62nEho+QuzPSyc434JNAjeU3P6XyDkAYNYivR8PgGc8cY+/RM2Ggry+zsr/hfUCskU8/KgREafzrblhYJkzQEeOqjkA4Jy+7M/IAgX8Hk4I4h5QcnIQOQE4jBjKEMKEIUEa7GeeZSSC/q7sBGB/NXsAyAfqva+gdRuk9HDlVtNR3B5MD4TD5RrVJEQNIvvIIhpGAdF49uX2PzEcwKb1Zd7/lXlqDgCYukjva4G8H9XCqQHBUDLmY4X+iDlqKEtIzhjBaoD09suNRqPxHxQDmJiYmFhfXhpwvJoHAG6S+rO+JlEiQIC46UAQDOaLmYNEVD3AH0cjzn4NBZ7a21sb7voJEQKsmJhoTUxMrCgpBI5Q8wDAKbqk97mIaUE84iGBqR9QRtbIrU4OFBJjYzoWpgSwe3tro91omA3KB/zj3bYDaNkYuO/YMmaARvMAwOHz9f5PALKPl8zYacCIZLs/0hjWaBqg4cME8AHn6be3OrZvO38bjZ0DJvh3fz8R2H9iYqJ8ZODIqWoeALhC73+R6h/BRqemf8mAkWgwlNAJT5QEwu7CMIhwz35v+zsQ+JN/+o+f/OQnP/mPf1rn2d/FQGtiolWuk+CQ/dU8ALDXDD2VhQJ2DUMBDgASLYIa1fGn8/o/SXg4zL8Rbn7HATQeGauNuav2u8AD+F5g4r7SuIHKHivVXABwjp6SBwCMjRwfJE51jZgq0fBskEawAlJoKDw0/rmNN7/977paAIDHvY0PUNBqtUoSE9xytJoLAE5JaftrjI2qU1KCGhnkgZw+e0CIkqUJe9HfaweWbwcgOKjmA6A2NvYi3P/hozIQwlvOV3MBwOh8KcUTwDelFg4Nabi8S7YCa1TnsIaGSuAgIu4yeGpzw9//3kcHBQ9sq7kQsD887jmAEAMeJ9wkuhvYfZ6aCwDkpSnZXydneGgqL+mMp6FiKKUbSZSYgGOQnt3aAKd/eARMr4HluQCEAu9ImJhYIbIb2P0YNR8AHL4oRfsDO+k6NfRLxH6EVrROqAlqEtSdwEMomiT9s3fwexGABwKz3Xi1hhDw+CZg9WD/t0R3Axu+o+YDAPk0PcVF8DhUsUNFYQ30DvidxRrdLKprrDhAl6Sn3rQ3vOnt/zZwBcgB2C7gd3j3Q/uL6waO/VM1JwBMnZGq/TUqd4e3LqR9OPSD3gInkjREAZ283+YGdz1cI5bjAvzzvzUBvIGPBvHcwPr+7R8XAFfoerouQJfwBpdYNT6JEppBUkL4SgGcLJAk6feBtdum6wjsB97Ht0gPMPY7kAfyjn/gCETMDaz4czUvAMxapKd9BGiE5A9vllwKW/01RtuHpOnEMLj32VOewzfbDUT+3I+UA6iNrSOPgAAD8FQQJ0W44b407B8PAHLKDoDqAdJAUkcL4z9YySOSwqToaHgqOD7j2a0E78chQOMtCgC1ba9P4CNgAqQFwiNBEEZYWT/x53JuAJiVifkRF2BPAzEPASdpwFWPcf78J7XtwxDA/nhQjbHW3YdOgBaRGgKUsHgMbFjR+loq9o8FgPQdgIYEpBi3RWi4WwREBYzxMA1NHunSL970jW8CBwBjgFcZ9h9b9zzMBdEkENGBYjFwbGvia6qaGwBSDQG44jFE/ha1B4MaMdE0QNcNnn05rPm3oQsIH09nOYDa2LpjiRAAeQOCDxSIgQ0rJlrfUOXcAJBuDoA1JQBkIIiLwjR81xAIDLyLZ0kq4JE/ZHqX+HuYsB8+zAbA2PNc+1MYKNAPrG+1Wt9Q1fw8wOGL9GwQoLG0P7l3TmCJMIm8jMZ94IT+YcLP9wVtdBSY22ocBDw9Qbh78g8VFeSOgWPtH5qe/eMAIBMHoNPdHMzLg1gTpLqEvEgYREi/Ap7eBHbHdPARtv1r28Y2T5DbnvhLVI3d1VqRGwjWb7J/4N+qeQLg8EVSpghAkqLk/UISOVQMBz2h+qDT8rUZnvbA+mb4idlomOtqvDX2NLXhyb/oK+AwWHFs5iDYsN7NVn4+rfM/HgCWSlkBAM9sSxG3RJKtwRrqEvBe+F5Q7DXD0A+7BOfxQXz7jz3eAmlAXBKIfmA/vC9TR7Bh/Sb3Z31eVXP1AHtLmp6lC0BkAF8uCFvHNYmlJRYygWc3o3Yf9BeHgq/WIhDw4gQrAKA4YYuRJHQdQUbZ4g33ecdNyvbvDoBTstv/ZH5XYkyQ0S1jaBrAdwU++SdOe8ITOA/NWhQAHies2mIaH2z71sQEjAxatiNI3RPYR7/3M1O2f3cA3JSt/XGGV4PzYCC3AzsAWdJA0tYw8e8nfMyA9Ae73+ECD9ciEfD6BB3+01FB5PEw0WptSo8Xbli/AhQlPi/nDIBZmToApN6FJF1YdX7WSJATEL79ptkw2RseLYckvBUNgHUrSK9PpQYZ2UKULPYpRN+uoLJhg0P7w+/7X9O2f1cAnKbn4QGgoAd5EhA3jTKqBu+1G+EGN4PtHzwVPmg02gfVotfY8yT7o5sEcHmI3T/gf37f+vW9xQcbNqz3zv3gN0h//3cFwOj8rPe/hsf5fWkPQiQWOH9CIVB7dis++2Hdr91A/5jRFNCx/zY3FKQNT+94oljAShgEUaLtDTYksP2KTRNUKqp191Q1bwAc+JKewwo1Apji8lQ5EJ4Eb78JUn8EBvCZ4PCA6bVuHmBsM+NspyuErJQAt6swzBasWL9+/YZjN7BuItqwYcOx69evcEw/QTudiYm7R9W8ASAflz0DkNC0h8a4QFQjcsHwgqH32kTdp+1b28TtgCanFYwXCnIawzhNY0z/QKWT4Wptum+FA4f1ttFX3LfJ/c5oLgGDL4v93w0As7Q89r+OCABDD5ghAeeh5mVc8DPDfB/pBrw4YFutOwLWtVhW5hYHmJZHQQS7tsBbMNMMvvHd+6v5A+A0PZeF83poTIh3ZzhM/jS8Zj8AhjawugnA8EgtznqeEfC1WFUCVlDIyRRy60u8P8SrM7J/FwDMl/Kxv0aP+xD3gWEtIPdNbuNHmwz7yOJP+LnZjQIGJQHeoFCL1zNChwN0cBg+HwUG+kc7/n+lWgAATpHy8gBEulcjdMOpG0XtJ0Dyr42r/kT/j+8DYlBAPx+4ien3afrPTRfwW0oIGkn9jwmmuz+lFgGAg/XcFroDVkcZQDQvGmaO/9kb8SFjvTbkAybuDYl3Ajj5QKbbbzESwlTGkA8TZkIh8hjw/f/RcgEAkEdn6DkuJAOALwpGkaC7/Z3kLy/jFxz84Hiwc4XmA3EBYHeHcatCVEzQovtI6Gpi15ODakIIXrHpaFUtwgOckKf9GddH4YlveCe9ZNM/lOw34UNGOqgd/wRwkwEtXoDfYnYNU66fYvGtmAhoUYWIu89XiwHAcbqeLwSAPADZOYyygNKzb7LS/OwhACAN8XBcAGyzB4WYRuTRvhYVHkwwpgyp3GI3Euj8ydL+UQCYKmkFuACN2RuI7396O5R6MamZj6Ab0MRFoHhJgPAQuC86Bcxi/S2m32fMFrDiBVYAYH+yKVP7RwFgqa7n7QLg5SH4qtkwVaRrT7VxpyfM/7VN1AVigrjAPKgWf41t29rieW9WXrjFdfK8hDKn1EieAK15alEA+IRUwBEgEdoBOtYPt7HxXrsBhnyAp2ekA1Bc8GotEQJenOC2ghCMDQdxdAKR+V5eMRFjZtNVakEAkGfp+XsASWdfAw7Lg78Ker7DEl+7QfaDmXQ9yKwlAsC6dZuY1uNVhdhOgN1g2uKVl8kDYyJr+0d4gNP0AhYW/mLdKv0yJnptPPnXRlTQRK2Bj9SSIaD2fItmeGz6x6b5PKN3KyiB73W9XBwA9tYLQQBDQgxcASltZSV9Tcj123QW2F0P1BKuuS8y83LcKhAnj8fpFuGwfvT8MapaGAD2kqSCEAAUYqDws/P0VhM1+YFOAJz4QcNBpvPs9G1JAbDt8fta0dn/CT4CmJyRTvkyjxL/wUVygQBYqukFLVwEhplBt/pL+wDGICA5HZL4BHBUQ7Zyw39fQ4KVuJ1o8bM/rS7HBETEd1S1QAAc91KB9tfYSpIvh2W9NnXs42Eg+hRIfALUxpxIICIMiM7kRnEC9tmAXtP6jlwgAOTDC3MAeARABxIALyPSj8d9TGhvM0wCeJ+a8dPAKBRcd2yXvc3e3Ow0zwQvFcR85k/lIgGQbx2AjgaBFEzgDn6Pj3zU7A/zAGSPkPv5w9t6QsBm6vDmyMl1jwtazA4T9tts+6tqkQA4Ry9waYSQmPPoV/BEN1lMHyYAQAzY6wngIGDu60y9mGjKHxEi0GkjdvPYn6tqoQAYnSEV7QLgxYCapP8nFdjBXmCsBdYmUgQ9ngBOJLDuaW6Wnlu+4zE+VhhIK1Tbr8vN/jwAHFikAyCOAOfDU6GTNwndb5NggW08HOSdAL3Zf8zuDmpxRoW5bR+s7i9WUwhV+PffnJ/9eQA4WNL1gjGApsB+YTZgYb9Bdn4FFjcbqFGo0d8J4M0J0HVhXi6fDu5bSHOSFyXib/Y1tXAAzNd1ERDg1wPfbjfIXu82kQ+ADcDI+Tvv6/UE8DRE+VNBPNZHbPyI7lGaTuRpfw4A9tJ1MRDgtX+3iaR/qPthtgl3D4YDeq8DEGWhp8nRYMrWvFYfTpNnRHF5ovW1UbloAMhLdYEQIEmbfVpnsnwA1RfapieEH+gHAH6TcGAuUkEUo4LbCNDilgLhO78hy8V7gON0MRDgHgFb/WOdavpqs1vCgv/5Z4BZ6wsAY5s3TfDEAYLEHeOIZ2lLRbaWT7QmvrGrqhYOgHzbgbvxgPfaZPc/bgLyH7lq4PQ4WLth9nMC2AiY+zo7Zx8xFcbp/uHk/YKPf6uqAgDgQF0XBwG/aNNenln9h8MgRH/QA7U+ETD24gQ3kc9rEaCTBmSeiE4ZpSoA1jsADtaFQYD27JuM9n9mDzA5EN4OggCz1i8A1q07lq0b3IpM+mGiMME69NELPq+qQniAvSVxELDZJwAm0ACB2T8ThAbt8NiH7uCgWq1vCDx+X4tM7XCsyvIEkc4/ePrzshgAmCqO/fVfUbVd1PJHngXwMAgdx6spAGDb4/w5H6oplJ8dZiWU/Q8F7H82AE4QBwC/MMnwjkACrAubDXoywPn7Vi0NBDw/EXPomz0tEKUx5gqAjYoCAGEoACIARCqgTZ74+AyAAgHT+7d/bZt3sRi/l5uaEWNBgnEFiR9G3l2I/ZkA2FsYB/Ay0vwm2KBJqoEStDCoFj5cS2WNbXt6E6ebI7L/hzcHhl9YzP5nAmCWMA7gKdz/0w5TAaHRTSrvT0UKD6QEAHdmmMX4mM9F9BDTKLp7qiwMAE4QBQDPvgmyPYwiUBspQwQngAlLg2YjlRPAcwGPb2rxGvt8qdgJotDfihj9CZ/PRgCqNwCMCkMBfs/U+4m4CgbGAWYAi0dSsv82rzmAdYtIK0gHt+gpMSblg4ywQPuzPMB8QYKAX8DpLyD0Q9QFTXQCMHzFw2l5ABsCmzex7pZlJHqYPaIcEfLC/D8TALNECQI3h4d8m5R9gmXBtkmG/5gMvJUaAOyqwOZNnDZ+lloMfcsIqxZ09/7F2Z8BAFEKAb9AGr8mHgRiDwQzc4LTa2kue1iEUeXjbXyujih49d0rC7Q/DYAMbgntKQXs5oDbrPJvu0EOApL4N3PMAAAQxklEQVThP+wZeyRlAKx7nlH4Y6r98Od+IE3ITgCsRw/wCTEcwFOk9ruJGgCpEdA2mRJsp5YHplrEIho6GJnCFq/10xMAU8UCwKgYFMB2AGZ4BRDc3CbdDGSyUoLe+7alCwBfP4g77UXfLMZRlslcAKw3ABwgjgNok1OeJq77m8DoAUhMIiCcXkt7Od0BUQ1e/BtoqYTR3eerogHgNKFCALi724yuAFIKCjWCJdGGTJgPeJF3ZURE2x89ONRqFW5/GgDnCHEEvB2YsQ2tGQoCQlyYsCsMXREUWx04sRN4scWXimIJCbB8w8Td81TxALBICAfwe1aTF1sEhmoUwx7irWwAEOgI8mIBaiaEkRsSwP4UAGbpIngAqc25AMrkiMBAFohOALOWzSJjASwXwBwJIY+LTfNk8QAgC5EG8hpBTdzW4YX22Pc3wKsIVSgzGwoQ+IDXyUOA3TAILg/CTuB6EexPeQAx0kCMMhCm/8D5U7qwyF88XMsOAc9v4sz+sEXkMQ1oiWF/ygMIMRKivWkCmQ/2/X+A9qHH0F+0Y+uD9zwv0uJqyJC6T0S3wDGqKiIAxOCAz0Ki38YWpXBA7H/sLsxaLUsEPL6ixe37JTY/4RS+s6uYALhHkE4gPPtPXAfUxmFfKA1H9YU2DsoWALZ8BL/vlzcm0JqY+I6qigkAMbqB3gsFntp0rY91EwBWCgoIY2YcMFSR+t0E974I7pUyre+MyoICQIxuoJdxCGgStT6zgfY/2RoOgoD2q7WMETBmXzXb4s4NsluH/1QY81MAEGMseCshBojaPdqwCIzqv4w44K1ttczX5vt4s4HsxgCh7E8CQIw84GaTMQtCa0QxmoBN7DDM7M1fG5v7+NPUOOgER/09XwGo5ADYS4xa8ObI3B7o/mMyBOAvDqrlgYCxda9zw0DaA4hlfwIAgrSDbQUd3m0iuccc/muQ0qHew0dquSBgm+0E+JeLISh8TRUZAILUgl/mj36bzIgAPQdcxMO1fNa2det+xxP9wCeAaPYnAHCOEPbX3jM5R4DJmQWge8PcvoAHcgLAmN0ufCxXKTwEg3D2JwAgyEjAL3CbZ7vBngI0GehAJ0BjWy23ZTMBXu0/ePC1UVloABwuyEiA1O4i/sHBBmgOc7IAZo7232YzgRcZsqAgPZCzAFhyAAjSD6jr/2nytzlTBIh9BhxUq+ULgdrmp6msYAiHb6gCLggAWZSxUElq+wo//BOgzSQICBWP1HJeNhV4miUbbn/4W1V0ABSvEBwg4Cne5A+0tslCRxu0hz9cyx8BY2OPv34fo/1r0/M73yk8AI4T5QjQpadM3i5v89kBlhNvmK/WCkHAtrlbnybz/08/PjY2907RATBfHAAs+nS70eDtck4MYDagkJjZyC0KpBCwbezx558Gc8RPb91mByRzDxUbAIcLY399xgGjn24wTwBc7mWfAP6l0ttqRSx7bsBecx/f+vzzr7/+/OvPrxsbG3PLBocKDYADBLK/rKqX4vJ+nCgAdok1GmatoOUCYNvYtrF1zqOaHSA4a+5igQEgTBCgzzhFVlVZvpTuCW3Tc0Em2TIWaEZMLwoAthPw/cCYt/trgiJgRMQg4EAPkZc2mPl+mBRuE9Og8Ax4pFbs2mZfQEyuuYtlYT3AOYIQwFP8X0g+NyIKMJmycbBJ6OGaiGvulcJ6ADEqAdKB4RaRv0qdACZXJxr4ABcLYgKgNna7qACQRPL/7hr9KqvobzLkAc1QMMiHwqs1QRGwVkwA3KOJsP9PICZVvkpme02iSRw4h3YD6Yc/UBN1rZUFBIAQY4Gk/VVVXcuRhCVJgNkgLxV8qyYuAkT0AKcJcAScwPgV/8xk9wC0sWwM0hB0nqoJvJYJ6AGKnwmQlrJco/xn05n5PwSJtglvEjfTuCck23WueB6geHmwpZxf8s/4DUFt1iVi7jPThQZA7TLhPEDRpSDpNO5vuXg6UzKoTRMCMD4qOABqlwoGgNGi9/9pEdR4MTwBWC2jbbT/HSp4kOAAqF0rFgAKLgVJB0eFRvKh00PVjzZnbrgBeEDeDWE95QOuFQoABUeBB0f/njYCGjjT2zDZhMDMdSqkPx8gCwSA00S2v6rKd04Pk7xmo0HqBYHRYe9lJQDA2EmyOAAoNAo8OMaNORdPB4KhhHoI1hArqCW0lAgYEaIh8KZY/xlsBICz32wwCIEZ3hlXBgDUamfJogCgwFrgOTF/2T2nY5kgeAKY1Mzgw7UhAhIAQC7sxnDpnNi/7Z4HhSW/YMebpJ6Q90lJAFA7a1QIAOwl/P6318nTqSlwghCEVKAsAKidsZ8IADilqP1/XKINcPJnyYbA8OwnmgJLA4CxIhEQAKCojtBk9lflkw9qsHuCTKIxvDwAqNUu3K9wAMgFpQGOOzzpbzzls2RDIJAQg/OBJQLA3OIQMFJsGuAThyf/lad8Fl0RREqIBaNBj9RKtC6cUrQHOK4s9vcQwBCTb6PWULNUACgMAYEH2LuANMAnerwxdb/PBreJtFkSQu1GmcJAb+02pVgA5J8GkPbu+cZcGwFt1pQoHA8plwcoCgE+AAq4M37vPm7MHf2sSfUEtQO34OLioFrZEHBygQA4IP/9P6uf33v0bxgyAW2kMl46ABSCgJGiugH6s78q2wigR0NgS8j00gGg9uWTCwPA0pz3//xZff7i8ujf0CpCqDhYQgDUvrxnUQDI+a6g+bNSqIF9k9EWBOoDZgkBUNt5z4IAcFPO9k/jd5e/SaoItdEZsK2EAJibNwJGimgHmb9XSr/9Nzmzgi4GHqiV0gdcXAQARvfO8fxflJb9Vfnr6BIp4jbpcgIgZwT4HiDHPGB69rcRgMfDTVgVfLVWUgTcmT8AZuW4/+9J9f/A1wmpYFAVfLikAKjlKSjoASC/6+IW3ZNyD9zX21QiyCsIPlIrLQIOzRsAueWBFh2Qdg+k/OkGcaNMu7yZIL9HKD8EjOTbDzTjgPT/L9gIAJcHBkeAadbKu3KTk/MAcFp57a/K8qdN4gTwHr41REBcAOQjETjjgGxuTHBOgQasD7rpgQdqpUaAnCMAbsoDAI4AaCZLvtQE18gGSeGHa6VGwJU5AiCPRKB0YHb/N3xZ2QZqDXyk1ADIR1DQA0AOicAZGdrfExU1cWtgicMADwFrcwPAIqnM+9+BwLnkbJBZznIQWtkLCroAyEEeJmP7q/LoV8NuIF8l5tVa6RGQDwCyzwSfkD2ltUVF8WxQyVmgs5blAoDMOwJPyCWm/Sp5d9j08gMga0FBFwBZT4YuzSmt9dUgAPBKhAMAgIwFBUdyyARLednflZVtg/nhVwcBAZdmD4ClA7H/XQSYsDnw4UEAQKaCgg4A5ExbQk/LtcXpyulQOnj6QAAgS0FB1wNkORp8Rc4aOIvhGVDucgDwAXK2HiC724Kkg9Wcl7zYHLgzIEM5OdcDZCcUnrv9VVU91DQDBcHBOAMyRMBItqWAIuwvu7KyXmVwQM6AzOTkRjItBRxckAJaICxc+opg5ghwAZDRdVE3FaaBePF0vzBk1gYHAaNZAWBWNg7gHLW45QkLmwNDA2sZCQo6ANhr4Ozvyso6ycDpgwOALAQFRzKrBR1XqAKqj4BBooGZCAo6AMhgKkAq2v62qGjbFOEO6VT7BFNHgAOAE6SB2/+OqKh3wcBbtUHyAVPSB4Ccei1I6k0AMH0f0Cj3iFgOCHA8wBVpewAx7O9KSrYb5kC5gJTl5EayqAWJYn9ZdkVFB8sFzE0VAQ4AUh4L+cRUYS7HthFgNsx1tcHyASenDIBz0gRAnwKAaSNgv8+2B80FpIoABwCfSBMAvQvAZrNsWdmBygXUUhUUHEm7GCjU/neWLSk5vTZEQAQA5ktSevaXVeEQ8Nn2IFUEPATsmSIAUqsGS/MFtL/jA8xtAwaAsZQEBR0ApLb/xbS/qsp/M3A8sDaWjpycDYCp6QlAiml/R1Ly1UFDQDqCgiMpTgbO30sVd31zwPKBaSFgRFXldDTipEUi219VvzlwkUAqkpIjqbUDCG5/Vf36I4OHgP7l5EbSagdIWQA0i8LA1wePBvQvKJgWABYdoIq/vv4nA+gDFvcNgNETdhD7q/Kn3xoigOEB+u8HmVEK+9sIWDc2RAAFgCt2FPurqrqsNoA+4MqCAZCdAGQGPmDtACKgH0FBOw/Qb0PQgWqJlrx2bAARsLYvD9DfhVFSifa/s24fQB/Qu5zcSJ/qAJp0YMnsr8qL5w4RgDxAP0LB5bO/qqp37jyACFjWuwfoXR5Ckk4oof1Vdc8vDyAPOLdnD9B7R5h2glrONWW3AaSCl/UKgPmCC4BmsfY7ozZEgA+AnjvClqrlXfK1A4iAS3sDwAxpx7O/nRQcwFPg2p4AUAoByAzWoQMYDCQWFBxR5cN7CwCuKLv9VXkAg4HEcnIjvbYEHqwOwNrvpB0eASM9KgQNhP1taeHBOwaSIWCkt3uDB8X+qnry4MWDiQQFR3rqCR0c+6uqvGzgSgNJBAVHVPWUxFHgTbI8QAhQ97xw0BCQQE5uJHlPqHSOOlhLHh00J5BAULAHAAya/Z2A8MId1QeMJL4waADtP4hMIK6gYGIAnCOrg7lOPmvAEDAlJgCSqQQKIACZ2Vq82w6IgBFVPS1BFCCKAFxG58C5A5UWiiUnZwOgbAKgWZ4Dg5QbHouDgJEkYwEDb387KXDSALHBGHJyIwl0QncE+9sQuHbuDoQAGwAxOcDeU+UdAgCqfPLgQKCrnNxI3LkQSTwBwOwQoJ586dwdBAEjcZWCRRMAzXpNGZSIoIug4IiqxhoM2oH2v7/2WzYQDUNdBAVHVPW4GB5g/o5nf3ut3W0gEHBxFwAM7c9nA4sHoV8kCgEjcbTC5++l7rjr4gFIDEQgYCTGzdE7tP3t9OBlpeeDOx8aAYC9pZILAOZxEpTdDXDl5Ea6zYZKQ/u7McHaUrMBrqDgiH1bQKkFIHPMEZ9b6r6hxT0BYGh/TAeWlRcDbDm5kejp8BIJwOWHgdKeBVcyASAv4p//Q/szKeGUtWeVkhOyBAVHVHVGxP6Xh+ZmIUBWp9x+0tzyjZczBAVHVHnG0P69xQWLLy1fsWAtwwMMggBoYYHB2rN23lZqBIyoozz7Hzi0b6zj4NDLyhQZjC0jAXA4TwBwaNyYEFDVKbdfW57TYBkBAPadYdrQ/glRcPGys8pRMsCCgiNsgRDpwNGhUXugBFdedkYJgoPLugPghCH/63ldvPba3cqDADYAhvbvc01ZfNkZIueKLo0EgLR0aP80aMGhy04S1hVcGwWApUPjpYeCPa889yQRhYl9QUEGAIb2TzdGtJOGF99+2VliwcCXk6PDwNOG/j+r3PGday876cK5wiDABQAhFCodPLR/xuvkQ28/96QLBcgZnMTKBB48NFBO58KUO68899ozCk0gnksDYGj/3M+FPRcvu/Ss3Qo5GMamkNXAof2LoonOwXDpWRfunCtTvNIBQNARJN00NEfhQFD3vPPKtededtJZF+ZwOtyOZwOH9hfteDj5zsW3L7vs2pPO2C0bzrinKxU7tL/gTsFR5p1y8aG2a7j2pLPOuDAdPIyd4d0YcqAzGnLFMP4rCy5sQOw3Zc+LD1185dpl51567UlnXbjbl5NjwtGOGHG+5V5Llw77f8vtJZwjY8rJe+558Z2HHrr4yttvX7ts2bnnXnbZtdeedNJZZ51x4YW77fblnSFIdrv0ZDUAwHDtsGsIgB18/X86DCG2rzvCrgAAAABJRU5ErkJggg==;" vertex="1" parent="1">
          <mxGeometry x="38" y="30" width="72" height="72" as="geometry" />
        </mxCell>
        <mxCell id="-xMggP0VJp8ZhJRONr0j-1" value="" style="image;sketch=0;aspect=fixed;html=1;points=[];align=center;fontSize=12;image=img/lib/mscae/Docker.svg;" vertex="1" parent="1">
          <mxGeometry x="610" y="30" width="97.56" height="80" as="geometry" />
        </mxCell>
      </root>
    </mxGraphModel>
  </diagram>
  <diagram id="HqaReiYRgWVku2ZO3vzh" name="Data Ingestion">
    <mxGraphModel dx="2074" dy="1187" grid="1" gridSize="10" guides="1" tooltips="1" connect="1" arrows="1" fold="1" page="1" pageScale="1" pageWidth="850" pageHeight="1100" math="0" shadow="0">
      <root>
        <mxCell id="0" />
        <mxCell id="1" parent="0" />
      </root>
    </mxGraphModel>
  </diagram>
  <diagram id="v2UbA4Ge6iHFvRMktAO9" name="Data Validation">
    <mxGraphModel dx="2074" dy="1187" grid="1" gridSize="10" guides="1" tooltips="1" connect="1" arrows="1" fold="1" page="1" pageScale="1" pageWidth="850" pageHeight="1100" math="0" shadow="0">
      <root>
        <mxCell id="0" />
        <mxCell id="1" parent="0" />
      </root>
    </mxGraphModel>
  </diagram>
  <diagram id="0oHQTDl7G3m9N-I2Ls76" name="Data Transformation">
    <mxGraphModel dx="2074" dy="1187" grid="1" gridSize="10" guides="1" tooltips="1" connect="1" arrows="1" fold="1" page="1" pageScale="1" pageWidth="850" pageHeight="1100" math="0" shadow="0">
      <root>
        <mxCell id="0" />
        <mxCell id="1" parent="0" />
      </root>
    </mxGraphModel>
  </diagram>
  <diagram id="MFehU6oH09Ri-_bG-gc1" name="Model Training">
    <mxGraphModel dx="2074" dy="1187" grid="1" gridSize="10" guides="1" tooltips="1" connect="1" arrows="1" fold="1" page="1" pageScale="1" pageWidth="850" pageHeight="1100" math="0" shadow="0">
      <root>
        <mxCell id="0" />
        <mxCell id="1" parent="0" />
      </root>
    </mxGraphModel>
  </diagram>
  <diagram id="FhzxQ86aoL-iM032gPps" name="Model Serving">
    <mxGraphModel dx="2074" dy="1187" grid="1" gridSize="10" guides="1" tooltips="1" connect="1" arrows="1" fold="1" page="1" pageScale="1" pageWidth="850" pageHeight="1100" math="0" shadow="0">
      <root>
        <mxCell id="0" />
        <mxCell id="1" parent="0" />
      </root>
    </mxGraphModel>
  </diagram>
</mxfile>
